<svg id="Layer_5" enable-background="new 0 0 64 64" height="512" viewBox="0 0 64 64" width="512" xmlns="http://www.w3.org/2000/svg"><g><g><g><path d="m42 32v6h-20v-6h10z" fill="#cf9e76"/></g><g><path d="m48 2h14v10h-2-10-2v-2z" fill="#ccd1d9"/></g><g><path d="m20 14v4h-16v-4h6 4z" fill="#fcd770"/></g><g><path d="m22 18v4h-20v-4h2 16z" fill="#aab2bd"/></g><g><path d="m22 56v6h-20v-40h20v10 6 6 6z" fill="#ccd1d9"/></g><g><path d="m52 44v6h-5-5v-6h8z" fill="#d3a06c"/></g><g><path d="m57 50v6h-5-5v-6h5z" fill="#d3a06c"/></g><g><path d="m62 56v6h-10v-6h5z" fill="#d3a06c"/></g><g><path d="m42 56v6h-10v-6h5z" fill="#d3a06c"/></g><g><path d="m37 50v6h-5-5v-6h5z" fill="#d3a06c"/></g><g><path d="m32 44v6h-5-5v-6z" fill="#d3a06c"/></g><g><path d="m32 56v6h-10v-6h5z" fill="#b27946"/></g><g><path d="m52 56v6h-10v-6h5z" fill="#b27946"/></g><g><path d="m57 50h5v6h-5z" fill="#b27946"/></g><g><path d="m47 50v6h-5-5v-6h5z" fill="#b27946"/></g><g><path d="m22 50h5v6h-5z" fill="#b27946"/></g><g><path d="m42 44v6h-5-5v-6z" fill="#b27946"/></g><g><path d="m62 44v6h-5-5v-6h8z" fill="#b27946"/></g></g><g><path d="m63 13v-12h-35.618l-5 10h8.618v20h-8v-14h-2v-4h-6v-4h-2v4h-2v-6h-2v6h-6v4h-2v46h62v-20h-2v-30zm-14-10h12v8h-12zm10 37.586-7.586-7.586 7.586-7.586zm2 8.414h-8v-4h8zm-10-13.586 7.586 7.586h-7.586zm0 9.586v4h-8v-4zm-13 10v-4h8v4zm3-6h-8v-4h8zm-10 0h-8v-4h8zm-8 2h3v4h-3zm5 0h8v4h-8zm13 6v4h-8v-4zm2 0h8v4h-8zm5-2v-4h8v4zm10-4h3v4h-3zm-7-20.414v-15.172l7.586 7.586zm-15-26.35 2.382 4.764h-4.764zm-4 3.528-2.382-4.764h4.764zm5.618-4.764h4.764l-2.382 4.764zm7 0h2.382v6h-5.382zm-16.618 1.236 2.382 4.764h-4.764zm5 6.764h14v2h2v30h-26v-4h20v-8h-10zm8 22v4h-18v-4zm-36-18h14v2h-14zm16 4v2h-18v-2zm-18 42v-38h18v38zm20-4h8v4h-8zm30 4v-4h8v4zm6-40.414-7.586-7.586h7.586z"/><path d="m51 5h2v4h-2z"/><path d="m57 5h2v4h-2z"/><path d="m5 25h2v2h-2z"/><path d="m9 25h2v2h-2z"/><path d="m13 25h2v2h-2z"/><path d="m17 25h2v2h-2z"/><path d="m9 29h2v2h-2z"/><path d="m5 29h2v2h-2z"/><path d="m13 29h2v2h-2z"/><path d="m17 29h2v2h-2z"/><path d="m5 33h2v2h-2z"/><path d="m13 33h2v2h-2z"/><path d="m9 33h2v2h-2z"/><path d="m17 33h2v2h-2z"/><path d="m17 37h2v2h-2z"/><path d="m9 37h2v2h-2z"/><path d="m13 37h2v2h-2z"/><path d="m5 37h2v2h-2z"/><path d="m17 41h2v2h-2z"/><path d="m5 41h2v2h-2z"/><path d="m13 41h2v2h-2z"/><path d="m9 41h2v2h-2z"/><path d="m13 45h2v2h-2z"/><path d="m9 45h2v2h-2z"/><path d="m17 45h2v2h-2z"/><path d="m5 45h2v2h-2z"/><path d="m17 49h2v2h-2z"/><path d="m13 49h2v2h-2z"/><path d="m5 49h2v2h-2z"/><path d="m9 49h2v2h-2z"/><path d="m17 53h2v2h-2z"/><path d="m5 53h2v2h-2z"/><path d="m9 53h2v2h-2z"/><path d="m13 53h2v2h-2z"/><path d="m9 57h2v2h-2z"/><path d="m5 57h2v2h-2z"/><path d="m13 57h2v2h-2z"/><path d="m17 57h2v2h-2z"/></g></g></svg>