<svg height="464pt" viewBox="-6 0 464 464.13569" width="464pt" xmlns="http://www.w3.org/2000/svg"><path d="m314.085938 70.175781c.890624-35.761719 30.476562-64.097656 66.242187-63.441406s64.292969 30.058594 63.867187 65.828125c-.425781 35.769531-29.644531 64.484375-65.417968 64.292969-35.769532-.195313-64.671875-29.230469-64.710938-65 0-.5625.011719-1.121094.019532-1.679688zm0 0" fill="#87e680"/><path d="m444.066406 231.855469c0 35.898437-29.101562 65-65 65-35.898437 0-65-29.101563-65-65 0-35.898438 29.101563-65 65-65 35.898438 0 65 29.101562 65 65zm0 0" fill="#ea5281"/><path d="m314.085938 393.503906c-.007813-.550781-.019532-1.101562-.019532-1.648437.023438-35.71875 28.871094-64.71875 64.589844-64.925781 35.714844-.203126 64.898438 28.460937 65.332031 64.175781.433594 35.714843-28.046875 65.078125-63.757812 65.738281-35.710938.660156-65.257813-27.632812-66.144531-63.339844zm0 0" fill="#87e680"/><path d="m167.066406 104.8125v280.339844h-55.75v-60.179688h-51.519531v60.179688h-52.730469v-280.339844zm0 0" fill="#00efd1"/><path d="m31.617188 78.554688h110.910156v26.257812h-110.910156zm0 0" fill="#00acea"/><path d="m59.796875 324.972656h51.519531v60.179688h-51.519531zm0 0" fill="#00acea"/><g fill="#083863"><path d="m359.386719 251.523438c2.734375 2.734374 7.164062 2.734374 9.898437 0l9.777344-9.773438 9.773438 9.769531c2.734374 2.734375 7.167968 2.734375 9.902343 0s2.734375-7.164062 0-9.898437l-9.769531-9.765625 9.773438-9.773438c2.734374-2.734375 2.734374-7.164062 0-9.898437-2.734376-2.734375-7.167969-2.734375-9.898438 0l-9.777344 9.769531-9.777344-9.773437c-2.730468-2.734376-7.164062-2.734376-9.898437 0-2.734375 2.734374-2.734375 7.167968 0 9.902343l9.769531 9.773438-9.769531 9.769531c-2.734375 2.730469-2.738281 7.164062-.003906 9.898438zm0 0"/><path d="m366.390625 91.210938c2.617187 2.832031 7.03125 3.019531 9.875.414062l31.898437-29.21875c2.851563-2.613281 3.046876-7.039062.433594-9.890625-2.609375-2.851563-7.039062-3.046875-9.890625-.433594l-26.753906 24.507813-12.121094-13.144532c-1.6875-1.863281-4.246093-2.679687-6.703125-2.132812-2.457031.542969-4.433594 2.367188-5.171875 4.769531-.742187 2.40625-.136719 5.023438 1.585938 6.855469zm0 0"/><path d="m366.390625 411.210938c2.617187 2.832031 7.03125 3.019531 9.875.414062l31.898437-29.21875c2.851563-2.613281 3.046876-7.039062.433594-9.890625-2.609375-2.851563-7.039062-3.046875-9.890625-.433594l-26.753906 24.507813-12.121094-13.144532c-1.6875-1.863281-4.246093-2.679687-6.703125-2.132812-2.457031.542969-4.433594 2.367188-5.171875 4.769531-.742187 2.40625-.136719 5.023438 1.585938 6.855469zm0 0"/><path d="m307.285156 77.175781c2.902344 38.140625 35.226563 67.292969 73.464844 66.257813 38.238281-1.039063 68.9375-31.898438 69.769531-70.140625.832031-38.246094-28.492187-70.414063-66.648437-73.113281-38.15625-2.703126-71.71875 25.015624-76.28125 62.996093h-35.730469c-3.867187 0-7 3.132813-7 7v154.660157h-47.527344l17.125-20.871094c2.453125-2.988282 2.019531-7.398438-.96875-9.851563s-7.398437-2.019531-9.851562.96875l-26.921875 32.800781c-2.453125 2.988282-2.015625 7.398438.972656 9.851563l32.800781 26.910156c1.929688 1.601563 4.570313 2.042969 6.921875 1.164063 2.347656-.878906 4.046875-2.949219 4.449219-5.425782.40625-2.476562-.546875-4.980468-2.492187-6.5625l-18.269532-14.988281h43.757813v154.671875c0 3.863282 3.136719 7 7 7h35.726562c4.539063 38.210938 38.269531 66.132813 76.65625 63.457032 38.386719-2.675782 67.914063-35.007813 67.105469-73.480469-.808594-38.472657-31.667969-69.539063-70.132812-70.597657-38.464844-1.0625-70.992188 28.25-73.921876 66.621094h-28.429687v-147.667968h28.550781c3.734375 38.21875 36.808594 66.78125 75.164063 64.914062 38.359375-1.871094 68.496093-33.511719 68.496093-71.914062 0-38.402344-30.136718-70.046876-68.496093-71.917969-38.355469-1.867188-71.429688 26.695312-75.164063 64.917969h-28.550781v-147.660157zm13.800782-6.824219c.773437-31.90625 27.160156-57.207031 59.070312-56.640624 31.910156.570312 57.378906 26.789062 57.019531 58.703124-.359375 31.917969-26.417969 57.554688-58.332031 57.402344-31.917969-.15625-57.722656-26.046875-57.777344-57.960937 0-.519531.011719-1.039063.019532-1.5zm57.980468 263.503907c31.835938 0 57.71875 25.65625 58 57.492187.277344 31.832032-25.152344 57.9375-56.984375 58.496094-31.828125.558594-58.15625-24.640625-58.996093-56.464844-.007813-.507812-.019532-1.015625-.019532-1.523437.039063-32.019531 25.984375-57.964844 58-58zm0-160c32.035156 0 58 25.964843 58 58 0 32.03125-25.964844 58-58 58-32.03125 0-58-25.96875-58-58 .039063-32.019531 25.984375-57.964844 58-58zm0 0"/><path d="m167.066406 97.8125h-17.539062v-19.257812c0-3.867188-3.132813-7-7-7h-110.910156c-3.867188 0-7 3.132812-7 7v19.257812h-17.550782c-3.863281 0-6.9999998 3.136719-6.9999998 7v280.339844c0 3.867187 3.1367188 7 6.9999998 7h160c3.867188 0 7-3.132813 7-7v-280.339844c0-3.863281-3.132812-7-7-7zm-128.449218-12.257812h96.910156v12.257812h-96.910156zm65.699218 292.597656h-37.519531v-46.179688h37.519531zm55.75 0h-41.75v-53.179688c0-3.863281-3.132812-7-7-7h-51.519531c-3.863281 0-7 3.136719-7 7v53.179688h-38.730469v-266.339844h146zm0 0"/><path d="m96.128906 164.675781h-18.109375c-3.867187 0-7 3.132813-7 7 0 3.863281 3.132813 7 7 7h18.109375c3.863282 0 7-3.136719 7-7 0-3.867187-3.136718-7-7-7zm0 0"/><path d="m96.128906 203.84375h-18.109375c-3.867187 0-7 3.132812-7 7s3.132813 7 7 7h18.109375c3.863282 0 7-3.132812 7-7s-3.136718-7-7-7zm0 0"/><path d="m146.128906 164.675781h-18.109375c-3.867187 0-7 3.132813-7 7 0 3.863281 3.132813 7 7 7h18.109375c3.863282 0 7-3.136719 7-7 0-3.867187-3.136718-7-7-7zm0 0"/><path d="m146.128906 203.84375h-18.109375c-3.867187 0-7 3.132812-7 7s3.132813 7 7 7h18.109375c3.863282 0 7-3.132812 7-7s-3.136718-7-7-7zm0 0"/><path d="m46.128906 164.675781h-18.109375c-3.867187 0-7 3.132813-7 7 0 3.863281 3.132813 7 7 7h18.109375c3.863282 0 7-3.136719 7-7 0-3.867187-3.136718-7-7-7zm0 0"/><path d="m46.128906 203.84375h-18.109375c-3.867187 0-7 3.132812-7 7s3.132813 7 7 7h18.109375c3.863282 0 7-3.132812 7-7s-3.136718-7-7-7zm0 0"/><path d="m96.128906 124.675781h-18.109375c-3.867187 0-7 3.132813-7 7 0 3.863281 3.132813 7 7 7h18.109375c3.863282 0 7-3.136719 7-7 0-3.867187-3.136718-7-7-7zm0 0"/><path d="m121.019531 131.675781c0 3.863281 3.132813 7 7 7h18.109375c3.863282 0 7-3.136719 7-7 0-3.867187-3.136718-7-7-7h-18.109375c-3.867187 0-7 3.132813-7 7zm0 0"/><path d="m46.128906 124.675781h-18.109375c-3.867187 0-7 3.132813-7 7 0 3.863281 3.132813 7 7 7h18.109375c3.863282 0 7-3.136719 7-7 0-3.867187-3.136718-7-7-7zm0 0"/><path d="m96.128906 243.84375h-18.109375c-3.867187 0-7 3.132812-7 7s3.132813 7 7 7h18.109375c3.863282 0 7-3.132812 7-7s-3.136718-7-7-7zm0 0"/><path d="m146.128906 243.84375h-18.109375c-3.867187 0-7 3.132812-7 7s3.132813 7 7 7h18.109375c3.863282 0 7-3.132812 7-7s-3.136718-7-7-7zm0 0"/><path d="m46.128906 243.84375h-18.109375c-3.867187 0-7 3.132812-7 7s3.132813 7 7 7h18.109375c3.863282 0 7-3.132812 7-7s-3.136718-7-7-7zm0 0"/><path d="m96.128906 283.84375h-18.109375c-3.867187 0-7 3.132812-7 7s3.132813 7 7 7h18.109375c3.863282 0 7-3.132812 7-7s-3.136718-7-7-7zm0 0"/><path d="m146.128906 283.84375h-18.109375c-3.867187 0-7 3.132812-7 7s3.132813 7 7 7h18.109375c3.863282 0 7-3.132812 7-7s-3.136718-7-7-7zm0 0"/><path d="m46.128906 283.84375h-18.109375c-3.867187 0-7 3.132812-7 7s3.132813 7 7 7h18.109375c3.863282 0 7-3.132812 7-7s-3.136718-7-7-7zm0 0"/></g></svg>