<svg xmlns="http://www.w3.org/2000/svg" viewBox="0 0 500 300"><defs><style>.cls-1,.cls-2,.cls-3,.cls-4,.cls-5{fill:none;stroke:#1ab675;}.cls-1,.cls-4{stroke-linecap:round;}.cls-1,.cls-3,.cls-4,.cls-5{stroke-linejoin:round;}.cls-1,.cls-2,.cls-5{stroke-width:4px;}.cls-2{stroke-miterlimit:10;}.cls-3{stroke-width:2px;}.cls-4{stroke-width:2px;}</style></defs><title>up_projects_icons</title><g id="Capa_1" data-name="Capa 1"><polyline class="cls-1" points="82.59 298.49 498.52 298.49 498.52 43.07 382.9 43.07 382.9 297.07"/><polyline class="cls-2" points="255.25 299.39 255.25 102.07 382.9 102.07"/><polyline class="cls-2" points="364.89 100.56 364.89 78.56 267.73 78.56 267.73 100.56"/><line class="cls-2" x1="441.59" y1="42.56" x2="441.59" y2="22.9"/><line class="cls-2" x1="358.92" y1="123.06" x2="345.09" y2="123.06"/><line class="cls-2" x1="326.92" y1="123.06" x2="313.09" y2="123.06"/><line class="cls-2" x1="294.92" y1="123.06" x2="281.09" y2="123.06"/><line class="cls-2" x1="358.92" y1="153.06" x2="345.09" y2="153.06"/><line class="cls-2" x1="326.92" y1="153.06" x2="313.09" y2="153.06"/><line class="cls-2" x1="294.92" y1="153.06" x2="281.09" y2="153.06"/><line class="cls-2" x1="358.92" y1="183.06" x2="345.09" y2="183.06"/><line class="cls-2" x1="326.92" y1="183.06" x2="313.09" y2="183.06"/><line class="cls-2" x1="294.92" y1="183.06" x2="281.09" y2="183.06"/><line class="cls-2" x1="358.92" y1="213.06" x2="345.09" y2="213.06"/><line class="cls-2" x1="326.92" y1="213.06" x2="313.09" y2="213.06"/><line class="cls-2" x1="294.92" y1="213.06" x2="281.09" y2="213.06"/><polyline class="cls-2" points="343.59 298.49 343.59 248.06 306.09 248.06 306.09 298.49"/><line class="cls-2" x1="487.59" y1="77.56" x2="404.09" y2="77.56"/><line class="cls-2" x1="487.59" y1="107.56" x2="404.09" y2="107.56"/><line class="cls-2" x1="487.59" y1="137.56" x2="404.09" y2="137.56"/><line class="cls-2" x1="487.59" y1="167.56" x2="404.09" y2="167.56"/><line class="cls-2" x1="487.59" y1="197.56" x2="404.09" y2="197.56"/><line class="cls-2" x1="487.59" y1="227.56" x2="404.09" y2="227.56"/><path class="cls-1" d="M290,56.32a11.48,11.48,0,0,1,0-23h.17a11.49,11.49,0,0,1,15.22-8.86,13.69,13.69,0,0,1,24.78,8c0,.33,0,.65,0,1a12.35,12.35,0,0,1,1.84-.14,11.48,11.48,0,1,1,0,23Z"/><path class="cls-1" d="M28.15,104.14a6.73,6.73,0,1,1,0-13.45,6.57,6.57,0,0,1,1.73.23c0-.46-.07-.92-.07-1.39A13.29,13.29,0,0,1,56,86.12a9.5,9.5,0,1,1,4.21,18Z"/><line class="cls-3" x1="155.08" y1="98.07" x2="147.09" y2="106.06"/><line class="cls-3" x1="155.08" y1="106.06" x2="147.09" y2="98.07"/><line class="cls-3" x1="222.48" y1="27.52" x2="215.68" y2="27.52"/><circle class="cls-1" cx="96.28" cy="129.94" r="0.63"/><circle class="cls-1" cx="398.32" cy="18.84" r="0.63"/><circle class="cls-1" cx="34.88" cy="22.9" r="0.63"/><circle class="cls-4" cx="242.68" cy="89.56" r="0.63"/><polyline class="cls-5" points="154.06 50.12 147.68 42.51 140.09 49.75 132.64 42.51 125.11 49.75 118.5 43.16 111.28 49.96 104.94 42.81"/><line class="cls-1" x1="144.91" y1="298.49" x2="144.91" y2="184.83"/><path class="cls-1" d="M135.63,170.59a19.81,19.81,0,0,0-20.15,33.62,28.59,28.59,0,0,0,7.71,56.13c7.24,0,16.4-2.69,21.44-7.13,5,8.35,11.56,14,22,14a28.6,28.6,0,0,0,13.83-53.63,22.21,22.21,0,0,0-19.23-37.4"/><polyline class="cls-1" points="121.42 226.57 144.91 239.35 167.85 224.44"/><polyline class="cls-1" points="162.74 193.78 144.91 202.72 128.24 193.78"/><path class="cls-1" d="M161,176.18a13.49,13.49,0,0,0-24.5-5.39"/><path class="cls-1" d="M138.89,298.49a15.8,15.8,0,0,0,.61-4.37,16.06,16.06,0,1,0-32.11,0,16.46,16.46,0,0,0,.51,4.05"/><path class="cls-1" d="M107.66,290.48c-5.18-14.78-28.81-7.46-24.85,7.75"/><polyline class="cls-2" points="254.6 115.9 185.56 141.59 185.56 190.58"/><line class="cls-2" x1="185.56" y1="259.72" x2="185.56" y2="297.69"/><line class="cls-5" x1="231.34" y1="123.83" x2="231.34" y2="177.85"/><line class="cls-5" x1="206.34" y1="134.83" x2="206.34" y2="194.85"/></g></svg>