<svg xmlns="http://www.w3.org/2000/svg" viewBox="0 0 500 300"><defs><style>.cls-1,.cls-2,.cls-3,.cls-4,.cls-5,.cls-6{fill:none;stroke:#00b7a6;}.cls-1,.cls-6{stroke-miterlimit:10;}.cls-1,.cls-2,.cls-3{stroke-width:3px;}.cls-2,.cls-4{stroke-linecap:round;}.cls-2,.cls-3,.cls-4,.cls-5{stroke-linejoin:round;}.cls-4{stroke-width:5px;}.cls-5,.cls-6{stroke-width:2px;}</style></defs><title>up_projects_icons</title><g id="Capa_1" data-name="Capa 1"><line class="cls-1" x1="233.47" y1="298.5" x2="233.47" y2="227.5"/><line class="cls-1" x1="149.08" y1="297.35" x2="149.08" y2="226.01"/><polygon class="cls-1" points="133.59 226.01 254.97 226.01 192.76 185.34 133.59 226.01"/><polyline class="cls-1" points="152.88 212.59 152.88 195.01 162.76 195.01 162.76 205.97"/><polyline class="cls-1" points="180.13 298.5 180.13 268.5 202.54 268.5 202.54 298.5"/><polyline class="cls-1" points="233.47 211.96 233.47 98.5 346.47 98.5"/><polyline class="cls-1" points="347.83 298.5 347.83 31.5 498.5 31.5 498.5 299.88"/><line class="cls-1" x1="39.47" y1="298.5" x2="498.5" y2="298.5"/><path class="cls-2" d="M217.21,51.88a12,12,0,0,1,0-24h.17a12,12,0,0,1,15.93-9.27A14.32,14.32,0,0,1,259.23,27c0,.34,0,.68,0,1a12.23,12.23,0,0,1,1.92-.16,12,12,0,0,1,0,24Z"/><path class="cls-2" d="M60.11,85.42a7.76,7.76,0,1,0-2-15.25,13.86,13.86,0,0,0,.09-1.59,15.33,15.33,0,0,0-30.14-3.94A11,11,0,1,0,23.2,85.42Z"/><polyline class="cls-3" points="55.17 31.5 62.51 22.75 71.25 31.08 79.82 22.75 88.48 31.08 96.09 23.5 104.4 31.32 111.7 23.09"/><circle class="cls-4" cx="35.17" cy="126.13" r="0.63"/><circle class="cls-2" cx="410.19" cy="18.65" r="0.63"/><circle class="cls-2" cx="326.44" cy="51.5" r="0.63"/><line class="cls-5" x1="182.62" y1="17.3" x2="182.62" y2="28.6"/><line class="cls-5" x1="176.97" y1="22.95" x2="188.28" y2="22.95"/><line class="cls-3" x1="132.15" y1="88.13" x2="139.03" y2="88.13"/><line class="cls-3" x1="294.05" y1="78.9" x2="294.05" y2="59.13"/><polyline class="cls-1" points="403.08 297.63 403.08 251.84 448.48 251.84 448.48 297.63"/><circle class="cls-6" cx="197.25" cy="141.84" r="4.39"/><path class="cls-2" d="M66.67,298.43a15.82,15.82,0,0,1-.61-4.38,16.06,16.06,0,0,1,32.11,0,16.34,16.34,0,0,1-.51,4.05"/><path class="cls-2" d="M41.06,297.63a12.48,12.48,0,0,1,25,0"/><polyline class="cls-1" points="254.96 97.91 254.96 79.02 332.11 79.02 332.11 97.91"/><line class="cls-1" x1="365.45" y1="61.5" x2="480.63" y2="61.5"/><line class="cls-1" x1="365.45" y1="91.5" x2="480.63" y2="91.5"/><line class="cls-1" x1="365.45" y1="121.5" x2="480.63" y2="121.5"/><line class="cls-1" x1="365.45" y1="151.5" x2="480.63" y2="151.5"/><line class="cls-1" x1="365.45" y1="181.5" x2="480.63" y2="181.5"/><line class="cls-1" x1="365.45" y1="211.5" x2="480.63" y2="211.5"/><rect class="cls-1" x="255.97" y="116.57" width="16.93" height="16.93"/><rect class="cls-1" x="305.97" y="116.57" width="16.93" height="16.93"/><rect class="cls-1" x="255.97" y="156.57" width="16.93" height="16.93"/><rect class="cls-1" x="305.97" y="156.57" width="16.93" height="16.93"/><rect class="cls-1" x="255.97" y="196.57" width="16.93" height="16.93"/><rect class="cls-1" x="305.97" y="196.57" width="16.93" height="16.93"/><polyline class="cls-1" points="276.97 298.5 276.97 259 306.47 259 306.47 298.5"/><line class="cls-1" x1="75.14" y1="279.42" x2="75.14" y2="234.77"/><path class="cls-1" d="M147.62,217.68l-31.45-22.11-55.95,39.2h89.24"/><polyline class="cls-1" points="78.71 221.98 78.71 205.59 87.99 205.59 87.99 215.77"/><polyline class="cls-1" points="105.18 298.5 105.18 270.32 126.23 270.32 126.23 298.5"/></g></svg>