<svg xmlns="http://www.w3.org/2000/svg" viewBox="0 0 500 300"><defs><style>.cls-1,.cls-2,.cls-3,.cls-4,.cls-5,.cls-6{fill:none;stroke:#b61a1e;}.cls-1,.cls-4{stroke-linecap:round;}.cls-1,.cls-3,.cls-4,.cls-5{stroke-linejoin:round;}.cls-1,.cls-2,.cls-5{stroke-width:3px;}.cls-2,.cls-6{stroke-miterlimit:10;}.cls-3,.cls-6{stroke-width:2px;}.cls-4{stroke-width:5px;}</style></defs><title>up_projects_icons</title><g id="Capa_1" data-name="Capa 1"><polyline class="cls-1" points="54.56 298.5 498.5 298.5 498.5 37.08 382.88 37.08 382.88 297.08"/><line class="cls-2" x1="441.56" y1="36.58" x2="441.56" y2="18.91"/><polyline class="cls-2" points="187.7 299.41 187.7 121.37 302.88 121.37"/><polyline class="cls-2" points="286.62 120.01 286.62 100.16 198.96 100.16 198.96 120.01"/><line class="cls-2" x1="281.24" y1="140.31" x2="268.76" y2="140.31"/><line class="cls-2" x1="252.36" y1="140.31" x2="239.88" y2="140.31"/><line class="cls-2" x1="223.49" y1="140.31" x2="211.01" y2="140.31"/><line class="cls-2" x1="281.24" y1="167.38" x2="268.76" y2="167.38"/><line class="cls-2" x1="252.36" y1="167.38" x2="239.88" y2="167.38"/><line class="cls-2" x1="223.49" y1="167.38" x2="211.01" y2="167.38"/><line class="cls-2" x1="281.24" y1="194.45" x2="268.76" y2="194.45"/><line class="cls-2" x1="252.36" y1="194.45" x2="239.88" y2="194.45"/><line class="cls-2" x1="223.49" y1="194.45" x2="211.01" y2="194.45"/><line class="cls-2" x1="281.24" y1="221.52" x2="268.76" y2="221.52"/><line class="cls-2" x1="252.36" y1="221.52" x2="239.88" y2="221.52"/><line class="cls-2" x1="223.49" y1="221.52" x2="211.01" y2="221.52"/><polyline class="cls-2" points="267.41 298.59 267.41 253.1 233.57 253.1 233.57 298.59"/><line class="cls-2" x1="482.56" y1="63.58" x2="399.06" y2="63.58"/><line class="cls-2" x1="482.56" y1="93.58" x2="399.06" y2="93.58"/><line class="cls-2" x1="482.56" y1="123.58" x2="399.06" y2="123.58"/><line class="cls-2" x1="482.56" y1="153.58" x2="399.06" y2="153.58"/><line class="cls-2" x1="482.56" y1="183.58" x2="399.06" y2="183.58"/><line class="cls-2" x1="482.56" y1="213.58" x2="399.06" y2="213.58"/><path class="cls-1" d="M290,52.33a11.48,11.48,0,0,1,0-23h.17a11.48,11.48,0,0,1,11.31-9.55,11.24,11.24,0,0,1,3.91.69,13.69,13.69,0,0,1,24.78,8c0,.33,0,.65,0,1a11.14,11.14,0,0,1,1.84-.15,11.48,11.48,0,0,1,0,23Z"/><path class="cls-1" d="M23.12,104.15a6.72,6.72,0,1,1,0-13.44,6.56,6.56,0,0,1,1.73.22c0-.45-.07-.91-.07-1.38a13.29,13.29,0,0,1,26.14-3.41,9.5,9.5,0,1,1,4.21,18Z"/><line class="cls-3" x1="223.17" y1="25.42" x2="216.94" y2="31.65"/><line class="cls-3" x1="223.17" y1="31.65" x2="216.94" y2="25.42"/><circle class="cls-1" cx="91.25" cy="129.96" r="0.63"/><circle class="cls-1" cx="398.29" cy="12.86" r="0.63"/><circle class="cls-1" cx="33.85" cy="20.91" r="0.63"/><circle class="cls-4" cx="297.49" cy="81.4" r="0.63"/><polyline class="cls-5" points="154.03 50.14 147.65 42.53 140.06 49.77 132.61 42.53 125.08 49.77 118.47 43.18 111.25 49.98 104.91 42.82"/><polyline class="cls-2" points="382.58 65.91 303.53 91.61 303.53 298.5"/><line class="cls-5" x1="349.31" y1="77.85" x2="349.31" y2="137.87"/><line class="cls-5" x1="324.31" y1="84.85" x2="324.31" y2="144.87"/><polyline class="cls-2" points="187.7 175.55 98.74 175.55 98.74 197.58 187.7 197.58"/><line class="cls-2" x1="108.11" y1="219.5" x2="108.11" y2="197.86"/><polyline class="cls-2" points="421.59 298.5 421.59 244.35 462.94 244.35 462.94 298.5"/><line class="cls-2" x1="187.7" y1="215.86" x2="169.11" y2="215.86"/><line class="cls-2" x1="187.7" y1="234.86" x2="169.11" y2="234.86"/><line class="cls-2" x1="187.7" y1="252.86" x2="169.11" y2="252.86"/><line class="cls-2" x1="187.7" y1="270.86" x2="169.11" y2="270.86"/><rect class="cls-2" x="83.08" y="218.29" width="36.63" height="64.82" rx="18.31" ry="18.31"/><line class="cls-2" x1="101.4" y1="298.83" x2="101.4" y2="239.57"/><polyline class="cls-2" points="92.29 245.52 101.4 252.51 109.64 245.52"/><polyline class="cls-2" points="92.29 257.02 101.4 264.02 109.64 257.02"/><polyline class="cls-2" points="92.29 268.53 101.4 275.53 109.64 268.53"/><path class="cls-1" d="M93.23,298.42a11,11,0,1,0-21.65-3,10.73,10.73,0,0,0,.36,2.79"/><path class="cls-5" d="M71.77,292.91c-5.26-9.66-19.68-3.45-17,7"/><circle class="cls-6" cx="150.23" cy="100.94" r="5"/><line class="cls-2" x1="242.79" y1="100.16" x2="242.79" y2="84.85"/></g></svg>