<svg xmlns="http://www.w3.org/2000/svg" viewBox="0 0 500 300"><defs><style>.cls-1,.cls-2,.cls-3,.cls-4,.cls-5{fill:none;stroke:#324ba0;}.cls-1{stroke-miterlimit:10;}.cls-1,.cls-2,.cls-3{stroke-width:3px;}.cls-2,.cls-4{stroke-linecap:round;}.cls-2,.cls-3,.cls-4,.cls-5{stroke-linejoin:round;}.cls-4{stroke-width:5px;}.cls-5{stroke-width:2px;}</style></defs><title>up_projects_icons</title><g id="Capa_1" data-name="Capa 1"><polyline class="cls-1" points="59.65 298.52 498.49 298.52 498.49 104.52 498.49 34.85 486.74 34.85 380.51 34.85 369.19 34.85 369.19 105.18 369.19 298.52"/><line class="cls-1" x1="394.73" y1="98.93" x2="394.73" y2="298.52"/><line class="cls-1" x1="394.73" y1="87.24" x2="394.73" y2="78.62"/><line class="cls-1" x1="394.73" y1="65.24" x2="394.73" y2="50.62"/><line class="cls-1" x1="420.36" y1="78.62" x2="420.36" y2="298.52"/><line class="cls-1" x1="420.32" y1="65.24" x2="420.32" y2="50.62"/><line class="cls-1" x1="472.37" y1="98.93" x2="472.37" y2="298.52"/><line class="cls-1" x1="472.37" y1="87.24" x2="472.37" y2="78.62"/><line class="cls-1" x1="472.37" y1="65.24" x2="472.37" y2="50.62"/><line class="cls-1" x1="447.75" y1="78.62" x2="447.75" y2="298.52"/><line class="cls-1" x1="447.78" y1="65.24" x2="447.78" y2="50.62"/><polyline class="cls-1" points="174.76 214.84 174.76 163.54 167.83 163.54 167.83 148.81 268.74 148.81 268.74 163.43 261.72 163.54 261.72 296.43"/><polyline class="cls-1" points="260.07 148.75 260.07 83.15 370.05 83.15"/><line class="cls-1" x1="283.16" y1="102.18" x2="283.16" y2="108.27"/><line class="cls-1" x1="315.16" y1="102.18" x2="315.16" y2="108.27"/><line class="cls-1" x1="348.16" y1="102.18" x2="348.16" y2="108.27"/><line class="cls-1" x1="283.16" y1="127.18" x2="283.16" y2="133.27"/><line class="cls-1" x1="315.16" y1="127.18" x2="315.16" y2="133.27"/><line class="cls-1" x1="348.16" y1="127.18" x2="348.16" y2="133.27"/><line class="cls-1" x1="315.16" y1="152.18" x2="315.16" y2="158.27"/><line class="cls-1" x1="348.16" y1="152.18" x2="348.16" y2="158.27"/><line class="cls-1" x1="315.16" y1="176.18" x2="315.16" y2="182.27"/><line class="cls-1" x1="348.16" y1="176.18" x2="348.16" y2="182.27"/><line class="cls-1" x1="315.16" y1="200.18" x2="315.16" y2="206.27"/><line class="cls-1" x1="348.16" y1="200.18" x2="348.16" y2="206.27"/><line class="cls-1" x1="315.16" y1="224.18" x2="315.16" y2="230.27"/><line class="cls-1" x1="348.16" y1="224.18" x2="348.16" y2="230.27"/><rect class="cls-1" x="136.33" y="205.1" width="42.48" height="75.18" rx="21.24" ry="21.24"/><line class="cls-1" x1="157.58" y1="229.79" x2="157.58" y2="298.52"/><polyline class="cls-1" points="147.01 236.68 157.57 244.8 167.14 236.68"/><polyline class="cls-1" points="147.01 250.03 157.57 258.15 167.14 250.03"/><polyline class="cls-1" points="147.01 263.37 157.57 271.49 167.14 263.37"/><rect class="cls-1" x="89.33" y="214.79" width="38.08" height="67.38" rx="19.04" ry="19.04"/><line class="cls-1" x1="108.37" y1="298.52" x2="108.37" y2="236.92"/><polyline class="cls-1" points="98.9 243.1 108.37 250.38 116.94 243.1"/><polyline class="cls-1" points="98.9 255.06 108.37 262.34 116.94 255.06"/><polyline class="cls-1" points="98.9 267.02 108.37 274.3 116.94 267.02"/><path class="cls-2" d="M99.48,298.11a11,11,0,1,0-21.3-.22"/><path class="cls-3" d="M78,292.6c-5.26-9.66-19.68-3.44-17,7"/><path class="cls-2" d="M270.94,57.53a11.83,11.83,0,1,0,0-23.65h-.17a11.84,11.84,0,0,0-15.68-9.13A14.1,14.1,0,0,0,229.57,33c0,.34,0,.67,0,1a11.83,11.83,0,1,0-1.89,23.5Z"/><path class="cls-2" d="M29.62,101.08a7.18,7.18,0,0,1,0-14.36,7.5,7.5,0,0,1,1.85.24,14.2,14.2,0,0,1,27.84-5.12,10.15,10.15,0,1,1,4.49,19.24Z"/><polyline class="cls-3" points="15.01 33.27 24.82 21.57 36.5 32.71 47.96 21.57 59.54 32.71 69.72 22.57 80.82 33.02 90.57 22.02"/><circle class="cls-4" cx="180.93" cy="99.78" r="0.63"/><circle class="cls-2" cx="323.93" cy="21.57" r="0.63"/><circle class="cls-2" cx="89.2" cy="128.5" r="0.63"/><line class="cls-5" x1="378.93" y1="17.04" x2="386.93" y2="25.03"/><line class="cls-5" x1="378.93" y1="25.03" x2="386.93" y2="17.04"/><line class="cls-1" x1="315.16" y1="82.37" x2="315.16" y2="60.22"/><polyline class="cls-1" points="458.93 34.85 458.93 20.04 490.93 20.04 490.93 34.85"/><line class="cls-1" x1="174.76" y1="163.54" x2="261.72" y2="163.54"/><polyline class="cls-1" points="190.73 178.46 190.73 192.57 203.04 192.57"/><polyline class="cls-1" points="233.73 178.46 233.73 192.57 246.04 192.57"/><polyline class="cls-1" points="190.73 211.46 190.73 225.57 203.04 225.57"/><polyline class="cls-1" points="233.73 211.46 233.73 225.57 246.04 225.57"/><polyline class="cls-1" points="190.73 244.46 190.73 258.57 203.04 258.57"/><polyline class="cls-1" points="233.73 244.46 233.73 258.57 246.04 258.57"/><line class="cls-5" x1="124.36" y1="52.53" x2="131.18" y2="52.53"/></g></svg>