<svg xmlns="http://www.w3.org/2000/svg" viewBox="0 0 500 300"><defs><style>.cls-1,.cls-2,.cls-3,.cls-4,.cls-5,.cls-6{fill:none;stroke:#f38412;}.cls-1{stroke-miterlimit:10;}.cls-1,.cls-2,.cls-3{stroke-width:3px;}.cls-2,.cls-4,.cls-6{stroke-linecap:round;}.cls-2,.cls-3,.cls-4,.cls-5,.cls-6{stroke-linejoin:round;}.cls-4{stroke-width:5px;}.cls-5,.cls-6{stroke-width:2px;}</style></defs><title>up_projects_icons</title><g id="Capa_1" data-name="Capa 1"><polyline class="cls-1" points="205.22 300 205.22 102.1 307.63 102.1 307.63 300"/><polyline class="cls-1" points="112.92 279 112.92 155.18 205.22 155.18 205.22 300"/><line class="cls-1" x1="124.93" y1="180.64" x2="193.4" y2="180.64"/><line class="cls-1" x1="124.93" y1="205.61" x2="193.4" y2="205.61"/><line class="cls-1" x1="124.93" y1="229.79" x2="193.4" y2="229.79"/><line class="cls-1" x1="124.93" y1="253.98" x2="193.4" y2="253.98"/><polyline class="cls-1" points="396.16 175.18 498.53 175.18 498.53 300"/><line class="cls-1" x1="455.48" y1="190.95" x2="438.41" y2="190.95"/><polyline class="cls-1" points="421.97 190.95 413.97 190.95 413.44 190.95"/><polyline class="cls-1" points="480.45 190.95 472.45 190.95 471.92 190.95"/><line class="cls-1" x1="455.48" y1="208.02" x2="438.41" y2="208.02"/><polyline class="cls-1" points="421.97 208.02 413.97 208.02 413.44 208.02"/><polyline class="cls-1" points="480.45 208.02 472.45 208.02 471.92 208.02"/><line class="cls-1" x1="455.48" y1="225.09" x2="438.41" y2="225.09"/><polyline class="cls-1" points="421.97 225.09 413.97 225.09 413.44 225.09"/><polyline class="cls-1" points="480.45 225.09 472.45 225.09 471.92 225.09"/><line class="cls-1" x1="455.48" y1="242.16" x2="438.41" y2="242.16"/><polyline class="cls-1" points="421.97 242.16 413.97 242.16 413.44 242.16"/><polyline class="cls-1" points="480.45 242.16 472.45 242.16 471.92 242.16"/><polyline class="cls-1" points="429.08 298.82 429.08 266.81 463.22 266.81 463.22 298.82"/><polyline class="cls-1" points="490.19 175.18 490.19 30.5 395.16 31.08 395.16 298.08"/><rect class="cls-1" x="321.64" y="86.94" width="18.13" height="18.13"/><rect class="cls-1" x="357.55" y="86.94" width="18.13" height="18.13"/><rect class="cls-1" x="321.64" y="135.65" width="18.13" height="18.13"/><rect class="cls-1" x="357.55" y="135.65" width="18.13" height="18.13"/><polyline class="cls-1" points="239.06 300 239.06 259.75 272.02 259.75 272.02 300"/><line class="cls-1" x1="157.82" y1="153.87" x2="157.82" y2="133.65"/><polyline class="cls-1" points="396.22 65.08 295.92 65.08 295.92 102.7"/><path class="cls-2" d="M207.26,57.73a11.83,11.83,0,1,0,0-23.65h-.17A11.84,11.84,0,0,0,191.41,25a14.1,14.1,0,0,0-25.52,8.28c0,.34,0,.67,0,1A11.83,11.83,0,1,0,164,57.73Z"/><path class="cls-2" d="M36.71,98.31a7.18,7.18,0,0,1,0-14.36,7.06,7.06,0,0,1,1.85.24A14.2,14.2,0,0,1,66.4,79.07a10.15,10.15,0,1,1,4.5,19.24Z"/><polyline class="cls-3" points="257.92 44.93 267.73 33.23 279.41 44.36 290.87 33.23 302.45 44.36 312.62 34.23 323.73 44.68 333.48 33.68"/><circle class="cls-4" cx="112.92" cy="64.09" r="0.63"/><circle class="cls-2" cx="272.02" cy="87.35" r="0.63"/><circle class="cls-2" cx="70.57" cy="133.03" r="0.63"/><line class="cls-5" x1="33.57" y1="15.08" x2="33.57" y2="23.17"/><line class="cls-5" x1="29.53" y1="19.13" x2="37.62" y2="19.13"/><line class="cls-5" x1="160.82" y1="104.42" x2="168.81" y2="112.41"/><line class="cls-5" x1="160.82" y1="112.41" x2="168.81" y2="104.42"/><line class="cls-1" x1="411.34" y1="57.35" x2="472.01" y2="57.35"/><line class="cls-1" x1="411.34" y1="87.35" x2="472.01" y2="87.35"/><line class="cls-1" x1="411.34" y1="117.35" x2="472.01" y2="117.35"/><line class="cls-1" x1="411.34" y1="147.35" x2="472.01" y2="147.35"/><rect class="cls-1" x="321.64" y="184.65" width="18.13" height="18.13"/><rect class="cls-1" x="357.55" y="184.65" width="18.13" height="18.13"/><rect class="cls-1" x="357.55" y="234.65" width="18.13" height="18.13"/><line class="cls-1" x1="229.98" y1="102.1" x2="229.98" y2="184.65"/><line class="cls-1" x1="255.98" y1="102.1" x2="255.98" y2="184.65"/><line class="cls-1" x1="281.98" y1="102.1" x2="281.98" y2="184.65"/><path class="cls-3" d="M93.42,298.43a16.25,16.25,0,0,1-.6-4.38,16.06,16.06,0,0,1,32.11,0,15.89,15.89,0,0,1-.52,4.05"/><path class="cls-3" d="M125.82,297.63a12.48,12.48,0,1,1,25,0"/><path class="cls-3" d="M67.63,299.92c0-6.89,5.77-14.77,12.66-14.77a12.48,12.48,0,0,1,12.48,12.48"/><line class="cls-1" x1="67.01" y1="298.43" x2="498.67" y2="298.43"/><circle class="cls-6" cx="370.04" cy="28.2" r="5.03"/></g></svg>