<svg xmlns="http://www.w3.org/2000/svg" viewBox="0 0 500 300"><defs><style>.cls-1,.cls-2,.cls-3,.cls-4,.cls-5{fill:none;stroke:#fb5516;}.cls-1{stroke-miterlimit:10;}.cls-1,.cls-2,.cls-3{stroke-width:4px;}.cls-2,.cls-4{stroke-linecap:round;}.cls-2,.cls-3,.cls-4,.cls-5{stroke-linejoin:round;}.cls-4{stroke-width:2px;}.cls-5{stroke-width:2px;}</style></defs><title>up_projects_icons</title><g id="Capa_1" data-name="Capa 1"><rect class="cls-1" x="199.47" y="100.61" width="102.41" height="197.9"/><rect class="cls-1" x="107.17" y="173.69" width="92.3" height="124.82"/><line class="cls-1" x1="119.18" y1="198.15" x2="187.66" y2="198.15"/><line class="cls-1" x1="119.18" y1="223.12" x2="187.66" y2="223.12"/><line class="cls-1" x1="119.18" y1="247.3" x2="187.66" y2="247.3"/><line class="cls-1" x1="119.18" y1="271.48" x2="187.66" y2="271.48"/><rect class="cls-1" x="302.42" y="173.69" width="103.36" height="124.82"/><line class="cls-1" x1="362.73" y1="189.45" x2="345.67" y2="189.45"/><polyline class="cls-1" points="329.23 189.45 321.23 189.45 320.69 189.45"/><polyline class="cls-1" points="387.71 189.45 379.7 189.45 379.17 189.45"/><line class="cls-1" x1="362.73" y1="206.52" x2="345.67" y2="206.52"/><polyline class="cls-1" points="329.23 206.52 321.23 206.52 320.69 206.52"/><polyline class="cls-1" points="387.71 206.52 379.7 206.52 379.17 206.52"/><line class="cls-1" x1="362.73" y1="223.59" x2="345.67" y2="223.59"/><polyline class="cls-1" points="329.23 223.59 321.23 223.59 320.69 223.59"/><polyline class="cls-1" points="387.71 223.59 379.7 223.59 379.17 223.59"/><line class="cls-1" x1="362.73" y1="240.66" x2="345.67" y2="240.66"/><polyline class="cls-1" points="329.23 240.66 321.23 240.66 320.69 240.66"/><polyline class="cls-1" points="387.71 240.66 379.7 240.66 379.17 240.66"/><polyline class="cls-1" points="336.34 297.32 336.34 265.32 370.48 265.32 370.48 297.32"/><polyline class="cls-1" points="397.45 173.69 397.45 54.77 301.42 81.25 301.42 99.61"/><line class="cls-1" x1="324.81" y1="173.69" x2="324.81" y2="111.36"/><line class="cls-1" x1="351.09" y1="173.69" x2="351.09" y2="120.43"/><line class="cls-1" x1="375.53" y1="173.69" x2="375.53" y2="126.83"/><rect class="cls-1" x="220.9" y="122.45" width="20.25" height="20.25"/><rect class="cls-1" x="261" y="122.45" width="20.25" height="20.25"/><rect class="cls-1" x="220.9" y="176.86" width="20.25" height="20.25"/><rect class="cls-1" x="261" y="176.86" width="20.25" height="20.25"/><polyline class="cls-1" points="227.31 298.5 227.31 243.03 272.74 243.03 272.74 298.5"/><polyline class="cls-1" points="115.85 174.24 115.85 150.87 186.28 150.87 186.28 174.69"/><line class="cls-1" x1="152.07" y1="149.38" x2="152.07" y2="129.16"/><polyline class="cls-1" points="406.17 298.5 498.47 298.5 498.47 33.59 406.17 33.59 406.17 173.69"/><line class="cls-1" x1="418.18" y1="84.15" x2="486.66" y2="84.15"/><line class="cls-1" x1="418.18" y1="112.12" x2="486.66" y2="112.12"/><line class="cls-1" x1="418.18" y1="139.3" x2="486.66" y2="139.3"/><line class="cls-1" x1="418.18" y1="166.48" x2="486.66" y2="166.48"/><path class="cls-2" d="M272.29,53.26a11.83,11.83,0,1,0,0-23.65h-.17a11.82,11.82,0,0,0-11.65-9.83,11.7,11.7,0,0,0-4,.71,14.1,14.1,0,0,0-25.52,8.27c0,.34,0,.67,0,1a11.83,11.83,0,1,0-1.89,23.5Z"/><path class="cls-2" d="M31,96.81a7.18,7.18,0,0,1,0-14.36,7.06,7.06,0,0,1,1.85.25,14.52,14.52,0,0,1-.08-1.48,14.2,14.2,0,0,1,27.92-3.65,10.15,10.15,0,1,1,4.49,19.24Z"/><polyline class="cls-3" points="16.36 29 26.17 17.3 37.85 28.44 49.31 17.3 60.89 28.44 71.07 18.3 82.17 28.75 91.92 17.75"/><circle class="cls-4" cx="179.28" cy="95.51" r="0.63"/><circle class="cls-2" cx="376.34" cy="28" r="0.63"/><circle class="cls-2" cx="82.55" cy="124.23" r="0.63"/><line class="cls-5" x1="129.24" y1="41.81" x2="129.24" y2="49.9"/><line class="cls-5" x1="125.19" y1="45.85" x2="133.28" y2="45.85"/><line class="cls-5" x1="282.74" y1="74.98" x2="282.74" y2="86.28"/><line class="cls-5" x1="277.09" y1="80.63" x2="288.39" y2="80.63"/><line class="cls-1" x1="418.18" y1="193.3" x2="486.66" y2="193.3"/><line class="cls-1" x1="418.18" y1="220.48" x2="486.66" y2="220.48"/><line class="cls-1" x1="449.61" y1="33.59" x2="449.61" y2="8.34"/></g></svg>