<svg xmlns="http://www.w3.org/2000/svg" viewBox="0 0 500 300"><defs><style>.cls-1,.cls-2,.cls-3,.cls-4,.cls-5{fill:none;stroke:#7A1D10;}.cls-1{stroke-miterlimit:10;}.cls-1,.cls-2,.cls-3{stroke-width:4px;}.cls-2,.cls-4{stroke-linecap:round;}.cls-2,.cls-3,.cls-4,.cls-5{stroke-linejoin:round;}.cls-4{stroke-width:5px;}.cls-5{stroke-width:2px;}</style></defs><title>up_projects_icons</title><g id="Capa_1" data-name="Capa 1"><polyline class="cls-1" points="369.15 298.43 369.15 175.1 380.47 175.1 380.47 119.76 486.69 119.76 486.69 174.43 498.45 174.43 498.45 298.43 59.61 298.43"/><polyline class="cls-1" points="390.48 119.76 390.48 102.43 477.55 102.43 477.55 119.76"/><polyline class="cls-1" points="402.45 102.43 402.45 41.76 467.33 41.76 467.33 102.43"/><line class="cls-1" x1="433.8" y1="20.43" x2="433.8" y2="41.76"/><line class="cls-1" x1="400.68" y1="172.84" x2="400.68" y2="298.43"/><line class="cls-1" x1="400.68" y1="161.15" x2="400.68" y2="152.53"/><line class="cls-1" x1="400.68" y1="139.15" x2="400.68" y2="130.53"/><line class="cls-1" x1="420.31" y1="152.53" x2="420.31" y2="298.43"/><line class="cls-1" x1="420.27" y1="139.15" x2="420.27" y2="130.53"/><line class="cls-1" x1="467.33" y1="172.84" x2="467.33" y2="298.43"/><line class="cls-1" x1="467.33" y1="161.15" x2="467.33" y2="152.53"/><line class="cls-1" x1="467.33" y1="139.15" x2="467.33" y2="130.53"/><line class="cls-1" x1="447.7" y1="152.53" x2="447.7" y2="298.43"/><line class="cls-1" x1="447.74" y1="139.15" x2="447.74" y2="130.53"/><polyline class="cls-1" points="167.78 206.43 167.78 148.72 268.69 148.72 268.69 298.43"/><polyline class="cls-1" points="240.02 148.66 240.02 83.06 356 83.06 356 298.43"/><line class="cls-1" x1="433.8" y1="52.43" x2="433.8" y2="93.43"/><line class="cls-1" x1="263.11" y1="102.1" x2="263.11" y2="108.18"/><line class="cls-1" x1="295.11" y1="102.1" x2="295.11" y2="108.18"/><line class="cls-1" x1="328.11" y1="102.1" x2="328.11" y2="108.18"/><line class="cls-1" x1="263.11" y1="127.1" x2="263.11" y2="133.18"/><line class="cls-1" x1="295.11" y1="127.1" x2="295.11" y2="133.18"/><line class="cls-1" x1="328.11" y1="127.1" x2="328.11" y2="133.18"/><line class="cls-1" x1="295.11" y1="152.1" x2="295.11" y2="158.18"/><line class="cls-1" x1="328.11" y1="152.1" x2="328.11" y2="158.18"/><line class="cls-1" x1="295.11" y1="176.1" x2="295.11" y2="182.18"/><line class="cls-1" x1="328.11" y1="176.1" x2="328.11" y2="182.18"/><line class="cls-1" x1="295.11" y1="200.1" x2="295.11" y2="206.18"/><line class="cls-1" x1="328.11" y1="200.1" x2="328.11" y2="206.18"/><line class="cls-1" x1="295.11" y1="224.1" x2="295.11" y2="230.18"/><line class="cls-1" x1="328.11" y1="224.1" x2="328.11" y2="230.18"/><line class="cls-1" x1="182.9" y1="166.29" x2="251.22" y2="166.29"/><line class="cls-1" x1="182.9" y1="196.29" x2="251.22" y2="196.29"/><line class="cls-1" x1="182.9" y1="226.29" x2="251.22" y2="226.29"/><line class="cls-1" x1="182.9" y1="256.29" x2="251.22" y2="256.29"/><rect class="cls-1" x="139.29" y="205.01" width="42.48" height="75.18" rx="21.24" ry="21.24"/><line class="cls-1" x1="160.53" y1="229.7" x2="160.53" y2="298.43"/><polyline class="cls-1" points="149.96 236.59 160.53 244.71 170.09 236.59"/><polyline class="cls-1" points="149.96 249.94 160.53 258.06 170.09 249.94"/><polyline class="cls-1" points="149.96 263.29 160.53 271.4 170.09 263.29"/><rect class="cls-1" x="89.29" y="214.7" width="38.08" height="67.38" rx="19.04" ry="19.04"/><line class="cls-1" x1="108.33" y1="298.43" x2="108.33" y2="236.83"/><polyline class="cls-1" points="98.86 243.01 108.33 250.29 116.9 243.01"/><polyline class="cls-1" points="98.86 254.97 108.33 262.25 116.9 254.97"/><polyline class="cls-1" points="98.86 266.93 108.33 274.21 116.9 266.93"/><path class="cls-2" d="M99.44,298a11,11,0,1,0-21.66-3,11.09,11.09,0,0,0,.36,2.78"/><path class="cls-3" d="M78,292.51c-5.26-9.66-19.68-3.44-17,7"/><path class="cls-2" d="M270.9,57.44a11.83,11.83,0,0,0,0-23.65h-.17A11.83,11.83,0,0,0,259.07,24a11.64,11.64,0,0,0-4,.71,14.11,14.11,0,0,0-25.53,8.27c0,.34,0,.67,0,1a11.67,11.67,0,0,0-1.89-.15,11.83,11.83,0,0,0,0,23.65Z"/><path class="cls-2" d="M29.57,101a7.18,7.18,0,0,1,0-14.36,7.06,7.06,0,0,1,1.85.25,14.52,14.52,0,0,1-.07-1.48,14.19,14.19,0,0,1,27.91-3.65A10.15,10.15,0,1,1,63.76,101Z"/><polyline class="cls-3" points="14.96 33.18 24.78 21.48 36.46 32.62 47.91 21.48 59.49 32.62 69.67 22.48 80.78 32.93 90.53 21.93"/><circle class="cls-4" cx="180.89" cy="99.69" r="0.63"/><circle class="cls-2" cx="323.88" cy="21.48" r="0.63"/><circle class="cls-2" cx="89.16" cy="128.41" r="0.63"/><line class="cls-5" x1="127.84" y1="45.99" x2="127.84" y2="54.08"/><line class="cls-5" x1="123.8" y1="50.03" x2="131.89" y2="50.03"/><line class="cls-5" x1="374.74" y1="66.78" x2="374.74" y2="78.08"/><line class="cls-5" x1="369.08" y1="72.43" x2="380.39" y2="72.43"/></g></svg>