<svg xmlns="http://www.w3.org/2000/svg" viewBox="0 0 500 300"><defs><style>.cls-1,.cls-2,.cls-3,.cls-4,.cls-5,.cls-6{fill:none;stroke:#324ba0;}.cls-1,.cls-6{stroke-miterlimit:10;}.cls-1,.cls-2,.cls-3{stroke-width:4px;}.cls-2,.cls-4{stroke-linecap:round;}.cls-2,.cls-3,.cls-4,.cls-5{stroke-linejoin:round;}.cls-4{stroke-width:5px;}.cls-5,.cls-6{stroke-width:2px;}</style></defs><title>up_projects_icons</title><g id="Capa_1" data-name="Capa 1"><line class="cls-1" x1="113.42" y1="282.54" x2="113.42" y2="221.54"/><line class="cls-1" x1="233.42" y1="298.54" x2="233.42" y2="221.54"/><polygon class="cls-1" points="100.92 221.54 244.92 221.54 170.92 168.01 100.92 221.54"/><polyline class="cls-1" points="118.42 207.82 118.42 182.04 131.42 182.04 131.42 199.11"/><polyline class="cls-1" points="156.92 298.54 156.92 259.04 186.42 259.04 186.42 298.54"/><polyline class="cls-1" points="233.42 214 233.42 88.54 346.42 88.54"/><polyline class="cls-1" points="347.77 298.54 347.77 31.54 498.45 31.54 498.45 299.93"/><polyline class="cls-1" points="285.42 135.54 285.42 117.05 306.92 117.05"/><polyline class="cls-1" points="285.42 183.54 285.42 165.05 306.92 165.05"/><polyline class="cls-1" points="387.42 89.54 387.42 71.05 408.92 71.05"/><polyline class="cls-1" points="387.42 134.54 387.42 116.05 408.92 116.05"/><polyline class="cls-1" points="387.42 183.54 387.42 165.05 408.92 165.05"/><polyline class="cls-1" points="387.42 230.54 387.42 212.05 408.92 212.05"/><line class="cls-1" x1="59.42" y1="298.54" x2="498.45" y2="298.54"/><path class="cls-2" d="M217.16,51.92a12,12,0,1,1,0-24h.17a12,12,0,0,1,15.93-9.27A14.32,14.32,0,0,1,259.18,27c0,.35,0,.68,0,1a12,12,0,1,1,1.92,23.87Z"/><path class="cls-2" d="M60.05,85.46a7.76,7.76,0,1,0-2-15.24,14.17,14.17,0,0,0,.08-1.6A15.33,15.33,0,0,0,28,64.69a10.79,10.79,0,0,0-4.85-1.14,11,11,0,0,0,0,21.91Z"/><polyline class="cls-3" points="55.11 31.54 62.46 22.79 71.19 31.12 79.77 22.79 88.43 31.12 96.04 23.54 104.35 31.36 111.64 23.13"/><circle class="cls-4" cx="35.11" cy="126.17" r="0.63"/><circle class="cls-2" cx="410.14" cy="18.69" r="0.63"/><circle class="cls-2" cx="326.39" cy="51.54" r="0.63"/><line class="cls-5" x1="182.57" y1="17.34" x2="182.57" y2="28.64"/><line class="cls-5" x1="176.92" y1="22.99" x2="188.22" y2="22.99"/><line class="cls-3" x1="132.1" y1="88.17" x2="138.97" y2="88.17"/><line class="cls-3" x1="294" y1="68.95" x2="294" y2="49.17"/><polyline class="cls-1" points="405.03 297.67 405.03 251.89 450.42 251.89 450.42 297.67"/><polyline class="cls-1" points="447.42 89.54 447.42 71.05 468.92 71.05"/><polyline class="cls-1" points="447.42 134.54 447.42 116.05 468.92 116.05"/><polyline class="cls-1" points="447.42 183.54 447.42 165.05 468.92 165.05"/><polyline class="cls-1" points="447.42 230.54 447.42 212.05 468.92 212.05"/><polyline class="cls-1" points="285.42 233.54 285.42 215.05 306.92 215.05"/><circle class="cls-6" cx="197.2" cy="141.89" r="4.39"/><path class="cls-2" d="M86.61,298.47a16.06,16.06,0,1,1,31.51-4.38,16,16,0,0,1-.52,4.06"/><path class="cls-2" d="M119,297.67a12.48,12.48,0,0,1,25,0"/><path class="cls-2" d="M61,297.67a12.48,12.48,0,0,1,24.95,0"/><polyline class="cls-1" points="254.9 87.95 254.9 69.06 332.06 69.06 332.06 87.95"/></g></svg>