<?xml version="1.0" encoding="iso-8859-1"?>
<!-- Generator: Adobe Illustrator 19.0.0, SVG Export Plug-In . SVG Version: 6.00 Build 0)  -->
<svg version="1.1" id="Layer_1" xmlns="http://www.w3.org/2000/svg" xmlns:xlink="http://www.w3.org/1999/xlink" x="0px" y="0px"
	 viewBox="0 0 480 480" style="enable-background:new 0 0 480 480;" xml:space="preserve">
<path style="fill:#D84452;" d="M412,24c0-8.84-7.16-16-16-16H188c-8.84,0-16,7.16-16,16v344c0,8.84,7.16,16,16,16h208
	c8.84,0,16-7.16,16-16V24z"/>
<rect x="308" y="8" style="fill:#F5BA46;" width="48" height="376"/>
<path d="M396,0h-40h-48H188c-13.232,0-24,10.768-24,24v344c0,13.232,10.768,24,24,24h120h48h40c13.232,0,24-10.768,24-24V24
	C420,10.768,409.232,0,396,0z M180,368V24c0-4.416,3.584-8,8-8h112v360H188C183.584,376,180,372.416,180,368z M316,376V16h32v360
	H316z M404,368c0,4.416-3.584,8-8,8h-32V16h32c4.416,0,8,3.584,8,8V368z"/>
<path d="M252,120c-4.424,0-8-3.576-8-8V48c0-4.424,3.576-8,8-8s8,3.576,8,8v64C260,116.424,256.424,120,252,120z"/>
<path d="M252,184c-4.424,0-8-3.576-8-8v-24c0-4.424,3.576-8,8-8s8,3.576,8,8v24C260,180.424,256.424,184,252,184z"/>
<path d="M60,35.2c-4.424,0-8-3.576-8-8V8c0-4.424,3.576-8,8-8s8,3.576,8,8v19.2C68,31.624,64.424,35.2,60,35.2z"/>
<path d="M60,112c-4.424,0-8-3.576-8-8V84.8c0-4.424,3.576-8,8-8s8,3.576,8,8V104C68,108.424,64.424,112,60,112z"/>
<path d="M108,64H88.8c-4.424,0-8-3.576-8-8s3.576-8,8-8H108c4.424,0,8,3.576,8,8S112.424,64,108,64z"/>
<path d="M31.2,64H12c-4.424,0-8-3.576-8-8s3.576-8,8-8h19.2c4.424,0,8,3.576,8,8S35.624,64,31.2,64z"/>
<path d="M93.936,97.936c-2.048,0-4.096-0.784-5.656-2.344L74.712,82.024c-3.128-3.128-3.128-8.184,0-11.312s8.184-3.128,11.312,0
	L99.592,84.28c3.128,3.128,3.128,8.184,0,11.312C98.032,97.16,95.984,97.936,93.936,97.936z"/>
<path d="M39.632,43.632c-2.048,0-4.096-0.784-5.656-2.344L20.408,27.72c-3.128-3.128-3.128-8.184,0-11.312s8.184-3.128,11.312,0
	l13.568,13.568c3.128,3.128,3.128,8.184,0,11.312C43.728,42.848,41.68,43.632,39.632,43.632z"/>
<path d="M26.064,97.936c-2.048,0-4.096-0.784-5.656-2.344c-3.128-3.128-3.128-8.184,0-11.312l13.568-13.568
	c3.128-3.128,8.184-3.128,11.312,0s3.128,8.184,0,11.312L31.72,95.592C30.16,97.16,28.112,97.936,26.064,97.936z"/>
<path d="M80.368,43.632c-2.048,0-4.096-0.784-5.656-2.344c-3.128-3.128-3.128-8.184,0-11.312L88.28,16.408
	c3.128-3.128,8.184-3.128,11.312,0s3.128,8.184,0,11.312L86.024,41.288C84.464,42.848,82.416,43.632,80.368,43.632z"/>
<circle cx="252" cy="224" r="8"/>
<g>
	<path style="fill:#F1998A;" d="M356,384v32h-0.376c-2.544,16-17.552,31.2-35.872,31.2s-33.336-15.2-35.88-31.2H284v-32H356z"/>
	<path style="fill:#F1998A;" d="M283.872,384L284,400h-0.376c-2.544,16-17.552,31.2-35.872,31.2S214.416,416,211.88,400H212
		l7.872-16H283.872z"/>
	<path style="fill:#F1998A;" d="M99.48,144h70.904L172,320l122.728-70.144l0.264,0.408c16.528-6.608,35.8-0.424,44.96,15.448
		c9.16,15.864,4.904,35.648-9.08,46.656l0.264,0.448L215.104,390.24L196,472H12l25.408-271.552C40.696,168.64,67.504,144,99.48,144z
		"/>
</g>
<path d="M356,376h-72c-0.024,0-0.04,0.016-0.064,0.016s-0.04-0.016-0.064-0.016H250.84l84.728-56.528
	c1.008-0.672,1.792-1.56,2.344-2.584c15.496-13.832,19.424-37.064,8.968-55.176c-10.44-18.072-32.464-26.264-52.176-19.84
	c-1.344,0-2.696,0.344-3.936,1.056L179.88,306.304l-1.496-162.36c-0.04-4.392-3.608-7.928-8-7.928H99.48
	c-36.168,0-66.272,27.352-70.04,63.704L4.032,471.256c-0.2,2.24,0.536,4.464,2.056,6.136C7.6,479.056,9.752,480,12,480h184
	c3.72,0,6.944-2.56,7.792-6.176l11.584-49.624c7.832,8.736,19.008,15,32.376,15c12.456,0,23.008-5.456,30.744-13.256
	c6.088,15.496,21.32,29.256,41.256,29.256c22.536,0,39.216-17.56,43.28-35.376c0.616-1.136,0.968-2.44,0.968-3.824v-32
	C364,379.576,360.424,376,356,376z M189.656,464H20.784l24.584-262.736C48.264,173.176,71.528,152,99.48,152h62.976L164,320.072
	c0.024,2.84,1.552,5.456,4.016,6.864s5.496,1.424,7.952,0.008l120.4-68.808c0.536-0.096,1.072-0.24,1.592-0.456
	c13.016-5.2,28.096-0.048,35.064,12.016c6.96,12.064,3.904,27.704-7.104,36.368c-0.576,0.464-1.072,0.992-1.48,1.584
	c0,0-110.4,70.08-111.752,72.816L189.656,464z M247.752,423.2c-13.528,0-23.976-10.488-27.184-21.232l6.288-9.968h49.08l0.048,5.64
	c-0.12,0.352-0.2,0.728-0.256,1.104C273.848,410.504,262.624,423.2,247.752,423.2z M348,413.576
	c-0.12,0.376-0.208,0.768-0.272,1.168c-1.872,11.768-13.104,24.464-27.976,24.464c-14.376,0-25.336-11.84-27.752-23.248V392h56
	L348,413.576L348,413.576z"/>
<path d="M444,480c-17.648,0-32-14.352-32-32s14.352-32,32-32s32,14.352,32,32S461.648,480,444,480z M444,432
	c-8.824,0-16,7.176-16,16s7.176,16,16,16s16-7.176,16-16S452.824,432,444,432z"/>
<g>
</g>
<g>
</g>
<g>
</g>
<g>
</g>
<g>
</g>
<g>
</g>
<g>
</g>
<g>
</g>
<g>
</g>
<g>
</g>
<g>
</g>
<g>
</g>
<g>
</g>
<g>
</g>
<g>
</g>
</svg>
