<svg height="427pt" viewBox="-7 0 427 427.80001" width="427pt" xmlns="http://www.w3.org/2000/svg"><path d="m86.398438 246.238281 120 73.332031 120-73.332031 80-48.886719v180c.003906 24.542969-19.894532 44.445313-44.4375 44.449219h-311.121094c-24.546875-.003906-44.441406-19.90625-44.441406-44.449219v-180zm0 0" fill="#f8ec7d"/><path d="m406.398438 182.789062v14.5625l-80 48.886719v-34.339843h10c5.523437 0 10-4.476563 10-10v-46c0-5.519532-4.476563-10-10-10h-10v-22.859376l5.082031 2.359376 65.347656 40.332031c5.945313 3.632812 9.570313 10.09375 9.570313 17.058593zm0 0" fill="#e48e66"/><path d="m346.398438 155.898438v46c0 5.523437-4.476563 10-10 10h-260c-5.519532 0-10-4.476563-10-10v-46c0-5.519532 4.480468-10 10-10h260c5.523437 0 10 4.480468 10 10zm-30.859376 23c0-1.742188-1.417968-3.152344-3.160156-3.148438-1.742187.003906-3.152344 1.417969-3.148437 3.160156.003906 1.742188 1.417969 3.152344 3.160156 3.148438s3.152344-1.417969 3.148437-3.160156zm-35.320312 0c0-1.742188-1.414062-3.160157-3.160156-3.160157-1.742188 0-3.160156 1.417969-3.160156 3.160157 0 1.746093 1.417968 3.160156 3.160156 3.160156 1.746094-.003906 3.15625-1.414063 3.160156-3.160156zm-35.328125 0c0-1.742188-1.414063-3.160157-3.160156-3.160157-1.746094 0-3.160157 1.417969-3.160157 3.160157 0 1.746093 1.414063 3.160156 3.160157 3.160156 1.742187-.003906 3.15625-1.414063 3.160156-3.160156zm-35.332031 0c0-1.742188-1.414063-3.160157-3.160156-3.160157-1.742188 0-3.160157 1.417969-3.160157 3.160157 0 1.746093 1.417969 3.160156 3.160157 3.160156 1.746093-.003906 3.15625-1.414063 3.160156-3.160156zm-35.328125 0c0-1.742188-1.414063-3.160157-3.160157-3.160157-1.746093 0-3.160156 1.417969-3.160156 3.160157 0 1.746093 1.414063 3.160156 3.160156 3.160156 1.746094 0 3.160157-1.414063 3.160157-3.160156zm-35.332031 0c0-1.742188-1.414063-3.160157-3.160157-3.160157-1.742187 0-3.160156 1.417969-3.160156 3.160157 0 1.746093 1.417969 3.160156 3.160156 3.160156 1.746094 0 3.160157-1.414063 3.160157-3.160156zm-35.328126 0c-.003906-1.738282-1.414062-3.148438-3.15625-3.148438-1.742187 0-3.152343 1.414062-3.152343 3.152344-.003907 1.742187 1.40625 3.15625 3.148437 3.15625 1.746094 0 3.160156-1.414063 3.160156-3.160156zm0 0" fill="#f8ec7d"/><path d="m326.398438 211.898438v34.339843l-120 73.332031-120-73.332031v-34.339843zm0 0" fill="#6fe3ff"/><path d="m326.398438 123.039062v22.859376h-240v-108.179688c0-17.515625 14.195312-31.714844 31.710937-31.71875h120.96875l1.613281.160156v53.839844c-.007812 17.515625 14.191406 31.71875 31.707032 31.71875h45.191406l8.808594 9.820312zm0 0" fill="#6fe3ff"/><path d="m240.859375 6.179688 76.730469 85.539062h-45.191406c-17.515626 0-31.714844-14.203125-31.707032-31.71875v-53.839844zm0 0" fill="#bcf1f7"/><path d="m86.398438 211.898438v34.339843l-80-48.886719v-14.5625c.003906-6.964843 3.628906-13.425781 9.570312-17.058593l70.429688-42.691407v22.859376h-10c-5.519532 0-10 4.480468-10 10v46c0 5.523437 4.480468 10 10 10zm0 0" fill="#e48e66"/><g fill="#63316d"><path d="m330.867188 97.53125-85.542969-95.359375c-.027344-.03125-.066407-.058594-.097657-.089844-1.136718-1.320312-2.792968-2.082031-4.535156-2.082031-.257812 0-.511718.0195312-.765625.0546875l-.25-.0273437c-.199219-.0195313-.398437-.0273438-.597656-.0273438h-120.96875c-20.820313.0273438-37.6875 16.902344-37.710937 37.71875v81.941406l-67.558594 40.949219c-7.703125 4.746094-12.410156 13.132813-12.441406 22.179687v194.5625c.027343 27.847657 22.59375 50.414063 50.441406 50.449219h311.121094c27.847656-.035156 50.410156-22.601562 50.4375-50.449219v-194.5625c-.027344-9.039062-4.722657-17.417968-12.417969-22.164062l-65.347657-40.328125c-.203124-.125-.410156-.238281-.625-.335937l-1.609374-.75v-17.671876c0-1.476562-.542969-2.90625-1.53125-4.007812zm-124.46875 215.007812-114-69.667968v-24.972656h228v24.972656zm-130-106.640624c-2.207032 0-4-1.789063-4-4v-46c0-2.207032 1.792968-4 4-4h260c2.210937 0 4 1.792968 4 4v46c0 2.210937-1.789063 4-4 4zm170.292968-184.234376 57.457032 64.054688h-31.75c-14.195313-.015625-25.695313-11.523438-25.707032-25.71875zm-128.582031-9.664062h116.582031v48c.019532 20.820312 16.890625 37.691406 37.707032 37.71875h42.515624l5.484376 6.117188v36.0625h-228v-102.179688c.015624-14.195312 11.515624-25.699219 25.710937-25.71875zm-99.03125 158.859375 61.320313-37.167969v6.207032h-4c-8.832032.011718-15.988282 7.167968-16 16v46c.011718 8.832031 7.167968 15.992187 16 16h4v17.640624l-68-41.554687v-11.199219c.019531-4.863281 2.542968-9.371094 6.679687-11.925781zm342.882813 244.941406h-311.121094c-21.222656-.027343-38.417969-17.226562-38.441406-38.449219v-169.300781l69.773437 42.636719c.664063.660156 1.476563 1.15625 2.363281 1.445312l118.738282 72.558594c1.917968 1.171875 4.335937 1.171875 6.253906 0l118.734375-72.558594c.890625-.292968 1.699219-.785156 2.367187-1.445312l69.769532-42.636719v169.296875c-.019532 21.222656-17.214844 38.425782-38.4375 38.453125zm31.738281-244.949219c4.148437 2.550782 6.683593 7.066407 6.699219 11.9375v11.199219l-68 41.550781v-17.640624h4c8.832031-.007813 15.992187-7.167969 16-16v-46c-.007813-8.832032-7.167969-15.988282-16-16h-4v-6.878907zm0 0"/><path d="m135.738281 169.738281c-5.058593 0-9.160156 4.101563-9.160156 9.160157 0 5.058593 4.101563 9.160156 9.160156 9.160156 5.0625 0 9.160157-4.101563 9.160157-9.160156-.003907-5.054688-4.101563-9.152344-9.160157-9.160157zm0 12c-1.566406 0-2.839843-1.269531-2.839843-2.839843 0-1.566407 1.273437-2.839844 2.839843-2.839844 1.570313 0 2.839844 1.273437 2.839844 2.839844 0 1.570312-1.269531 2.839843-2.839844 2.839843zm0 0"/><path d="m171.070312 169.738281c-5.058593 0-9.160156 4.101563-9.160156 9.160157 0 5.058593 4.101563 9.160156 9.160156 9.160156 5.058594 0 9.160157-4.101563 9.160157-9.160156-.007813-5.054688-4.105469-9.152344-9.160157-9.160157zm0 12c-1.570312 0-2.839843-1.269531-2.839843-2.839843 0-1.566407 1.269531-2.839844 2.839843-2.839844 1.566407 0 2.839844 1.273437 2.839844 2.839844-.003906 1.570312-1.273437 2.839843-2.839844 2.839843zm0 0"/><path d="m206.398438 169.738281c-5.058594 0-9.160157 4.101563-9.160157 9.160157 0 5.058593 4.101563 9.160156 9.160157 9.160156 5.058593 0 9.160156-4.101563 9.160156-9.160156-.003906-5.054688-4.101563-9.152344-9.160156-9.160157zm0 12c-1.566407 0-2.839844-1.269531-2.839844-2.839843 0-1.566407 1.273437-2.839844 2.839844-2.839844 1.570312 0 2.839843 1.273437 2.839843 2.839844 0 1.570312-1.269531 2.839843-2.839843 2.839843zm0 0"/><path d="m241.730469 169.738281c-5.058594 0-9.160157 4.101563-9.160157 9.160157 0 5.058593 4.101563 9.160156 9.160157 9.160156 5.058593 0 9.160156-4.101563 9.160156-9.160156-.007813-5.054688-4.105469-9.152344-9.160156-9.160157zm0 12c-1.570313 0-2.839844-1.269531-2.839844-2.839843 0-1.566407 1.269531-2.839844 2.839844-2.839844 1.566406 0 2.839843 1.273437 2.839843 2.839844-.003906 1.570312-1.273437 2.839843-2.839843 2.839843zm0 0"/><path d="m277.058594 169.738281c-5.058594 0-9.160156 4.101563-9.160156 9.160157 0 5.058593 4.101562 9.160156 9.160156 9.160156s9.160156-4.101563 9.160156-9.160156c-.003906-5.054688-4.101562-9.152344-9.160156-9.160157zm0 12c-1.566406 0-2.839844-1.269531-2.839844-2.839843 0-1.566407 1.273438-2.839844 2.839844-2.839844 1.570312 0 2.839844 1.273437 2.839844 2.839844 0 1.570312-1.269532 2.839843-2.839844 2.839843zm0 0"/><path d="m100.410156 169.738281c-5.058594 0-9.160156 4.101563-9.160156 9.160157 0 5.058593 4.101562 9.160156 9.160156 9.160156s9.160156-4.101563 9.160156-9.160156c-.003906-5.054688-4.101562-9.15625-9.160156-9.160157zm0 12c-1.566406-.003906-2.832031-1.277343-2.832031-2.84375.003906-1.566406 1.277344-2.835937 2.84375-2.835937 1.570313.003906 2.839844 1.273437 2.839844 2.839844-.003907 1.574218-1.28125 2.84375-2.851563 2.839843zm0 0"/><path d="m312.390625 169.738281c-5.0625-.003906-9.167969 4.09375-9.171875 9.15625-.003906 5.058594 4.097656 9.164063 9.15625 9.164063 5.0625.003906 9.164062-4.097656 9.164062-9.160156-.003906-5.050782-4.097656-9.148438-9.148437-9.160157zm0 12c-1.570313 0-2.839844-1.269531-2.839844-2.839843 0-1.566407 1.269531-2.839844 2.839844-2.839844 1.566406 0 2.839844 1.273437 2.839844 2.839844-.003907 1.566406-1.273438 2.835937-2.839844 2.839843zm0 0"/></g></svg>