<?xml version="1.0" encoding="utf-8"?>
<!-- Generator: Adobe Illustrator 16.0.0, SVG Export Plug-In . SVG Version: 6.00 Build 0)  -->
<!DOCTYPE svg PUBLIC "-//W3C//DTD SVG 1.1//EN" "http://www.w3.org/Graphics/SVG/1.1/DTD/svg11.dtd">
<svg version="1.1" id="Layer_1" xmlns="http://www.w3.org/2000/svg" xmlns:xlink="http://www.w3.org/1999/xlink" x="0px" y="0px"
	 width="40px" height="40px" viewBox="0 0 40 40" enable-background="new 0 0 40 40" xml:space="preserve">
<g>
	<path fill-rule="evenodd" clip-rule="evenodd" fill="none" d="M20,38.966c-5.894,0-11.787-0.003-17.68,0.006
		c-0.232,0-0.292-0.036-0.292-0.283c0.008-11.787,0.008-23.573,0-35.359c0-0.268,0.072-0.3,0.311-0.3
		c11.774,0.008,23.55,0.008,35.324,0c0.243,0,0.31,0.039,0.31,0.302c-0.009,11.774-0.009,23.549,0,35.323
		c0,0.275-0.076,0.317-0.329,0.317C31.763,38.963,25.881,38.966,20,38.966z M27.975,36.804c-0.355-0.41-0.663-0.732-0.93-1.085
		c-0.204-0.271-0.439-0.349-0.772-0.349c-5.801,0.01-11.6,0.005-17.399,0.015c-0.321,0.002-0.381-0.1-0.381-0.396
		C8.5,25.167,8.5,15.344,8.493,5.522c0-0.269,0.075-0.331,0.333-0.33c4.314,0.008,8.629,0.01,12.945-0.002
		c0.337-0.001,0.397,0.113,0.397,0.417c-0.011,2.83,0,5.66-0.014,8.49c-0.002,0.342,0.065,0.451,0.435,0.449
		c2.829-0.019,5.659-0.003,8.488-0.021c0.374-0.003,0.433,0.118,0.432,0.453c-0.013,2.362-0.011,4.724-0.004,7.086
		c0.001,0.357-0.16,0.828,0.077,1.039c0.23,0.206,0.693,0.035,1.052,0.063c0.232,0.017,0.299-0.067,0.298-0.298
		c-0.005-3.027-0.002-6.056,0.003-9.085c0-0.199-0.057-0.348-0.202-0.492c-3.119-3.101-6.234-6.202-9.345-9.31
		c-0.172-0.172-0.342-0.237-0.583-0.237C17.719,3.751,12.632,3.749,7.545,3.75c-0.51,0.001-0.473-0.079-0.473,0.463
		c0,10.711,0,21.422,0.001,32.134c0,0.513-0.06,0.455,0.441,0.455c6.162,0.001,12.325,0.002,18.487,0.002
		C26.629,36.804,27.256,36.804,27.975,36.804z M24.496,26.368c0.198-0.013,0.397-0.014,0.595-0.04
		c0.415-0.056,0.794-0.19,1.06-0.544c0.659-0.878,0.206-1.99-0.941-2.24c-0.954-0.208-1.908-0.151-2.832,0.172
		c-0.343,0.12-0.583,0.055-0.842-0.196c-0.675-0.654-1.246-1.388-1.799-2.145c-0.352-0.482-0.436-0.916-0.189-1.479
		c0.354-0.805,0.447-1.665,0.306-2.54c-0.142-0.88-0.766-1.441-1.53-1.387c-0.853,0.063-1.442,0.687-1.483,1.574
		c-0.013,0.28,0.002,0.559,0.052,0.837c0.139,0.767,0.436,1.476,0.775,2.17c0.081,0.165,0.089,0.314,0.051,0.5
		c-0.346,1.699-1.117,3.209-2.023,4.664c-0.101,0.161-0.231,0.253-0.396,0.322c-0.462,0.194-0.934,0.372-1.381,0.597
		c-0.619,0.312-1.202,0.688-1.583,1.291c-0.447,0.706-0.249,1.453,0.493,1.833c0.677,0.348,1.304,0.148,1.868-0.269
		c0.754-0.559,1.331-1.274,1.714-2.137c0.1-0.223,0.252-0.358,0.471-0.48c1.388-0.771,2.899-1.15,4.439-1.454
		c0.231-0.045,0.413-0.02,0.618,0.113C22.714,26.033,23.543,26.395,24.496,26.368z M37.874,31.08
		c-0.048-0.008-0.092-0.021-0.134-0.021c-0.981-0.003-1.964-0.018-2.945,0.005c-0.33,0.008-0.431-0.069-0.428-0.417
		c0.02-1.905,0.004-3.81,0.016-5.715c0.002-0.276-0.073-0.354-0.35-0.351c-1.438,0.015-2.876,0.016-4.313-0.001
		c-0.307-0.004-0.392,0.068-0.39,0.383c0.016,1.917,0.003,3.833,0.015,5.75c0.002,0.276-0.075,0.354-0.35,0.349
		c-0.957-0.018-1.916-0.009-2.875-0.006c-0.096,0-0.208-0.046-0.296,0.055c0.019,0.031,0.03,0.064,0.052,0.089
		c1.984,2.285,3.971,4.569,5.949,6.86c0.205,0.237,0.277,0.06,0.386-0.069c1.821-2.193,3.643-4.386,5.462-6.582
		C37.749,31.316,37.866,31.242,37.874,31.08z"/>
	<path fill-rule="evenodd" clip-rule="evenodd" d="M27.975,36.804c-0.719,0-1.346,0-1.974,0c-6.163,0-12.325-0.001-18.487-0.002
		c-0.501,0-0.441,0.058-0.441-0.455C7.072,25.635,7.071,14.924,7.072,4.213c0-0.542-0.037-0.462,0.473-0.463
		c5.087-0.001,10.174,0.001,15.261-0.006c0.241,0,0.411,0.065,0.583,0.237c3.11,3.107,6.226,6.209,9.345,9.31
		c0.146,0.145,0.202,0.293,0.202,0.492c-0.005,3.029-0.008,6.058-0.003,9.085c0.001,0.23-0.065,0.314-0.298,0.298
		c-0.358-0.027-0.821,0.144-1.052-0.063c-0.237-0.211-0.076-0.682-0.077-1.039c-0.007-2.362-0.009-4.724,0.004-7.086
		c0.001-0.335-0.058-0.456-0.432-0.453c-2.829,0.019-5.659,0.003-8.488,0.021c-0.369,0.002-0.437-0.107-0.435-0.449
		c0.014-2.83,0.003-5.66,0.014-8.49c0-0.304-0.061-0.418-0.397-0.417c-4.315,0.012-8.63,0.01-12.945,0.002
		c-0.258-0.001-0.334,0.062-0.333,0.33C8.5,15.344,8.5,25.167,8.492,34.989c0,0.296,0.06,0.397,0.381,0.396
		c5.8-0.01,11.599-0.005,17.399-0.015c0.333,0,0.568,0.077,0.772,0.349C27.312,36.071,27.619,36.394,27.975,36.804z M23.6,6.317
		c-0.004,0.034-0.011,0.079-0.011,0.124c0,2.115,0.005,4.23-0.006,6.346c0,0.262,0.095,0.304,0.325,0.304
		c2.08-0.007,4.161-0.003,6.241-0.005c0.073,0,0.165,0.038,0.227-0.072C28.12,10.785,25.863,8.555,23.6,6.317z"/>
	<path fill-rule="evenodd" clip-rule="evenodd" d="M24.496,26.368c-0.953,0.026-1.782-0.335-2.558-0.837
		c-0.205-0.133-0.387-0.158-0.618-0.113c-1.54,0.304-3.052,0.683-4.439,1.454c-0.219,0.122-0.371,0.258-0.471,0.48
		c-0.383,0.862-0.959,1.578-1.714,2.137c-0.563,0.417-1.19,0.616-1.868,0.269c-0.742-0.38-0.94-1.127-0.493-1.833
		c0.382-0.604,0.964-0.979,1.583-1.291c0.447-0.225,0.919-0.402,1.381-0.597c0.164-0.069,0.295-0.161,0.396-0.322
		c0.906-1.455,1.678-2.965,2.023-4.664c0.038-0.186,0.03-0.335-0.051-0.5c-0.339-0.694-0.636-1.403-0.775-2.17
		c-0.05-0.278-0.065-0.557-0.052-0.837c0.041-0.888,0.63-1.512,1.483-1.574c0.764-0.055,1.388,0.507,1.53,1.387
		c0.141,0.875,0.047,1.735-0.306,2.54c-0.247,0.563-0.163,0.996,0.189,1.479c0.553,0.757,1.124,1.49,1.799,2.145
		c0.259,0.251,0.499,0.316,0.842,0.196c0.924-0.323,1.878-0.38,2.832-0.172c1.147,0.25,1.601,1.362,0.941,2.24
		c-0.266,0.354-0.645,0.488-1.06,0.544C24.894,26.354,24.694,26.355,24.496,26.368z M18.751,22.407
		c-0.137,0.957-0.534,1.702-0.949,2.445c0.783-0.337,1.619-0.388,2.447-0.641C19.707,23.653,19.24,23.095,18.751,22.407z
		 M18.352,17.388c-0.108,0.3-0.096,0.519,0.017,0.73C18.443,17.894,18.471,17.672,18.352,17.388z"/>
	<path fill-rule="evenodd" clip-rule="evenodd" d="M37.874,31.08c-0.008,0.162-0.125,0.236-0.201,0.329
		c-1.819,2.196-3.641,4.389-5.462,6.582c-0.108,0.129-0.181,0.307-0.386,0.069c-1.979-2.291-3.965-4.575-5.949-6.86
		c-0.021-0.024-0.033-0.058-0.052-0.089c0.088-0.101,0.2-0.055,0.296-0.055c0.959-0.003,1.918-0.012,2.875,0.006
		c0.274,0.005,0.352-0.072,0.35-0.349c-0.012-1.917,0.001-3.833-0.015-5.75c-0.002-0.314,0.083-0.387,0.39-0.383
		c1.438,0.017,2.875,0.016,4.313,0.001c0.276-0.003,0.352,0.074,0.35,0.351c-0.012,1.905,0.004,3.81-0.016,5.715
		c-0.003,0.348,0.098,0.425,0.428,0.417c0.981-0.022,1.964-0.008,2.945-0.005C37.782,31.06,37.826,31.072,37.874,31.08z
		 M35.087,32.503c-0.615,0-1.136,0.006-1.658-0.002c-0.556-0.008-0.498,0.095-0.5-0.506c-0.004-1.871-0.006-3.741,0.007-5.612
		c0.002-0.277-0.076-0.365-0.353-0.353c-0.479,0.021-0.959,0.022-1.438,0c-0.295-0.015-0.371,0.086-0.368,0.374
		c0.013,1.765,0.005,3.531,0.007,5.297c0.001,0.802,0.005,0.802-0.805,0.801c-0.422-0.001-0.845,0-1.352,0
		c1.128,1.202,2.185,2.324,3.235,3.454c0.123,0.131,0.187,0.073,0.273-0.028C33.097,34.811,34.059,33.696,35.087,32.503z"/>
	<path fill-rule="evenodd" clip-rule="evenodd" fill="none" d="M23.6,6.317c2.264,2.237,4.521,4.468,6.776,6.696
		c-0.062,0.11-0.153,0.072-0.227,0.072c-2.08,0.002-4.161-0.002-6.241,0.005c-0.23,0-0.325-0.042-0.325-0.304
		c0.011-2.115,0.006-4.23,0.006-6.346C23.589,6.396,23.596,6.352,23.6,6.317z"/>
	<path fill-rule="evenodd" clip-rule="evenodd" fill="none" d="M18.751,22.407c0.488,0.688,0.955,1.246,1.499,1.805
		c-0.829,0.253-1.664,0.304-2.447,0.641C18.217,24.109,18.614,23.364,18.751,22.407z"/>
	<path fill-rule="evenodd" clip-rule="evenodd" fill="none" d="M18.352,17.388c0.119,0.284,0.092,0.506,0.017,0.73
		C18.255,17.906,18.243,17.688,18.352,17.388z"/>
	<path fill-rule="evenodd" clip-rule="evenodd" fill="none" d="M35.087,32.503c-1.028,1.193-1.99,2.308-2.95,3.425
		c-0.087,0.102-0.15,0.159-0.273,0.028c-1.051-1.13-2.107-2.252-3.235-3.454c0.507,0,0.93-0.001,1.352,0
		c0.81,0.001,0.806,0.001,0.805-0.801c-0.002-1.766,0.006-3.532-0.007-5.297c-0.003-0.288,0.073-0.389,0.368-0.374
		c0.479,0.022,0.959,0.021,1.438,0c0.276-0.013,0.354,0.075,0.353,0.353c-0.013,1.871-0.011,3.741-0.007,5.612
		c0.002,0.601-0.056,0.498,0.5,0.506C33.951,32.509,34.472,32.503,35.087,32.503z"/>
</g>
</svg>
