<svg xmlns="http://www.w3.org/2000/svg" viewBox="0 0 500 500"><defs><style>.cls-1{fill:#0f77d8;}.cls-2{fill:#e09122;}.cls-3{fill:#d1370d;}.cls-4{fill:none;}.cls-5{fill:#fa8900;stroke:#fff;stroke-miterlimit:10;stroke-width:2px;}.cls-6{fill:#10cdf9;}.cls-7{fill:#fff;}.cls-8{fill:#4d1e00;}.cls-9{fill:#f78803;}.cls-10{fill:#d87305;}.cls-11{fill:#541d02;}.cls-12{fill:#3a1202;}.cls-13{fill:#702804;}.cls-14{fill:#db2f1d;}.cls-15{fill:#ba2415;}.cls-16{fill:#fc3e1f;}.cls-17{fill:#e08605;}.cls-18{fill:#b56904;}.cls-19{fill:#f49806;}</style></defs><title>up_projects_co</title><g id="Layer_1" data-name="Layer 1"><path class="cls-1" d="M312.08,243.83a.65.65,0,0,1-.65-.63l-1.52-50.77-6.76-2.18-1.78,51.22a.65.65,0,0,1-.65.63h0a.66.66,0,0,1-.63-.67l1.81-52.08a.63.63,0,0,1,.28-.51.64.64,0,0,1,.57-.09l8,2.59a.64.64,0,0,1,.45.59l1.53,51.23a.65.65,0,0,1-.63.67Z"/><path class="cls-1" d="M315.79,206.25h-.11l-4.8-.87a.65.65,0,0,1,.23-1.28l4.05.73.14-6.72-4.67-.58a.64.64,0,0,1-.57-.72.66.66,0,0,1,.73-.57l5.25.66a.64.64,0,0,1,.57.65l-.17,8.07a.64.64,0,0,1-.65.64Z"/><path class="cls-1" d="M302,202.89a.63.63,0,0,1-.19,0L285,197.62a2.42,2.42,0,0,1-1.73-2.85,2.56,2.56,0,0,1,1-1.85,2.85,2.85,0,0,1,2.14-.42L302,194.81a.64.64,0,0,1,.54.74.65.65,0,0,1-.74.54l-15.59-2.32a1.74,1.74,0,0,0-1.16.21,1.42,1.42,0,0,0-.51,1c-.05.23-.17,1,.9,1.38l16.77,5.22a.64.64,0,0,1,.43.81A.65.65,0,0,1,302,202.89Z"/><path class="cls-1" d="M300.76,239.49a.64.64,0,0,1-.54-.29.65.65,0,0,1,.18-.9l9.84-6.47-9-7.11a.67.67,0,0,1-.23-.62.65.65,0,0,1,.42-.51l8.17-2.81-8-5.14a.65.65,0,0,1,.13-1.15l7.47-2.71-7.29-4.93a.65.65,0,0,1-.28-.56.64.64,0,0,1,.33-.54l7.34-4.12-6.72-4.2a.64.64,0,0,1-.3-.55.66.66,0,0,1,.29-.55l7.59-4.92a.65.65,0,0,1,.71,1.09l-6.73,4.37,6.78,4.25a.64.64,0,0,1,.31.56.66.66,0,0,1-.34.55l-7.38,4.14,7.48,5a.66.66,0,0,1,.28.62.63.63,0,0,1-.42.53l-7.44,2.7,8,5.15a.64.64,0,0,1,.3.62.65.65,0,0,1-.44.54L303,224.43l8.76,6.94a.64.64,0,0,1,.25.54.66.66,0,0,1-.29.51l-10.59,7A.68.68,0,0,1,300.76,239.49Z"/><path class="cls-1" d="M287.66,203.13a.65.65,0,0,1-.65-.65V198a.65.65,0,0,1,1.3,0v4.49A.65.65,0,0,1,287.66,203.13Z"/><path class="cls-1" d="M292.89,212.79l-.15,0-10.21-2.36a.66.66,0,0,1-.51-.65l.15-8.19a.62.62,0,0,1,.25-.5A.68.68,0,0,1,283,201l10.21,2.78a.63.63,0,0,1,.47.63l-.13,7.78a.65.65,0,0,1-.65.64Zm-9.56-3.53,8.92,2.06.12-6.46-8.92-2.43Z"/><path class="cls-2" d="M228.69,202.78a.55.55,0,0,0-.4-.53l-18.12-4.93h0v45.16a.57.57,0,0,1-.57.55h-3.12a.56.56,0,0,1-.57-.55v-44l-.72.19-22.52,5.92v40.77a.57.57,0,0,0,.57.55h44.89"/><polygon class="cls-3" points="279.19 160.53 279.19 238.97 243.09 236.94 210.17 238.97 210.17 160.53 244.68 151.12 279.19 160.53"/><polygon class="cls-3" points="279.19 160.53 279.19 237.6 244.68 228.2 244.68 151.12 279.19 160.53"/><line class="cls-4" x1="210.16" y1="197.32" x2="205.9" y2="198.48"/><polygon class="cls-3" points="244.68 245.91 244.68 233.95 167.56 243.85 168.56 245.91 244.68 245.91"/><polygon class="cls-3" points="322.46 245.91 324.01 243.38 244.68 233.95 244.68 245.91 322.46 245.91"/><path class="cls-5" d="M258.41,218.07l-.1-.08-2.69-2.25a1.35,1.35,0,0,1-.53-1v-1.41h1.68a.73.73,0,0,0,.81-.62v-2.15a.73.73,0,0,0-.81-.62h-.93l-8.74-15.1a2.32,2.32,0,0,0-3.63-.08L233.33,209.9h-.93a.73.73,0,0,0-.81.62v2.15a.73.73,0,0,0,.81.62h1.87v1.41a1.35,1.35,0,0,1-.53,1L231.05,218l-.11.08c-8.11,5.72-5.17,13.33-4.8,14.19a1,1,0,0,0,.07.15l8.19,13.91a1.22,1.22,0,0,0,.7.63c2.39.68,11.76,1.57,19.14,0a1.18,1.18,0,0,0,.72-.64l8.19-13.91a1,1,0,0,0,.07-.15C263.59,231.4,266.53,223.79,258.41,218.07Z"/><path class="cls-6" d="M197.24,263.33a16.24,16.24,0,0,1,2.21-3,31.69,31.69,0,0,1,9-7.21,28.79,28.79,0,0,1,11.42-3.39,34.71,34.71,0,0,1,16,2.58,72.7,72.7,0,0,1,9.51,5c6,3.56,11.94,7.28,18.29,10.24a54.42,54.42,0,0,0,16.1,5,41.71,41.71,0,0,0,20.6-2.42c.19-.08.36-.25.6-.11-.74.76-1.41,1.59-2.2,2.28a32.53,32.53,0,0,1-16,7.65,38.24,38.24,0,0,1-15-.53,47.31,47.31,0,0,1-9.86-3.39,79.83,79.83,0,0,1-7.89-4.37c-4.38-2.73-8.73-5.52-13.15-8.17A52.5,52.5,0,0,0,225.52,258a29.33,29.33,0,0,0-11.44-1.2,33,33,0,0,0-14.92,5.3A9.29,9.29,0,0,1,197.24,263.33Z"/><path class="cls-6" d="M253.45,280.11c-1.15-.48-2.31-.94-3.46-1.43-6.46-2.73-12.84-5.66-19.51-7.86a60.22,60.22,0,0,0-11.29-2.5,55.93,55.93,0,0,0-9.85-.4A42.88,42.88,0,0,0,192.55,272c-.79.38-1.57.79-2.35,1.18a1.92,1.92,0,0,1-.2,0,7,7,0,0,1,1.63-1.55,32.79,32.79,0,0,1,18.07-7.42,35,35,0,0,1,6.31-.07,51.21,51.21,0,0,1,21,6.67c5.07,2.81,10.14,5.65,15.21,8.47.42.24.87.44,1.31.66Z"/><path class="cls-6" d="M245.8,249.59l5.28,2.23c5.32,2.26,10.6,4.62,16.06,6.54a63.61,63.61,0,0,0,10,2.6,57.72,57.72,0,0,0,11.72,1,46.28,46.28,0,0,0,10.39-1.43,40,40,0,0,0,9.44-3.66.94.94,0,0,1,.65-.2,11.56,11.56,0,0,1-2,1.81,32.44,32.44,0,0,1-16.47,7,41.23,41.23,0,0,1-15.48-1.12,55.5,55.5,0,0,1-11.92-4.74c-4.72-2.47-9.28-5.22-14-7.78-1.26-.69-2.54-1.35-3.81-2Z"/><path class="cls-6" d="M213.19,272.07l5.82,2.82c5.85,2.85,11.65,5.82,17.67,8.31a71.59,71.59,0,0,0,11.1,3.52,64.8,64.8,0,0,0,13.13,1.77,51.17,51.17,0,0,0,11.77-1,45,45,0,0,0,10.84-3.56,1.09,1.09,0,0,1,.75-.19,12.38,12.38,0,0,1-2.33,1.93A36.49,36.49,0,0,1,263,292.54a46.48,46.48,0,0,1-17.36-2.18,62.13,62.13,0,0,1-13.12-6c-5.17-3.05-10.14-6.42-15.25-9.57-1.38-.86-2.78-1.68-4.17-2.51Z"/><polygon class="cls-7" points="213.91 173.64 213.91 168.52 239.78 162.3 239.8 167.41 213.91 173.64"/><polygon class="cls-7" points="213.91 189.32 213.91 184.21 239.78 177.99 239.8 183.1 213.91 189.32"/><polygon class="cls-7" points="213.91 205.01 213.91 199.9 235.48 194.72 235.51 199.83 213.91 205.01"/><polygon class="cls-7" points="213.91 219.32 213.91 214.21 226.84 211.1 226.86 216.21 213.91 219.32"/><polygon class="cls-7" points="213.91 233.63 213.91 228.52 220.68 226.97 220.71 232.08 213.91 233.63"/><polygon class="cls-7" points="276.61 173.64 276.61 168.52 250.74 162.3 250.72 167.41 276.61 173.64"/><polygon class="cls-7" points="276.61 189.32 276.61 184.21 250.74 177.99 250.72 183.1 276.61 189.32"/><polygon class="cls-7" points="276.61 205.01 276.61 199.9 255.03 194.72 255.01 199.83 276.61 205.01"/><polygon class="cls-7" points="276.61 219.32 276.61 214.21 263.68 211.1 263.66 216.21 276.61 219.32"/><polygon class="cls-7" points="276.61 233.63 276.61 228.52 269.83 226.97 269.81 232.08 276.61 233.63"/><polygon class="cls-7" points="179.34 213.5 178.37 209.13 198.6 204.65 198.59 209.24 179.34 213.5"/><polygon class="cls-7" points="179.34 222.46 178.37 218.09 198.6 213.61 198.59 218.2 179.34 222.46"/><polygon class="cls-7" points="179.34 232.41 178.37 228.03 198.6 223.56 198.59 228.15 179.34 232.41"/><polygon class="cls-7" points="179.34 241.36 178.37 236.99 198.6 232.51 198.59 237.1 179.34 241.36"/><rect class="cls-3" x="228.52" y="207.83" width="31.89" height="3.69"/><path class="cls-8" d="M245.39,301.69a84.16,84.16,0,1,1,84.16-84.15A84.25,84.25,0,0,1,245.39,301.69Zm0-165.54a81.39,81.39,0,1,0,81.38,81.39A81.48,81.48,0,0,0,245.39,136.15Z"/><path class="cls-8" d="M155,216.82c-.08-.41-.15-.74-.22-1l-.13-.28,0-.13-1.3.77-.07,1.18.14.25.1.22,0,.09.05.13,0,.09,0,.13-.24.38-.29.28a2,2,0,0,1-1.39.4,3.22,3.22,0,0,1-1.45-.61l-.34-.41-.15-.5a5.9,5.9,0,0,1,.5-1.18,10.28,10.28,0,0,1,4.18-3.23,2.44,2.44,0,0,1,1.08-.33l.08-1.21-.64-1.4-.85.4-.81.38a10.47,10.47,0,0,0-1.77,1.1q-3,2.34-3.16,4.93l0,.86,0-2.6-14.39.16,0-2.18h-1.24l.18,16.54,1.24,0,0-4.27,1-.77a4.14,4.14,0,0,1,2.11-.78,2.61,2.61,0,0,1,2,.74l.37.57.19.63v0l-.09.28-.12.24,0,1.21a5.53,5.53,0,0,0,4.1-1.83,6,6,0,0,0,1.41-4v-1.22l-.13-1.3a6.8,6.8,0,0,0-.47-1.17l3.86,0v.1a3.84,3.84,0,0,0,.81,2.6,3.31,3.31,0,0,0,2.32,1.24,3.17,3.17,0,0,0,2.38-.93A3.53,3.53,0,0,0,155,219l.08-1.23Zm-13.15,7.64-.18.1-.24.09-.24.12-.3.1-.29-1-.31-.75a3.43,3.43,0,0,0-3.11-1.72l-.93.16-1.18.49-.45.25-.6.37-.05-4.12,7.54-.08.95.66.4.39a2.72,2.72,0,0,1,.4.51l.46.81a2.55,2.55,0,0,1,.25.91A3.91,3.91,0,0,1,141.86,224.46Z"/><path class="cls-8" d="M135.79,193.57l-2.6,14.89,1.23.21.4-2.33,5.52,1a5,5,0,0,0,1.67,0,10.21,10.21,0,0,0,1.49-.63,4.3,4.3,0,0,0,1.68-2.78l.24-1.19.05-1a4.6,4.6,0,0,0-.3-1.09l5.11.89.48-2.78-14.17-2.47.26-1.51.85-2.53h0L151.57,196l.74-2.68-13.87-3.83.68-2.45-1.2-.33-.74,2.78-2.13.54-1.54.49a8.57,8.57,0,0,0-1.83.81,4.92,4.92,0,0,0-2.6,2.81l-.28,1.14a3.39,3.39,0,0,0,1.59,3.93,3.57,3.57,0,0,0,1.35.66l.69.12.7,0,.66-.14,1.29-.5.22-1.65,0-1-.45.16-.84.18a9.19,9.19,0,0,1-1,.09,2.64,2.64,0,0,1-.71-.1,5.19,5.19,0,0,0-.52-.17,5.6,5.6,0,0,1-.53-.34,3.56,3.56,0,0,1-.56-.5l-.3-.49-.14-.51c.21-1.27,1.15-1.63,2-2,2.28-1.05,3.69-1,4.1-.88,0,0,.09,0,.1.06l-.15-.2Zm6.76,6.56.54.58.35.47a5.92,5.92,0,0,1,.48,1,2.76,2.76,0,0,1,.12.48,1.56,1.56,0,0,0,0,.27.48.48,0,0,1,0,.21l-.31.56-.48.44a2.55,2.55,0,0,1-2.28.53l-5.72-1,.8-4.63Z"/><polygon class="cls-8" points="197.54 138.59 203.13 140.73 204.46 139.28 199.54 136.84 197.54 138.59"/><path class="cls-8" d="M180.66,128.52l-11,8.8-1.46,1.38L159,137.23l-1.22,2.33,8.84.63-2.06,1.95-9,10.08-1.34,2.08-9.49.28h0l-.47,2.51,8.83-1-1.72,2.69-7.13,12,1.07.62,1.19-2,4.42,2.57c.37.17.64.3.82.4a3.74,3.74,0,0,0,2.67.12,3.65,3.65,0,0,0,2-1.69l.93,6.42,2.11-1.53-1.56-8.27,4.76,2.77,1.42-2.44-12.44-7.23.72-1,1.73-2.41,11.68,8.4,1.64-2.29-11.93-8.44,1-1.68,10.49-11.33,2.83,2.61-4.9,5.33a2.05,2.05,0,0,1,.69,0l1.38.2a5.8,5.8,0,0,1,3.24,1.44,3.19,3.19,0,0,1,.9,1.53v.54l-.16.43a5.1,5.1,0,0,1-3.62.4,13.62,13.62,0,0,1-3.58-1.13l-1.62-.75a1,1,0,0,1-.33-.22l-.18-.17-1,2.51.57.36,1.54.65a17,17,0,0,0,2.44.81q4.11,1.08,6.21-1.1l.85-.87a4,4,0,0,0,.85-1.27,3,3,0,0,0-.67-3.34,3.24,3.24,0,0,0-.4-.42l-.68-.46-1-.5-1.35-.51a1.18,1.18,0,0,0-.71-.12l2.36-2.56,6.87,6.36,1.91-2.06-10.55-9.78,1.6-1.37,7.24-5.74,1.84,2.33c-.41.18-1.09.52-1.14.56L177,136.51a3.46,3.46,0,0,0-.61.6,4.84,4.84,0,0,0-1,2.6,3.74,3.74,0,0,0,.83,2.67,4.16,4.16,0,0,0,3,1.53,3.42,3.42,0,0,0,2.48-.62c.27-.18.44-.31.52-.37l1-.73.6-.55a6.27,6.27,0,0,0,.45-.71l2.29,2.9,2.19-1.73-4-5.08a3.8,3.8,0,0,1-.75-2.15,2.88,2.88,0,0,1,.51-2.06l.5-.63h0l.75-.6-.79-.76a1.66,1.66,0,0,0-.48.19l-.43.23-.93.77-.32.29-.25.31-.22.41-.2.43,0,.1-.06.08-2.22-2.8,1.51-1.26h0l8.75-5.2,1.7,2.86-3.6,2.18a4,4,0,0,0-1.38,5.44,5.8,5.8,0,0,0,4,2.7,7.25,7.25,0,0,0,2.6.11,7,7,0,0,0,2.41-.93l1-.6a5,5,0,0,0,1.24-.94,16.53,16.53,0,0,0,1.26-1.91,5.19,5.19,0,0,0,.46-2.25l-2.53.66-.18,1.3a2.69,2.69,0,0,1-.36,1.11,3.2,3.2,0,0,1-.58.75l-.69.62a5,5,0,0,1-2.88.31,4.73,4.73,0,0,1-3.36-2.27,3,3,0,0,1-.33-1.86,2.6,2.6,0,0,1,1.27-1.9l4.63-2.76-2.4-4,2.68-1.6,6.14-2.53,1.53,3.86.2.41.18.61,0,.51-.12.27-.21.21-.77,0a3,3,0,0,1-.67-.45L200,122.94l-2,1.71.87.7.85.67,1.31,1,5.41,3.62a4.26,4.26,0,0,0,1.92.9l1.9-1.87-.83-.35-2-1-1.15-.69-2.65-1.86.61-.23.27-.14a.84.84,0,0,1,.32-.19,2.35,2.35,0,0,0,1-1.17h0l4.63-1.83,2.9,7.31,2.62-1-5.3-13.38,2.31-.91-.46-1.16-18,7.26Zm-25.2,37.54.22.83.11.59.08,1.06a2,2,0,0,1-.12.81l-.45.36-.56.24a2.49,2.49,0,0,1-2.32-.3L147.81,167l2.33-4Zm26.87-27.6a1.87,1.87,0,0,1,.25,1.39l-.06.55-.19.69a1,1,0,0,1-.34.55l-.76.21-.81-.09a2.91,2.91,0,0,1-1.93-1.22,3.42,3.42,0,0,1-.53-2.13l.17-.71.36-.63c.1,0,.16,0,.17-.07l.21-.08.2,0,1.36-.82h0ZM210,121l-4.2,1.67a1,1,0,0,0,0-.21l-1.87-4.7,4.17-1.66Z"/><path class="cls-8" d="M245.05,106.65a3.1,3.1,0,0,0,1,.29l.76,0,1.21.08a5.73,5.73,0,0,0,2-.25,4.16,4.16,0,0,0,3.07-3.84l-1.57-.07-1.21,0a3.3,3.3,0,0,1-1.13,2.32,3.06,3.06,0,0,1-1.64.65,3.6,3.6,0,0,1-.89-.31l-.77-.54a2.2,2.2,0,0,1-.65-1,3.56,3.56,0,0,1-.22-1.38l-1.6-.06-1.18,0a7.77,7.77,0,0,0,.49,1.84A4.62,4.62,0,0,0,245.05,106.65Z"/><path class="cls-8" d="M324.74,142.46l-12.38-11L306,127.2l0,0-9.74-5.87h0l-.17-.1,0,0-1.67-.77-2-9.57h0l-2.55,0,2.59,8.73-7.9-3.59-1.25-.41-2.95-9.21h0l-2.54.25,3.48,8.3-3.1-1-12.8-3.28-11.73-1.55h-.13l-8.14-.35h0l-.45,0v0l-7.51.31-12.54,1,.1,1.23,9.21-.76.25,3c-.3-.06-.66-.11-.77-.12a4.07,4.07,0,0,0-.56-.11l-1.68.17a2.69,2.69,0,0,0-.6.11,4.06,4.06,0,0,0-2.46,1.56,4,4,0,0,0-.77,2.78,4.7,4.7,0,0,0,.41,1.64,4.34,4.34,0,0,0,4.28,2.14l1.21-.07.81-.13a4.93,4.93,0,0,0,.77-.34l.3,3.68,2.78-.23-.54-6.46a4.56,4.56,0,0,1,.12-1.16,6,6,0,0,1,.62-1.27,2.92,2.92,0,0,1,1.59-1.38l.62.19a3.22,3.22,0,0,1,.82.7,4.83,4.83,0,0,1,.42,1.45,5.56,5.56,0,0,1-1.09,3.25,6.27,6.27,0,0,1-1.12,1.49l-.18.11,2.59.79.82-1.08.6-.87a5.77,5.77,0,0,0,1.26-3.81,3.78,3.78,0,0,0-.46-1.51,3.93,3.93,0,0,0-2.34-1.87,3.71,3.71,0,0,0-1.66-.2l-1.2.13-.6.11-.59.23-.58.33-.3-3.5,7.92-.32,3,.13-.61,14.37,2.81.12.61-14.37,2.94.12,6.42.83-.51,3.78c-.13.94-.53,1.47-1.2,1.61l-.57.1a1.68,1.68,0,0,1-1-.87l-.94-2.27-1.2-.16-1.36.73.46,1.16.48,1.17.67,1.56.74,1.5a43.89,43.89,0,0,0,2.38,4.27,6.88,6.88,0,0,0,1.46,1.85l2.45-.7-.57-.75L260,122.26l-.7-1.17-1.63-3.21,1,.16a3.19,3.19,0,0,0,2.39-.52,2.77,2.77,0,0,0,1.26-2l.53-3.93,2.41.33,1.42.31-1.36,5.43a4.81,4.81,0,0,0-.11,1.67,9.08,9.08,0,0,0,.52,1.53,4.25,4.25,0,0,0,2.65,1.88l1.17.33,1,.12a4.32,4.32,0,0,0,1.11-.22l-1.26,5,2.74.68,3.5-13.95,1.16.41,2.79,1-4.83,13.55,2.65.94,4.84-13.55,2.76,1h0l5.67,2.58L290,124.1c-.39.87-.93,1.27-1.61,1.2l-.57-.06a1.74,1.74,0,0,1-.72-1.13l-.25-2.44-2.61-.19.1,1.24.13,1.26.2,1.69.27,1.65A42.54,42.54,0,0,0,286,132.1a6.73,6.73,0,0,0,.87,2.19l2.55,0-.34-.88-.71-2.23-.34-1.31-.64-3.55.9.43a3.24,3.24,0,0,0,2.44.2,2.81,2.81,0,0,0,1.78-1.57l1.64-3.61,1.44.65,2.75,1.67a2.66,2.66,0,0,0-2.08,2.39,3.29,3.29,0,0,0,1.76,3.37l1,.65.67.29.85.11a.25.25,0,0,0-.14.13l-.08.13-.12.07-.08.09-.84.46-1,.28-1.13.07a2.34,2.34,0,0,1-1.06-.17,1,1,0,0,1-.32-.12l-.3-.15-.43-1.17-2.5-.25,3.12,9,2.49.25L296,133.39a5.32,5.32,0,0,0,4.82.36,5.84,5.84,0,0,0,2.81-2.35l.39-.9.24-.95,0-1a3.67,3.67,0,0,0-.13-1l1.1.66,0,0,2.42,1.73-8.37,11.7,2.29,1.64,8.37-11.7,2,1.18h0l8,7.11L317.2,143l-6.26-5.5-.29-.22-.27-.11a1,1,0,0,0-.94.34,3.14,3.14,0,0,0-.27.85A8.65,8.65,0,0,0,309,140l.06,1.63a1.53,1.53,0,0,0,.26.71l.88.83.29.17h.33a.63.63,0,0,0,.18-.11l.3-.3L313,141l3.34,2.95-6,6.74,2.11,1.86,9.54-10.77,1.86,1.65Zm-90.52-23.1-.36.42-.56.47a1.79,1.79,0,0,1-.59.27,2.61,2.61,0,0,1-.75-.22l-.61-.46a3.22,3.22,0,0,1-.84-2,3.67,3.67,0,0,1,.4-2,2.21,2.21,0,0,1,1.41-1.21l.18.05.19,0,.16.08,1.69.3.24,2.88A1.82,1.82,0,0,1,234.22,119.36Zm38,1-.62.5-.49.31a5.64,5.64,0,0,1-1,.41,2.31,2.31,0,0,1-.49.08,1,1,0,0,0-.27,0,.56.56,0,0,1-.22,0l-.53-.35-.41-.51a2.55,2.55,0,0,1-.35-2.31l1.41-5.64,4.56,1.14ZM301.86,128l-.09.69-.54.25-.37.16-.77.11-.71-.11-.33-.4-.15-.52a1.87,1.87,0,0,1,.27-1.52l.46-.54a2.16,2.16,0,0,1,.65-.32.69.69,0,0,1,.47-.08l.45.06A2.35,2.35,0,0,1,301.86,128Z"/><path class="cls-8" d="M356.09,212l-.32-2.12,6.44-6.1-.74-2.73-6,6.74,0,.24-1.73-11.61h0l-4.53-14.63-1-2.43.18-.2.46-.39.59-.41.54-.26a4.84,4.84,0,0,1,1.4-.34,3,3,0,0,1,2.08.74,2.05,2.05,0,0,1,.64.69,9.36,9.36,0,0,1,.06,3.87l-.42,2.14c0,.15-.08.36-.16.64a6.43,6.43,0,0,0-.16.64c-.16.46-.28.77-.34.93l-.4.95-1,2.43.66,1.71.56,1,1.16-2.33.51-1.16.84-2.71a15.37,15.37,0,0,0,.71-5.57,7,7,0,0,0-.47-2.43l-.49-1.11q-1.37-3-4.24-3a3.8,3.8,0,0,0-1.71.38l-.44.21-.68.48-.63.46-.21.22-1.05-2.55-2.57-5.75-.25-.43.51-2.26.22-1.25.17-2.83a15.38,15.38,0,0,0-.63-5.58,6.8,6.8,0,0,0-1-2.24l-.74-1a4.43,4.43,0,0,0-4.83-1.94,3.79,3.79,0,0,0-1.58.78l-.37.31-.55.63-.51.59-.14.26-1.63-2.23-1,.74,1.57,2.15-11.61,8.5,1.67,2.27,11.6-8.5,1.53,2.08,7,11.82-3.44,1.93-.24-.31-.18-.25-.55-.55-.56-.49-.36-.22-.44-.23.05-.34,0-.44a4.19,4.19,0,0,0-.1-1.54,5.34,5.34,0,0,0-.51-1.45l-.62-1a4.87,4.87,0,0,0-2.52-2.2,3.72,3.72,0,0,0-3.3.37,6,6,0,0,0-2.66,3.61c-.72,2.31-.87,4.76-.34,5.69l2.12.26-.12-1.7.06-1.25q.14-3.15,2.15-4.21a6,6,0,0,1,1.52-.38,3.11,3.11,0,0,1,.77.07,2.07,2.07,0,0,1,1.36.8l.14.69.09.78a5.51,5.51,0,0,1,0,.88c-.06.47-.14.74-.25.8l-.48.06h-1.54l-.34.12.57,2.56.73-.13,1,0,.86,0,.78.15.79.29.71.4-7.68,4.32,1.36,2.43,12.54-7.06.68,1.88,1,2.47-13.3,5.5,1.08,2.6,13.29-5.5,1,2.38,1,2.88L344,186.68l-.4-1.24-.18-.27-.1-.12a1.37,1.37,0,0,0-.35-.25l-.41,0a2.91,2.91,0,0,0-1.11,1.13c-.38.57-.66,1-.85,1.39s-.29.54-.31.56a1.53,1.53,0,0,0-.07.82l.32,1.17.17.35.24.18a.77.77,0,0,0,.2,0l.31-.12,2-.61,1.24,4.15-7.31,2.19.8,2.67L352,194.59l.55,1.84h0L354,206.56l-3.3.49-.65-4.16a4,4,0,0,0-4.51-3.34,5.78,5.78,0,0,0-4,2.71,6.35,6.35,0,0,0-1.14,5l.15,1.2a5.25,5.25,0,0,0,.41,1.5,16.91,16.91,0,0,0,1.29,1.89,5.24,5.24,0,0,0,1.9,1.28l.35-2.59-1.13-.66a2.72,2.72,0,0,1-.9-.76,3.49,3.49,0,0,1-.47-.81l-.32-.88a5,5,0,0,1,.82-2.78,4.71,4.71,0,0,1,3.37-2.25,3.08,3.08,0,0,1,1.85.4,1.86,1.86,0,0,1,1.13,1.33,1.72,1.72,0,0,1,.14.56l.8,5.34,4.64-.69.46,3.07,0,11.75h-2.73l0-5.24-.06-.67-.21-.52a.55.55,0,0,0-.39-.33l-.58-.09a6.1,6.1,0,0,0-3.12,1.48,3.85,3.85,0,0,0-1.76,2.87l0,1.21,0,.43.21.63.25.64.15.52a.72.72,0,0,1-.34.21l-.51.09a5,5,0,0,1-2.27-.61,2.33,2.33,0,0,1-1.21-1.91c.18-.57.35-1.06.52-1.49a9,9,0,0,1,1.12-1.57l1.43-1.48a21.89,21.89,0,0,1,1.79-1.44c.34-.23.56-.39.66-.47a3.92,3.92,0,0,1,1-.61l.22,0-1.15-2.39-.61.3-1.27.93a17.71,17.71,0,0,0-3.28,3.21,7.38,7.38,0,0,0-1.73,4.42l0,1.21a4.39,4.39,0,0,0,1.29,3.4,4.82,4.82,0,0,0,3.54,1.27l.85-.09.76-.24c.59-.4.87-.8.85-1.21l0-1.21-.06-.51-.18-.76a1.53,1.53,0,0,1-.15-.52l-.36-1.24,0-.09.06-.06.12-.18.37-.46.54-.45.64-.45.48-.24a.49.49,0,0,1,.37-.15l.33,0,.21,0,.25.18,0,6.45h4v2.54h1.24l0-17.41ZM337,157.94l-1.58-2.11.12-.24.36-.49.47-.53.47-.39a4.87,4.87,0,0,1,1.27-.67,3.09,3.09,0,0,1,2.2.24,2,2,0,0,1,.79.51,9.58,9.58,0,0,1,1,3.75l.1,2.18c0,.14,0,.36,0,.66s0,.51,0,.66c-.05.48-.09.81-.11,1l-.16,1-.33,1.63,0-.08Zm9,35.53-1.25-4.15,5.17-1.55,1.24,4.15Z"/><polygon class="cls-8" points="152.89 256.36 155.26 261.42 160.76 262.33 156.69 266.14 157.51 271.66 152.63 268.96 147.64 271.46 148.69 265.98 144.78 262 150.32 261.31 152.89 256.36"/><polygon class="cls-8" points="339.24 256.36 341.61 261.42 347.11 262.33 343.03 266.14 343.86 271.66 338.98 268.96 333.98 271.46 335.04 265.98 331.13 262 336.67 261.31 339.24 256.36"/><circle class="cls-8" cx="144.56" cy="212.12" r="1.73"/><circle class="cls-8" cx="149.28" cy="188.45" r="1.73"/><path class="cls-9" d="M87.45,233.73c1.21-10.62.91-20.66-3.87-30.2a91,91,0,0,1-8.27-22.26C66.58,194.44,73.16,223.3,87.45,233.73Z"/><path class="cls-9" d="M86.74,192.17c10.31-17.71,2.36-35.65,2-53.79C77.41,151.48,76.51,177.84,86.74,192.17Z"/><path class="cls-9" d="M207.37,372.12c-9.86-7-27-6.69-45.75.76C176.09,381.59,198.39,381.22,207.37,372.12Z"/><path class="cls-9" d="M98.74,155.34c12.12-14.68,5.48-32.18,8.93-48.31C95.54,115.75,91.13,140.22,98.74,155.34Z"/><path class="cls-9" d="M97.15,271.56C95.34,253,82.93,243.38,69.06,233,73.18,250.51,80.55,263.85,97.15,271.56Z"/><path class="cls-9" d="M92.26,302.53c7.48,15.92,23.46,28.17,37.58,27.58C122.84,313.92,108,308.6,92.26,302.53Z"/><path class="cls-9" d="M110.92,302.33c-5.17-16.77-17.76-25.41-32-32.72C80,282.9,95.57,298.92,110.92,302.33Z"/><path class="cls-9" d="M179.74,361.62c-13.18-10.89-28.47-6.37-43.28-7.48C143.93,366,164.18,369.46,179.74,361.62Z"/><path class="cls-9" d="M112,331.35c12.09,14,25.45,20.63,43.3,19.89C144.54,336.71,129.66,333.47,112,331.35Z"/><path class="cls-9" d="M134.29,101c15.18-8.37,15.77-25.4,23.6-38.42C143.84,66.85,132.34,85.71,134.29,101Z"/><path class="cls-9" d="M113.08,123.63c14.36-10.7,12.3-27.71,18.2-41.74C118.65,87.86,110.32,106.9,113.08,123.63Z"/><path class="cls-9" d="M223.38,383.46c-1.54,1-9.17,4.29-11.76,8.62,9.16.85,17.78,1.7,26.33-.78a21,21,0,0,0,8.18-4.11c1.78-1.56,4.6-3.2,3.9-5.61s-3.95-1.88-6.26-2.26c-7.36-1.21-13.55,3-20.39,4.14Z"/><path class="cls-9" d="M220.62,384c.61-.24,1.32-.64,1.93-.88,2.64-1.48,7.46-3,6.38-6.2-.93-2.77-5.74-2.2-8.85-2.13-11.53.24-21.53,6.26-34.27,8.33a33,33,0,0,0,24.95,3.78A55.82,55.82,0,0,0,220.62,384Z"/><path class="cls-9" d="M166.59,118c-13.55,2.55-29.21.85-36.23,17.76C145.94,136.2,157.44,129.53,166.59,118Z"/><path class="cls-9" d="M147.82,111.41c15.33,4.13,27.89.62,39.46-7.8C173.89,102.92,159.51,96.86,147.82,111.41Z"/><path class="cls-9" d="M115.9,164.21c15.14-2.49,24.42-11.91,31.3-24.71C130.89,141.6,118.06,151.62,115.9,164.21Z"/><path class="cls-9" d="M108.13,228.57c11.43-9.72,15.37-22.23,15-37.1C108.2,206.42,102.3,218.54,108.13,228.57Z"/><path class="cls-9" d="M108.12,196.1c12.42-5.7,20.52-17.11,22.82-32.12C112.84,175.43,104.62,186.05,108.12,196.1Z"/><path class="cls-9" d="M173.63,93.58c12.11,7.12,24.41,7.25,37.44,2.46C197.16,87.14,180.65,85.06,173.63,93.58Z"/><path class="cls-9" d="M202.51,43.91c-15,4.82-25.82,18.34-26.46,32.13C190.62,70.52,193.88,55.79,202.51,43.91Z"/><path class="cls-9" d="M165.28,336.15c2-13.72-2.68-24.48-11.88-34C149.88,317,154.82,331.37,165.28,336.15Z"/><path class="cls-9" d="M165.21,314.71c4.22,12.62,5.06,26.31,20.11,31.38C186.3,334.05,178.33,321.35,165.21,314.71Z"/><path class="cls-9" d="M126.53,259c-5.43,17.91-4.58,31.57,4.57,36C136.45,282.18,134,270.52,126.53,259Z"/><path class="cls-9" d="M183.57,326.47c6.53,10.24,9.08,24.51,25.79,25.51C205.47,337.92,196.32,330.36,183.57,326.47Z"/><path class="cls-9" d="M183.27,49.93c-14.91,4.79-25.43,17.83-26.32,31.7C171.67,76.3,174.79,61.53,183.27,49.93Z"/><path class="cls-9" d="M115.3,262.12c8.52-12,9.68-23.85,5-38C115.38,237,106.13,247.68,115.3,262.12Z"/><path class="cls-9" d="M136.81,280.33c-1.63,9.67-2,18.33.11,27,.75,3,2.84,5.42,5.16,7.5,1.91,1.72,3.28,2.15,3.84-1.18C148,301.47,145.23,290.69,136.81,280.33Z"/><path class="cls-9" d="M207.15,336.55c6,10.9,9.85,24,25.57,25.87C230.32,350.21,221.86,341.47,207.15,336.55Z"/><path class="cls-9" d="M224,341.33c6.9,8.14,11.87,16.95,20.9,22.11,1.7,1,3.79,2.44,5.47,1.27,2-1.39.26-3.69-.29-5.35C246.74,349.41,235.86,341.67,224,341.33Z"/><path class="cls-9" d="M218.06,67.27c-10.14-1.25-18.52-2.91-26.43,2-2.06,1.28-4.76,3-4.17,5.37.66,2.67,3.82,3.21,6.54,3.38C203.15,78.57,210.25,74.46,218.06,67.27Z"/><path class="cls-9" d="M227.62,39.52c-15,1.57-23.75,11-30.09,24.69C212.74,61.71,218.3,48.38,227.62,39.52Z"/><path class="cls-9" d="M145,100.52c-9.6,4.81-16.86,9.86-19.42,19.69-.47,1.79-.87,3.65.72,4.86s3.41.36,5-.49C140.26,119.64,143.34,111.34,145,100.52Z"/><path class="cls-9" d="M123.61,128.65c-8.59,6.4-15.82,12-17.06,22.35-.21,1.71-.31,3.71,1.37,4.78s3.38-.17,4.73-1.16C121,148.51,123.18,139.77,123.61,128.65Z"/><path class="cls-9" d="M179.15,80.65c-9.77-.7-17.57,1.85-24.15,7.89-1.71,1.57-3.74,3.74-2.36,6.24s4.41,1.86,6.59,1.34C167.7,94.09,174.08,89.09,179.15,80.65Z"/><path class="cls-9" d="M97.41,197.26c-3.71,9.76-8.16,17.79-4.32,27.19.74,1.8,1.51,4,3.77,4.06s3.22-2.26,3.87-4C104.09,215.48,102.76,206.91,97.41,197.26Z"/><path class="cls-9" d="M228.84,91.76c-9.89-6.59-19-15.64-33.55-10.77C205.22,90.89,216.37,93.4,228.84,91.76Z"/><path class="cls-9" d="M97.88,232.32c-2.15,11-4.69,20,1.53,28.66,1,1.33,2,3.31,4,2.8,1.78-.47,2.45-2.43,2.83-4.12C108.46,249.73,104.78,241.6,97.88,232.32Z"/><path class="cls-9" d="M107.23,159.72c-7,8.5-12.76,15.55-11.53,25.73.21,1.75.43,3.79,2.19,4.45s3.29-1,4.41-2.25C109.09,180,108.94,171,107.23,159.72Z"/><path class="cls-9" d="M217.46,74.17c7.92,10.93,18.4,15.24,30.64,16.43C242.3,79.92,229.66,72.89,217.46,74.17Z"/><path class="cls-9" d="M103.72,268.29c1.47,9.14,2.23,17.31,9.89,22.7,1.58,1.11,3.35,3.07,5.22,1.8,1.37-.93.82-3.31.45-5C117.42,279.32,113.48,272.4,103.72,268.29Z"/><path class="cls-9" d="M248.7,63.93c-7-4.1-13.93-4.31-20.85-2.88-2.61.54-6.22,2-5.89,5.2.3,3,3.75,3.85,6.65,4.15C235.89,71.16,242.34,69.21,248.7,63.93Z"/><path class="cls-9" d="M158.36,341.53c6,10.51,14.41,14.34,25.45,12.07C179.23,345.21,170.5,341,158.36,341.53Z"/><path class="cls-9" d="M120.14,292.83c1.75,10.55,2.93,19.23,10.62,25.16,1.17.9,2.44,2.4,4.05,1.62,2-1,1.28-3.13.95-4.71C134,306.08,128.55,299.67,120.14,292.83Z"/><path class="cls-9" d="M247.59,39.5A28.34,28.34,0,0,0,220,57.3C232.3,56.63,238.31,46.65,247.59,39.5Z"/><path class="cls-9" d="M218.06,364.35c-7.33-11.25-17.74-9.16-29.35-9.47C197.65,363.69,206.61,366.44,218.06,364.35Z"/><path class="cls-9" d="M137,322.18c2.31,7.9,6.26,13.14,12.55,16.49,1.64.88,3.74,2.4,5.29.58,1.34-1.56.5-3.85-.52-5.55C150.64,327.53,144.84,324.41,137,322.18Z"/><path class="cls-2" d="M250,372.94c-1.19-.07-.89.08-2.5.38-9.52,1.81-18.07-.94-27.35-7.57,11.53-1.26,20.92-2.24,30.66,4.35a1.27,1.27,0,0,1,.62,1.6A1.62,1.62,0,0,1,250,372.94Z"/><path class="cls-8" d="M405.51,241.37c.45-3.72,1.65-5.79,5.73-5.09a16.6,16.6,0,0,0,2.64,0c13.23,0,13.46,0,13.45-13.57,0-9.23-.86-18.46-1.2-27.7-.14-3.95-1.91-5.19-5.81-5.13-5,.09-11.25,2.54-14.56-.8-2.92-2.94-2.5-9.08-3.84-13.72a154.3,154.3,0,0,0-5.21-15.65c-1.3-3.16-.76-4.92,2.21-6.3,1.39-.65,2.65-1.57,4-2.35,10.15-6,10.17-6,4.56-16.67a176.61,176.61,0,0,0-15.15-24c-2.18-2.89-3.94-3.93-7.57-2.12-4.85,2.42-9.94,7.48-14.79,6-4.33-1.31-8.1-7-11.77-10.76s-9.23-7.33-9.56-11.25,5.12-8.69,8.27-12.89c1.48-2,1.68-3.17-.41-4.82A172.23,172.23,0,0,0,324.1,54.3c-3.1-1.49-4.68-.45-6.31,2.27-2.7,4.49-5,10.86-9,12.47-3.57,1.42-9.72-1.61-14.53-3.09-5-1.52-11.57-2.4-14-5.71s-.88-10.14-.65-15.4c.15-3.65-1.16-5.15-4.78-5.4-6.14-.42-12.22-1.44-18.43-1.39-3.52,0-4.53,1.24-4.47,4.63.29,14.75.47,29.51.45,44.27,0,3.56,1.68,4.45,4.71,4.79,6.34.71,12.75,1.22,19,2.55,47.2,10.11,87,53.06,94.5,101.79,9.64,62.43-24.25,119.55-83.71,141.14a115.73,115.73,0,0,1-29,6c-4.42.41-4.91,2-4.81,5.6.19,7.2.05,14.41.05,22.67h0l-.08,3.46,0,2.9,0,14.56c-.09,2.85.43,4.46,3.88,4.45,7.95,0,15.84-.27,23.63-2.14,2.94-.71,4.46-1.61,4.37-5.09-.15-5.45-1.46-12.26,1.22-16,2.44-3.41,9.52-3.49,14.55-5.07,1.26-.39,2.48-.9,3.72-1.37,12.2-4.63,12.45-4.82,20.33,6,3.28,4.49,5.76,5.16,10.52,2.16a268.73,268.73,0,0,0,26.47-18.58c3-2.46,4.12-4.43,1.2-7.93-3.07-3.68-7.46-7.92-7.53-12-.08-4.23,7.75-9.16,10.74-12.94,3.55-4.48,6.05-6.18,9.42-10.79,2.14-2.92,4.1-3.58,7.09-1.59a29.1,29.1,0,0,0,3.56,1.7c11,5.4,11,5.41,17.13-4.84A180.44,180.44,0,0,0,415,284.66c1.43-3.45,1.29-5.57-2.65-7.07-4.48-1.7-10.56-3-12.53-6.38-1.64-2.83,1.82-8.5,2.75-13C403.69,252.66,404.82,247,405.51,241.37Z"/><path class="cls-10" d="M176.36,289.81l-9,9.89-1.87-1.83,4.94-5.42-2.84-2.77.08-1.54,3.54,3.46,3.3-3.62-3-2.91-3.17,3.47a.83.83,0,0,1-.24.17l-.53.34a1.69,1.69,0,0,1-1.83-.25.76.76,0,0,0-.28-.19l-.22-.18-1-1a.88.88,0,0,1-.21-.36l.82.76-.56,3.2-.12,1.26-.08,2.09,0,.85h0l-2.28-.88a4.23,4.23,0,0,1,0-2l.91-6.09.32-1.5.22-1,.25-1,2.2,1.05h0l-.48,1.74a2.77,2.77,0,0,0-.12.75l.26.69.25.09h.28l.42-.17.44-.4.27-.33,2.6-2.86-4.73-4.62.78-.85,13.57,12.93-.7,1Z"/><path class="cls-10" d="M164.57,305.44a6.65,6.65,0,0,1-1.39-.86l-.89-.73a8.75,8.75,0,0,1-1.95-2.61c-.23-.43-.42-.81-.56-1.12a8,8,0,0,1-.77-2.39l2.35.36h0l.33,1.26.28.93c.05.14.18.44.37.89a11,11,0,0,0,1.23,2.08,2.15,2.15,0,0,0,.79.36,2.38,2.38,0,0,0,1.87,0A1.84,1.84,0,0,0,167,303a1.94,1.94,0,0,0,.28-.68l0-.72,0-.4-.18-.37-.43-.13a1.12,1.12,0,0,0-.49-.05l-.86.1h0l-1.12-2.21.44,0,.82.13a4.52,4.52,0,0,1,2.16,1l.86.67a2.45,2.45,0,0,1,.79.95,2.72,2.72,0,0,1,.24,2.25,3.13,3.13,0,0,1-.58,1.17Q167.33,306.68,164.57,305.44Z"/><path class="cls-10" d="M188.06,298.49l-7.49,11.18-2.11-1.52,2.87-4.28-7.64.85h0l-1.25-2.12,5.92-.38a3.42,3.42,0,0,1-1.39-2.05,3.65,3.65,0,0,1,.3-2.5c.1-.16.24-.41.43-.74l2.66-4-1.77-1.27.65-1,11,7.93-.65,1Zm-2.16-1.55-3.47-2.5-2.78,4.14a2.45,2.45,0,0,0-.44,2.16l.18.54.3.46a1.73,1.73,0,0,0,.72.18h1l.54-.06.77-.15Z"/><path class="cls-10" d="M199.46,305l-6.13,12-2.27-1.24,1.57-3.09h-.28a2.64,2.64,0,0,1-.8-.14l-.74-.34-1-.56a5,5,0,0,1-1.29-1,3.55,3.55,0,0,1-.78-1.4,3.61,3.61,0,0,1-.26-1.6A5.1,5.1,0,0,1,188,306a3.61,3.61,0,0,1,2.28-2,3.8,3.8,0,0,1,3,.27l1,.51.53.38a1.83,1.83,0,0,1,.55.44l.1.12.52.48-.59,1,.06,0-.37-.39-1.31-.95-.2-.09-.23-.05h-.12l-.11,0a2,2,0,0,0-1.13.06l2.07,4.05,3.15-6.19-7.83-4.27.53-1,11.62,6.22-.42,1.09Zm-8.8,1.69-.26.32-.16.26a2.64,2.64,0,0,0-.24,2.24l.32.79.53.61.5.08a.84.84,0,0,0,.57,0l.33-.05.44-.12Z"/><path class="cls-10" d="M205,312.75l-.92,2.34-.08.12-.05.13a.26.26,0,0,1-.25.18l-.4-.11-1-.46a.94.94,0,0,1-.45-.53l-.56-1.38a7.13,7.13,0,0,1-.43-2.25.89.89,0,0,1,.71-.6l.26,0,.32.1,1,.4,6.69,2.82-.43,1.09Zm-3.93-7,.42-1.09,7.9,3.32L209,309Z"/><path class="cls-10" d="M216.12,320.91l-1.16.37a5.66,5.66,0,0,1-3.79,0l-1-.37a7.32,7.32,0,0,1-1.19-.57,3.39,3.39,0,0,1-1.4-2.24,3.26,3.26,0,0,1,.08-1.2,2.82,2.82,0,0,1,1.21-1.56l.34-.19.53-.21a7.08,7.08,0,0,1-1.17-1.95l-.23-1.16a3.85,3.85,0,0,1,.13-1.07,2.69,2.69,0,0,1,1.32-1.73,2.74,2.74,0,0,1,2.19-.15l1.06.32a2.12,2.12,0,0,1,.84.49,2,2,0,0,1,.93,2.46l-.26.82-2.24-.73.26-.85a1.43,1.43,0,0,0,0-.6,1.21,1.21,0,0,0-.3-.61l-.32.1-.32.17-.43.46-.27.6a2.91,2.91,0,0,0,0,2l.26.66.29.46.71.08.78.2,1.06.32a1.65,1.65,0,0,1,.46.21l.51.22.26,1.23-1.79-.5q-2.64-.75-3.32,1.26a1.69,1.69,0,0,0,.25,1.55l.4.49.53.36.7.08.77-.05.74-.15.84-.26.75-.36.92-.53h0l.61,1.79C216.59,320.68,216.64,320.54,216.12,320.91Zm-.85-9.81.34-1.12,1.48.49-.56,1Z"/><path class="cls-10" d="M221.66,312.8,218.59,326l-2.5-.62,3.07-13.23-2.63-.66.26-1.14,7.75,1.93-.27,1.15Z"/><path class="cls-10" d="M220.59,311.39l-4.44-7.18,2.24-.64h0l4.18,8.24Z"/><path class="cls-10" d="M245.45,315.61l-.13,3.75a2.66,2.66,0,0,1-1,2,2.85,2.85,0,0,1-2.13.71l-1.1-.07-.53,0a.75.75,0,0,1-.49-.16h1.11l1.88,3.05.74,1,1.38,1.68.58.66h0l-2.16.89a6.47,6.47,0,0,1-1.49-1.61,41.37,41.37,0,0,1-2.55-3.79l-.81-1.35L238,321l-.55-1.05L237,318.9l2.26-.78h0l1.07,2.05a1.53,1.53,0,0,0,1,.73l.5-.15c.59-.19.91-.73.94-1.63l.13-3.61-7.63-.29,0-1.18,11.42.39,0,1.17Z"/><path class="cls-10" d="M252,315.35l.59,13.6-2.57.12-.59-13.6-2.71.13,0-1.17,8-.38.05,1.18Z"/><path class="cls-10" d="M262.36,323.79l-1.1.1a5.88,5.88,0,0,1-1.56,0,3.93,3.93,0,0,1-2-1.13,3.31,3.31,0,0,1-1-2.05l-.61-5.67-1.41.21-.91-1.12,7.53-.86.13,1.16-2.56.3,5.61,4.83.31,2.87A3.25,3.25,0,0,1,262.36,323.79Zm-3.42-6.7.36,3.34a2.16,2.16,0,0,0,.93,1.7l.62.31.65.12.22-.05.24-.11.21-.09.24-.14.59-.5.4-.62Z"/><path class="cls-10" d="M272.93,312l.9,4.34L269,317.45a1.77,1.77,0,0,0-.5.17,1.72,1.72,0,0,0-1.15,1.15,2.94,2.94,0,0,0-.25,1.77,4.65,4.65,0,0,0,4.82,3.64l.78-.35a3.29,3.29,0,0,0,.72-.49,2.75,2.75,0,0,0,.64-.89l.53-1.12h0l2.38.18a4.92,4.92,0,0,1-1.05,1.87,16.05,16.05,0,0,1-1.65,1.34,4.67,4.67,0,0,1-1.34.47l-1.09.21a6.11,6.11,0,0,1-2.36.11,6.42,6.42,0,0,1-2.21-.88,5.45,5.45,0,0,1-2.71-3.65,3.73,3.73,0,0,1,.5-2.82,3.5,3.5,0,0,1,2.28-1.63l3.75-.87-.63-3.08-9.1,1.83,0-1.16,14.13-3,.24,1.15Z"/><path class="cls-10" d="M276.77,329.26,273,326.55,271,331l-2.65.8,3.09-6.46,2.41-.58,5.57,3.68Z"/><path class="cls-10" d="M291,305.44l4.76,12.68-2.4,1-2.61-6.94-3.63,1.47-1.31-.73,4.53-1.83-1.74-4.65-3.82,1.54,1.68,4.46a1,1,0,0,1,0,.29l.06.65c.06.57-.27,1.1-1,1.6a.72.72,0,0,0-.29.18l-.25.13-1.32.5a1,1,0,0,1-.4,0l1-.44,2.55,1.89,1.05.65,1.79,1,.75.35h0L288.74,321a3.8,3.8,0,0,1-1.75-.86l-4.92-3.46-1.18-.93-.77-.65-.79-.66,1.86-1.61h0L282.5,314a2.47,2.47,0,0,0,.61.43l.7.06.19-.2.11-.26,0-.48-.16-.58-.17-.39-1.38-3.66-6.72,2.53-.24-1.15,17.25-6.78.41,1.09Z"/><path class="cls-10" d="M303.37,298.37l6.46,11.85-2.21,1.29-3.43-6.28-3.45,2,1,1.74.17.26a.76.76,0,0,1,0,.18l-.11.26-.28.23-1,.54a1.3,1.3,0,0,1-.74.11l-.56-.17c-.36-.1-.83-.26-1.42-.49a2.68,2.68,0,0,1-1.22-.79l-.11-.37a1.29,1.29,0,0,1,.14-.38l.1-.12.2-.21,1-.64L295.52,303l-2.39,1.61-.65-1,12.4-7.73.66,1Zm-2.22,1.3-3.44,2,2.42,4.44,3.44-2Z"/><path class="cls-10" d="M315.34,313.52l-.24.4a5.26,5.26,0,0,1-1.63,1.7l-1,.65a1.79,1.79,0,0,1-.43.26,2.24,2.24,0,0,1-.75.28,2.78,2.78,0,0,1-2.66-.17,3.81,3.81,0,0,1-1-1,3.06,3.06,0,0,1-.53-2.29,4.07,4.07,0,0,1,.43-1.15,4.43,4.43,0,0,1,.84-.81l2.84-1.95.62,1-1.64,1.13a2.16,2.16,0,0,0-.47.45,1.6,1.6,0,0,0-.25,1.31,2.69,2.69,0,0,0,.25.76,1.64,1.64,0,0,0,1.46.89l.68,0,.64-.2.25-.28.22-.28.35-.65.08-.44h0l2.12-.11Z"/><path class="cls-10" d="M316.91,286.92l-.92-.09-.92-.16c-.16,0-.45-.06-.9-.11h-.6a4.21,4.21,0,0,0-.6,0l-2,.07a8.4,8.4,0,0,0-3.43.89,1.84,1.84,0,0,0-.47.74,2.92,2.92,0,0,0-.23,2.07,4.22,4.22,0,0,0,.6,1.21l.34.45.48.45.44.35.22.12,1.94-1.48.66,1-1.91,1.41,7.66,11.06-2.09,1.56-7.66-11.06-2,1.47-.66-1,2.05-1.52-.24-.14-.53-.48-.57-.53-.28-.36a3.61,3.61,0,0,1-.7-1.49,4.28,4.28,0,0,1,1.82-4.56l.88-.69a6.19,6.19,0,0,1,2.06-1,13.67,13.67,0,0,1,5.1-.54l2.58.19,1.14.22,1.14.17-.91.64Z"/><path class="cls-10" d="M322.85,282.11l2.55,2.9-4,3.76a2.07,2.07,0,0,0-.48.64,1.64,1.64,0,0,0-.09,1.44l.49.73a2.9,2.9,0,0,0,2.52,1l1.15-.22c.2-.09.54-.27,1-.56l.17-.23.2-.28.09-.12-.19-.17a1,1,0,0,1-.23-.48,1.79,1.79,0,0,1,.1-2.22l.8-.79a1.35,1.35,0,0,1,.45-.28,1,1,0,0,1,.49-.06l.46.18a1.32,1.32,0,0,1,.42.35,2.83,2.83,0,0,1,.38.57,6.21,6.21,0,0,1,.19.68,1.62,1.62,0,0,1-.06.74,5.71,5.71,0,0,1-.34.51l.42.31.28.2.69.48.62.37,3,1.59L332,295l-1.51-.91-.19.42-.18.48-.64,1.06a4,4,0,0,1-.77.92l-.81.77a3.19,3.19,0,0,1-3.06.86l-.58-.24-.76-.48-1.12.9-.84.52a2.62,2.62,0,0,1-3.66-.5,3.25,3.25,0,0,1-.78-1.79,2.29,2.29,0,0,1,.71-1.71l.8-.79a2.31,2.31,0,0,1,.65-.47,2.35,2.35,0,0,1,.81-.17l.58.07h.22l-.09,1.05-.82.77-.28,0h-.19l-.2,0-.2.07,0,.11v.16l.12.43.21.41a2.14,2.14,0,0,0,2.63.32l.5-.2.4-.22-.06-.33-.06-.37a2.67,2.67,0,0,1,0-.36l0-.31.08-.38.09-.32.11-.22-.75.05-.56-.09a3.81,3.81,0,0,1-1.85-.74,5.94,5.94,0,0,0-.5-.49q-2-2.29,0-4.24l3.3-3.14L321,283.88l-9.49,8.52-.92-.76,13.7-12.44.76.87ZM327.5,292l-.12.15-.11.1-.83.75-.43.4-.71.43-.15.3-.09.24a1.79,1.79,0,0,0,.26,1.88,1.74,1.74,0,0,0,1.31.55l.48-.14.5-.24a2.74,2.74,0,0,0,.46-.75l.44-.91.36-1.16.07-.6Z"/><path class="cls-11" d="M100.71,401.15s15.14,13.38,27.83,18.55l1.18-19.09c10.62-2.81,22.19-9.05,22.19-9.05a66.55,66.55,0,0,1-22.21-15.92c-7.54-8.24-10.29-11.37-10.29-11.37L104,377.06l-14.29,14.4Z"/><path class="cls-11" d="M17.43,284.86s-7.84-18.66-8.81-30.6l18.45,5C33.15,250.14,43,239.48,43,239.48c.65,10,1,9.23,7.92,26.15C55.13,276,58.37,279,58.37,279L41.29,289.52l-18.23,8.9Z"/><path class="cls-12" d="M119.41,364.27l7,23.46s-22.34-9.18-18-14.5C111,370.12,119.41,364.27,119.41,364.27Z"/><path class="cls-12" d="M58.37,279,38.42,264.81s1.5,24.11,7.94,21.69C50.12,285.09,58.37,279,58.37,279Z"/><path class="cls-13" d="M93.44,410.12S38.52,379.65,6.89,289.28c0,0,27.33-21,31.53-24.47,0,0,10.4,62.78,88,122.92C126.45,387.73,100.45,403,93.44,410.12Z"/><path class="cls-7" d="M41.17,308.16,28.38,313.9l-1.12-2.5,7-3.14-2.06-4.6,1-.63,2.12,4.73,4.68-2.1-1.78-4-4.5,2a.73.73,0,0,1-.29.07l-.67.11c-.58.09-1.15-.24-1.7-1a1,1,0,0,0-.19-.3l-.15-.25-.59-1.39a.89.89,0,0,1-.06-.42l.51,1.06-1.81,2.82-.62,1.15-.9,1.95-.31.82h0l-1.89-1.77a4.1,4.1,0,0,1,.79-1.91l3.29-5.42.9-1.3.62-.86.64-.87,1.76,1.89h0l-1.16,1.46a2.74,2.74,0,0,0-.41.67l0,.75.22.19.27.11h.49l.59-.2.39-.2,3.69-1.66-2.84-6.32,1.1-.5,7.85,17.5-1.1.49Z"/><path class="cls-7" d="M48.26,321.72l-12.38,6.56-1.27-2.4,6.57-3.48-2-3.73-1.82,1-.27.18-.19,0-.26-.13-.24-.31-.52-1.06a1.48,1.48,0,0,1-.09-.79s.07-.22.19-.59.29-.87.54-1.49a2.92,2.92,0,0,1,.86-1.29l.38-.1a1.22,1.22,0,0,1,.39.16l.12.1.21.22.62,1.11,4.64-2.46L42,309.91l1.07-.56,7.28,13.76-1.06.57ZM47,319.32l-2-3.72-4.64,2.45,2,3.73Z"/><path class="cls-7" d="M56.25,335l-12,7.31L42.87,340l3.22-2a6.72,6.72,0,0,1-1-.75l-.76-1-.59-1a5.79,5.79,0,0,1-.82-4.06,5.3,5.3,0,0,1,2.51-3.57l.64,1,0,.26.07.27v0l.48.43.59.3a2.56,2.56,0,0,0,2.05-.39,3.93,3.93,0,0,0,1.37-1.71l.42-1.12L49,323.1l1-.63,8.4,13.74-1,.63Zm-1.43-2.34-2.09-3.43-.32.61-.25.44-.74,1-.7.6a3.33,3.33,0,0,1-3.46.11l-.64-.47-.75-.72-.2.23-.14.22-.16.2-.1.17a3.83,3.83,0,0,0-.4,3.36,2.5,2.5,0,0,0,.66.63l.79.45a2.59,2.59,0,0,0,.59.23l.53.12,1.12.08Z"/><path class="cls-7" d="M64.28,346.6l-11.45,8.07-1.58-2.24,2.94-2.07-.15-.07-.12-.06a3.19,3.19,0,0,1-.69-.53l-.54-.66-.66-1a5.55,5.55,0,0,1-.78-1.51,3.77,3.77,0,0,1-.08-1.66,3.5,3.5,0,0,1,.5-1.59A5.07,5.07,0,0,1,52.9,342a3.81,3.81,0,0,1,3.08-.7A4.21,4.21,0,0,1,58.7,343l.7.94.32.61a2.07,2.07,0,0,1,.33.67l0,.16.33.86-.63.63H59.1l-.58-1.72-.12-.43-.16-.17-.18-.16-.12-.06-.09-.08a2.35,2.35,0,0,0-1.11-.49l.08,4.71,5.88-4.15-5.44-7.71,1-.7,8.21,11.65-.95.74Zm-9.16-2.71-.39.17-.28.16a2.64,2.64,0,0,0-1.27,1.94l-.06.88.21.82.44.31a.85.85,0,0,0,.55.26l.33.12.47.11Z"/><path class="cls-7" d="M75.94,361l-3.1,2.59-3.69-4.41a2.3,2.3,0,0,0-.64-.54,1.68,1.68,0,0,0-1.48-.15l-.78.49a3.16,3.16,0,0,0-1.17,2.64l.18,1.23a10.78,10.78,0,0,0,.53,1.14l.23.18.27.24.12.09.18-.19a1.19,1.19,0,0,1,.51-.23q1.5-.68,2.28.21l.78.89a1.29,1.29,0,0,1,.27.48,1.18,1.18,0,0,1,0,.53l-.21.48a1.5,1.5,0,0,1-.38.43,2.65,2.65,0,0,1-.6.38,6.41,6.41,0,0,1-.7.17,1.52,1.52,0,0,1-.77-.09l-.51-.38-.33.43-.22.3-.52.7-.42.66-1.76,3.13-1.8-2.16,1-1.56-.42-.23-.48-.21-1.07-.72a4.43,4.43,0,0,1-.91-.86l-.75-.9a3.43,3.43,0,0,1-.76-3.29l.27-.61.53-.79-.88-1.23-.5-.92A2.87,2.87,0,0,1,59,355a3.27,3.27,0,0,1,1.87-.75,2.31,2.31,0,0,1,1.73.82l.78.89a2.69,2.69,0,0,1,.46.71,2.66,2.66,0,0,1,.13.87l-.1.62v.23l-1.07-.14-.76-.9v-.51l0-.21-.06-.21-.11,0-.16,0-.45.11-.44.21c-.72.61-.87,1.53-.44,2.79l.18.54.22.44.34-.06.38-.05h.37l.31.05.39.1.33.11.22.13V360l.11-.6a4.05,4.05,0,0,1,.85-1.93,6.25,6.25,0,0,0,.52-.52c1.63-1.36,3.09-1.29,4.36.2L72,360.76l2.22-1.85-8.91-10.66,1.17-.66,12.41,15-.93.77Zm-10.36,4.54-.15-.14-.1-.11-.73-.93-.4-.47-.41-.77-.3-.18-.24-.1a1.78,1.78,0,0,0-2,.2,1.89,1.89,0,0,0-.62,1.37l.12.51.23.55a2.57,2.57,0,0,0,.74.52l.92.5,1.18.44.62.1Z"/><path class="cls-7" d="M87.4,372.58l-9.84,10-2-1.93,6.87-7-3.08-3.05a2.51,2.51,0,0,0-.78-.51,1.3,1.3,0,0,0-1.42,0l-.6.44A7,7,0,0,0,75,373.17a7.85,7.85,0,0,0-.3,1.11c-.46,2.14-.45,3.46,0,4l-1.48,0-.84-.83c0-.11-.06-.25-.1-.44l0-1.14.09-1.82c0-.15.06-.44.14-.85,0-.14.09-.42.2-.84a8.47,8.47,0,0,1,2-3.71,3,3,0,0,1,3.12-1,2.59,2.59,0,0,1,.55.3l.41.32,4.62,4.51,2.07-2.1-7.5-7.26.48-1.36,11,10.74-.78.92Z"/><path class="cls-7" d="M93,377.35,83.86,388l-2.08-1.78,9.1-10.65-2.19-1.88.78-.92,6.46,5.52-.79.92Z"/><path class="cls-14" d="M181.16,438.07s-16.38-2-28.25-8.86l14.34-12.64c-4.3-10.11-6.48-23.07-6.48-23.07s7.53,4.8,22.73,6c11.14.89,15.3,1.14,15.3,1.14l-.63,20-2.59,20.13Z"/><path class="cls-14" d="M324.09,432.42s17.3-6.49,27.32-13.06l-15.29-11.47c3.48-10.42,4.63-23.51,4.63-23.51s-3.13,4.48-22,9.8c-10.75,3-15.15,2.34-15.15,2.34l2.2,19.92,4.17,19.86Z"/><path class="cls-15" d="M198.8,400.66,176,409.51s21,12,22.48,5.29C199.33,410.88,198.8,400.66,198.8,400.66Z"/><path class="cls-15" d="M303.56,396.52l23.46,7s-19.94,13.62-22,7C303.84,406.75,303.56,396.52,303.56,396.52Z"/><path class="cls-16" d="M178.55,449.31s73.95,21.52,148.52-5.86c0,0-.17-34.48-.05-39.91,0,0-55.93,30.32-151.06,6C176,409.51,179.86,439.41,178.55,449.31Z"/><path class="cls-7" d="M224.44,430.32l-1.28,13.95-2.73-.25,1.28-13.95-3.46-.32-.77,8.37a.5.5,0,0,1-.28.42l-.42.08-1.17-.14c-.59-.07-1.25-.6-2-1.58a4,4,0,0,1-1.06-2.37.65.65,0,0,1,.09-.29l.19-.13h.59l1.71.13.43-4.73-4.75-.44.11-1.2,16.92,1.55-.11,1.21Z"/><path class="cls-7" d="M224.41,450.94a6.39,6.39,0,0,1-1.72.13l-1.21-.07a9,9,0,0,1-3.25-1q-.69-.33-1.14-.6a8,8,0,0,1-2.1-1.55l1.08-1.2,1.18.07,1,.86.79.61.86.53a11.81,11.81,0,0,0,2.3,1,2.41,2.41,0,0,0,.9-.19,2.57,2.57,0,0,0,1.66-1.11,2,2,0,0,0,.27-.95,2.19,2.19,0,0,0-.16-.75l-.41-.62-.28-.31-.37-.2-.45.15a1.29,1.29,0,0,0-.46.27l-.69.6-1.2-.07-1.09-1.1.37-.3.8-.4a5,5,0,0,1,2.45-.5l1.15,0a2.43,2.43,0,0,1,1.25.32,2.74,2.74,0,0,1,1.55,1.75,3.33,3.33,0,0,1,.18,1.34C227.61,449.43,226.5,450.52,224.41,450.94Z"/><path class="cls-7" d="M239.45,431l-.2,5.13a3.3,3.3,0,0,1-.05.62A3.05,3.05,0,0,1,238,439a3.48,3.48,0,0,1-2.42.76l-1.18-.08a4.23,4.23,0,0,1-1.44-.26,3.44,3.44,0,0,1-2.11-3.42l.21-5.27-3.34-.08V429.4l12.91.46-.05,1.21Zm-2.74-.1-2.89-.12-.2,5.25a2.83,2.83,0,0,0,.46,1.79l.37.43a2.55,2.55,0,0,0,.49.25,1.34,1.34,0,0,0,1.06-.67l.18-.4a4.15,4.15,0,0,1,.17-.38l.16-1Z"/><path class="cls-7" d="M245.59,431.06l-.1,14-2.75,0,.11-14L240,431v-1.21l8.16.11-.71,1.23Z"/><path class="cls-7" d="M260,430.79l.4,14-2.75.08-.1-3.81-.06.09-.06.06-.93.36-.91.11h-1.18a4.34,4.34,0,0,1-4.2-2.36,4,4,0,0,1-.37-1.58,4.2,4.2,0,0,1,1-2.95,3.7,3.7,0,0,1,2.82-1.44l1.18-.06a2.08,2.08,0,0,1,.53,0l.59.08.51.1a5.67,5.67,0,0,1,1,.19l.09,1.43-.11.26,0-.16-.1-.11h0l-2.85-.52a1.9,1.9,0,0,0-1.28.8,3.16,3.16,0,0,0-.59,2,3.42,3.42,0,0,0,.77,2.16,2.07,2.07,0,0,0,.64.54l.8.27.29-.07.33-.12.29-.13.29-.18c.44-.29.71-.48.81-.56a3,3,0,0,0,.6-.75l-.22-7.7-9.79.28,0-1.21,14.43-.44.09,1.21Z"/><path class="cls-7" d="M261.9,430.71l-.09-1.21,11-.79.39,1.2Zm9.07,3.71a2.7,2.7,0,0,0-1.47.57,2.83,2.83,0,0,0-1,1.23,2.14,2.14,0,0,0-.14,1,6.16,6.16,0,0,0,2.12,3.69l.83.83,1.2,1L271.7,444l-1.17.08-1.33-1.21-1-1a7.68,7.68,0,0,1-2.47-4.4A7.06,7.06,0,0,1,266,436a3.54,3.54,0,0,0,.27-.43l.68-.79-4.15.26-.08-1.15,13.48-.95.08,1.15Z"/><path class="cls-7" d="M278.54,429.34,280,443.28l-2.73.28-1.42-13.94-2.88.29-.12-1.2,8.45-.86.12,1.2Z"/><path class="cls-7" d="M286,428.45l1.77,13.9-2.72.35-1.77-13.9-2.87.36-.15-1.2,8.43-1.07.15,1.2Z"/><path class="cls-17" d="M395.85,394.1s-12,11.09-24.79,16.12l-1-19.1c-10.58-2.93-22.08-9.3-22.08-9.3s8.71-2.41,19.13-13.55c7.63-8.16,10.41-11.26,10.41-11.26l15.29,13L407,384.53Z"/><path class="cls-17" d="M480.42,278.74s6.32-18.38,7.42-30.3l-18.5,4.82c-6-9.22-15.51-18.27-15.51-18.27s.93,6-6.68,24.15c-4.33,10.29-7.61,13.31-7.61,13.31l17,10.68,18.14,9.1Z"/><path class="cls-18" d="M377.55,357l-7.29,23.38s22.44-8.93,18.14-14.3C385.88,363,377.55,357,377.55,357Z"/><path class="cls-18" d="M439.54,272.45l20.11-14s-1.77,24.09-8.18,21.6C447.72,278.61,439.54,272.45,439.54,272.45Z"/><path class="cls-19" d="M403,403.14s55.25-29.85,87.88-119.87c0,0-27.09-21.33-31.25-24.81,0,0-11.1,62.65-89.39,121.93C370.26,380.39,396.09,396,403,403.14Z"/><path class="cls-7" d="M413.69,363.33,423.81,373l-1.89,2L418,371.29l-.4,8.19-.82.85-1.54.12.59-6.3a3.46,3.46,0,0,1-2.31,1.14,3.66,3.66,0,0,1-2.5-.71,7.85,7.85,0,0,0-.68-.57l-3.6-3.45-1.59,1.66-.88-.83,9.89-10.34.87.83Zm-1.94,2-3.12,3.26,3.75,3.59a2.45,2.45,0,0,0,2.13.81l.58-.1.52-.24a2.06,2.06,0,0,0,.3-.74l.16-1,0-.59,0-.83Z"/><path class="cls-7" d="M424.53,349.36l-1,.12-1,0-1,.1c-.14,0-.35.08-.63.13l-.63.13-2.06.54a9.33,9.33,0,0,0-3.37,1.7,1.91,1.91,0,0,0-.32.85,2.93,2.93,0,0,0,.23,2.14,4.39,4.39,0,0,0,.89,1.08l.46.37.61.34.53.24.26.07,1.68-1.94.91.81L418.49,358,429,367.28l-1.82,2.05L416.67,360,414.94,362l-.91-.81,1.79-2-.28-.09-.66-.36-.72-.4-.37-.29a3.57,3.57,0,0,1-1.06-1.34,4.33,4.33,0,0,1,.86-5l.76-.9a7,7,0,0,1,1.93-1.45,15.47,15.47,0,0,1,5.18-1.74l2.74-.41,1.22-.05,1.23-.09-.81.86Z"/><path class="cls-7" d="M428.56,346l10.82,8.91L437.63,357l-7.56-6.22-2.75,3.35a2.52,2.52,0,0,0-.45.82,1.3,1.3,0,0,0,.14,1.41l.49.56a7.06,7.06,0,0,0,2.76,1.39,8.37,8.37,0,0,0,1.13.2c2.18.27,3.49.14,3.94-.38l.17,1.47-.75.91-.43.15-1.14.13-1.81.07c-.16,0-.44,0-.87-.06-.14,0-.42-.06-.85-.13a8.46,8.46,0,0,1-3.87-1.65,3,3,0,0,1-1.3-3,3.09,3.09,0,0,1,.25-.58L425,355l4.08-5-2.28-1.88-7,8.55-.94-.77,10.5-12.76.93.77Z"/><path class="cls-7" d="M437.05,334.59l11.29,8.29-1.62,2.21-2.9-2.12,0,.17,0,.13a3.32,3.32,0,0,1-.28.82l-.45.72-.73.94a5.41,5.41,0,0,1-1.18,1.21,4.67,4.67,0,0,1-3.22.64,5.12,5.12,0,0,1-1.59-.76,3.84,3.84,0,0,1-1.64-2.71,4.19,4.19,0,0,1,.75-3.11l.67-1,1.54-1.61c.18-.24,0,.08.19,0l-.06.08.18-.05.94.69,0,.07v.05l-1.68,1.52-.12.21-.09.22,0,.13-.05.11a2.27,2.27,0,0,0-.11,1.2l4.44-1.57-5.8-4.26-5.58,7.62-1-.72,8.42-11.26,1,.64Zm.34,9.55.28.32.25.21a2.63,2.63,0,0,0,2.24.59L441,345l.71-.47.16-.51a.83.83,0,0,0,.07-.6v-.36l0-.48Z"/><path class="cls-7" d="M447.14,319l3.42,2.15L447.5,326a2.38,2.38,0,0,0-.32.78,1.66,1.66,0,0,0,.31,1.45l.71.58a3.16,3.16,0,0,0,2.88.31l1.11-.56a11.45,11.45,0,0,0,.92-.85l.11-.28.13-.33.06-.14-.24-.12a1,1,0,0,1-.37-.4c-.75-.82-.92-1.56-.51-2.24l.6-1a1.34,1.34,0,0,1,.37-.41,1.15,1.15,0,0,1,.5-.2l.52.05a1.38,1.38,0,0,1,.52.22,2.69,2.69,0,0,1,.55.46,5.72,5.72,0,0,1,.38.62,1.55,1.55,0,0,1,.15.75c0,.06-.08.27-.2.61l.51.18.35.11.83.28.75.19,3.52.72-1.49,2.37-1.79-.46-.09.46,0,.53-.36,1.24a4.34,4.34,0,0,1-.54,1.12l-.62,1a3.47,3.47,0,0,1-2.9,1.74l-.66-.07-.91-.26-.9,1.21-.73.76a2.84,2.84,0,0,1-3.89.55,3.19,3.19,0,0,1-1.3-1.54,2.32,2.32,0,0,1,.25-1.9l.6-1a3.41,3.41,0,0,1,.68-.72,1.83,1.83,0,0,1,.65-.33l.62-.1.22-.07.61.34h.22l-.09,0H449l0-.05-1.9,2.09v.1l0,.17.24.39.34.35c.8.5,1.73.36,2.79-.44L451,334l.35-.34-.15-.3L451,333c0-.07-.07-.19-.12-.36l-.05-.31,0-.4v-.34l.05-.25-.75.26-.61.07a4,4,0,0,1-2.1-.2,6.76,6.76,0,0,0-.65-.35c-1.8-1.12-2.19-2.53-1.16-4.2l2.52-4.07-2.45-1.53-7.39,11.76-1-.64,10.49-16.71,1,.64Zm7.51,8.45-.09.19-.08.12-.65,1-.33.53-.6.63-.08.34,0,.26a1.79,1.79,0,0,0,.79,1.79,1.89,1.89,0,0,0,1.5.17l.45-.28.44-.38a2.33,2.33,0,0,0,.27-.87l.2-1,.06-1.25-.1-.62Z"/><path class="cls-7" d="M454.69,304.6,467.18,311l-1.24,2.45L457.21,309l-2,3.86a2.33,2.33,0,0,0-.25.9,1.31,1.31,0,0,0,.43,1.35l.61.44a7.12,7.12,0,0,0,3,.76,9.82,9.82,0,0,0,1.15,0c2.18-.21,3.43-.62,3.76-1.23l0,2.52h0c-.09.06-.24.07-.4.17l-1.08.38-1.76.46-.86.12c-.14,0-.42,0-.86.06a8.49,8.49,0,0,1-4.13-.77,3,3,0,0,1-1.92-2.67,2.49,2.49,0,0,1,.11-.62c.05-.14.11-.3.19-.48l2.9-5.78-2.63-1.33-5,9.86-1.07-.55,7.48-14.73,1.08.55Z"/><path class="cls-7" d="M457.55,297.86l12.91,5.44-1.07,2.53-12.91-5.45-1.12,2.67-1.11-.47,3.3-7.83,1.11.47Z"/></g></svg>