<?xml version="1.0"?>
<svg xmlns="http://www.w3.org/2000/svg" id="Layer_1" data-name="Layer 1" viewBox="0 0 512 512" width="512" height="512"><title>Search</title><path d="M219.12,326.88l-52.69,17.09a37.521,37.521,0,0,0-24.78,25.46l-.36,1.41a35.662,35.662,0,0,0-.85,8.04v20.57a185.885,185.885,0,0,1-20.24-17.53c-72.27-72.27-72.27-189.45,0-261.72s189.45-72.27,261.72,0,72.27,189.45,0,261.72a185.885,185.885,0,0,1-20.24,17.53V378.88a35.662,35.662,0,0,0-.85-8.04q-.165-.7-.36-1.41a37.5,37.5,0,0,0-24.78-25.46L283,326.88l-.07-.02V297.98a66.725,66.725,0,0,0,33.75-46.34l3.71-12.76v-.11a18,18,0,0,0,14.89-17.74,17.81,17.81,0,0,0-.52-4.29,13.557,13.557,0,0,0-12.03-10.32V169.98a71.655,71.655,0,0,0-143.31,0v36.44a13.556,13.556,0,0,0-12.06,10.32,17.81,17.81,0,0,0-.52,4.29,18.027,18.027,0,0,0,14.89,17.74v.11l3.71,12.76a66.837,66.837,0,0,0,33.75,46.34v28.88Z" style="fill:#6fe3ff"/><path d="M361.68,378.88v20.57a185.165,185.165,0,0,1-221.24,0V378.88a35.662,35.662,0,0,1,.85-8.04l.36-1.41a37.521,37.521,0,0,1,24.78-25.46l52.69-17.09a67.078,67.078,0,0,0,63.88,0l52.69,17.09a37.5,37.5,0,0,1,24.78,25.46q.195.7.36,1.41A35.662,35.662,0,0,1,361.68,378.88Z" style="fill:#e48e66"/><path d="M282.93,297.98a66.776,66.776,0,0,1-97.49-46.34l-3.71-12.76v-.11a18.027,18.027,0,0,1-14.89-17.74,17.81,17.81,0,0,1,.52-4.29,13.556,13.556,0,0,1,12.06-10.32v.42A9.584,9.584,0,0,0,193.9,199l1.18-26.01a215.151,215.151,0,0,0,25.36-.64c41.07,36.59,102.29,34.23,102.29,34.23v-.16a13.557,13.557,0,0,1,12.03,10.32,18.01,18.01,0,0,1-3.75,15.94,18.014,18.014,0,0,1-10.62,6.09v.11l-3.71,12.76A66.725,66.725,0,0,1,282.93,297.98Z" style="fill:#f7caa5"/><path d="M322.73,206.42v.16s-61.22,2.36-102.29-34.23a212.22,212.22,0,0,0,38.48-6.46s20.2,26,63.81,28.8Z" style="fill:#3b484c"/><path d="M220.44,172.35a215.151,215.151,0,0,1-25.36.64L193.9,199a9.584,9.584,0,0,1-14.48,7.84V169.98a71.655,71.655,0,1,1,143.31,0v24.71c-43.61-2.8-63.81-28.8-63.81-28.8A212.22,212.22,0,0,1,220.44,172.35Z" style="fill:#6d7375"/><path d="M282.93,326.86l.07.02a67.078,67.078,0,0,1-63.88,0l.07-.02V297.98a66.82,66.82,0,0,0,63.74,0Z" style="fill:#edb288"/><path d="M387.577,114.543c-75.276-75.275-197.759-75.274-273.034,0a193.067,193.067,0,0,0,0,273.034,194.668,194.668,0,0,0,21.107,18.281,193.165,193.165,0,0,0,230.815,0A193.651,193.651,0,0,0,381.8,393.113l58.543,58.544a8,8,0,0,0,11.314-11.314l-58.55-58.549C462.792,306.154,460.957,187.923,387.577,114.543Zm-261.72,11.314a177.068,177.068,0,0,1,250.406,0c68.643,68.642,69.023,180.079,1.165,249.211a7.994,7.994,0,0,0-2.342,2.33q-3.129,3.073-6.406,5.984v-4.5a42.312,42.312,0,0,0-1.035-9.638c-.131-.56-.274-1.12-.425-1.666a44.316,44.316,0,0,0-29.37-30.264l-47.92-15.543V302A73.462,73.462,0,0,0,323.5,253.275l2.567-8.83A24.994,24.994,0,0,0,342.28,221.03a24.726,24.726,0,0,0-.721-5.953,20.361,20.361,0,0,0-11.829-14.014V169.98a78.655,78.655,0,1,0-157.31,0v31.074a20.32,20.32,0,0,0-11.854,14,25.016,25.016,0,0,0,15.5,29.4l2.565,8.821a73.614,73.614,0,0,0,33.564,48.712v19.781l-47.922,15.543A44.326,44.326,0,0,0,134.9,367.576l-.033.123-.36,1.41c-.013.051-.025.1-.037.155a42.261,42.261,0,0,0-1.03,9.616v4.5c-2.587-2.3-5.13-4.666-7.583-7.119C56.82,307.226,56.82,194.894,125.857,125.857Zm48.3,92.544A6.335,6.335,0,0,1,178,213.927a16.563,16.563,0,0,0,22.892-14.61l.871-19.2c4.054,0,9.658-.124,16.286-.571,42.576,35.994,102.382,34.132,104.95,34.031.02,0,.04,0,.061-.006a6.473,6.473,0,0,1,4.905,4.858,10.773,10.773,0,0,1,.314,2.6,11,11,0,0,1-9.1,10.845,7,7,0,0,0-5.67,5.585l-3.555,12.226q-.095.327-.158.663a59.77,59.77,0,0,1-117.481,0q-.063-.333-.157-.659l-3.555-12.226a7,7,0,0,0-5.669-5.585A11.006,11.006,0,0,1,174.16,218.4Zm82.407-44.681c5.95,6.072,20.338,18.343,44.038,24.507-16.9-2.129-40.881-7.5-62-20.933Q247.974,175.857,256.567,173.72Zm59.163,13.242c-21.255-2.867-35.512-11.491-43.5-17.907a110.76,110.76,0,0,0,30.418-15.98,7,7,0,0,0-8.518-11.11c-9.5,7.28-21.947,13.053-37.01,17.16l-.035.01-.011,0a203.073,203.073,0,0,1-36.868,6.208q-.327.012-.651.052a210.974,210.974,0,0,1-24.114.6,7,7,0,0,0-7.355,6.673l-1.18,26a2.551,2.551,0,0,1-.487,1.427V169.98a64.655,64.655,0,1,1,129.31,0ZM226.19,308.751a73.764,73.764,0,0,0,49.74,0v13.83a59.8,59.8,0,0,1-49.74,0Zm-78.75,85.91V378.88a28.569,28.569,0,0,1,.654-6.391l.322-1.263a30.371,30.371,0,0,1,20.174-20.6l49.926-16.194a73.713,73.713,0,0,0,65.088,0l49.926,16.193A30.366,30.366,0,0,1,353.724,371.3c.105.379.2.759.286,1.117a28.5,28.5,0,0,1,.67,6.464v15.781a177.16,177.16,0,0,1-207.24,0Z" style="fill:#63316d"/></svg>
