<svg xmlns="http://www.w3.org/2000/svg" viewBox="0 0 100 100"><defs><style>.cls-1{fill:none;stroke:#000;stroke-linecap:round;stroke-linejoin:round;stroke-width:5px;}</style></defs><title>up_projects_co</title><g id="Layer_1" data-name="Layer 1"><path class="cls-1" d="M39.55,50.09a16.3,16.3,0,0,1-4.67-5.44C32,39,31.84,33.37,35,27.85a16.09,16.09,0,0,1,12.51-8.24A17,17,0,0,1,60,49.72c-.45.37-.45.36.11.61a25.72,25.72,0,0,1,11.34,9.73,26.92,26.92,0,0,1,4.1,11.08,22.9,22.9,0,0,1,.22,3.51,6.54,6.54,0,0,1-2.45,4.93,18.84,18.84,0,0,1-6.93,3.64A50.35,50.35,0,0,1,55,85.32a69.64,69.64,0,0,1-11.28,0,44.71,44.71,0,0,1-13.41-3,17.23,17.23,0,0,1-4-2.27,7.29,7.29,0,0,1-3-6.71,27.41,27.41,0,0,1,4.08-12.9A25.74,25.74,0,0,1,39,50.37Z"/><path class="cls-1" d="M13.86,74.83a17.59,17.59,0,0,1-5.81-2.47,5.07,5.07,0,0,1-2.36-4.83A18.83,18.83,0,0,1,15,51.8a17.62,17.62,0,0,1,2.61-1.29,12.66,12.66,0,0,1-4-5.11A12.41,12.41,0,0,1,25,28.07"/><path class="cls-1" d="M85.33,74.83a17.73,17.73,0,0,0,5.82-2.47,5.11,5.11,0,0,0,2.36-4.83A18.86,18.86,0,0,0,84.2,51.8a18.25,18.25,0,0,0-2.62-1.29,12.58,12.58,0,0,0,4-5.11A12.4,12.4,0,0,0,74.21,28.07"/></g></svg>