<svg xmlns="http://www.w3.org/2000/svg" viewBox="0 0 100 100"><defs><style>.cls-1{fill:none;stroke:#fff;stroke-linecap:round;stroke-linejoin:round;stroke-width:5px;}</style></defs><title>up_projects_co</title><g id="Layer_1" data-name="Layer 1"><path class="cls-1" d="M51.17,20.71c10.59,0,21.19,0,31.78,0,6.34,0,9.33,2.93,9.35,9.18q.06,17.77,0,35.56c0,5.79-3.33,9-9.21,9.07-11.1,0-22.2.1-33.29,0a7.46,7.46,0,0,0-6.18,2.7C39.53,81.65,35.23,85.92,31,90.25c-1,1-1.95,2.25-3.53,1.6s-1.22-2.32-1.24-3.65c0-3.65-.14-7.32,0-11,.1-2.22-.74-2.89-2.83-2.72a40.59,40.59,0,0,1-5.29,0C13,74.28,9.68,71,9.66,65.85q-.09-18.34,0-36.69c0-5.15,3.35-8.4,8.6-8.43C29.23,20.67,40.2,20.71,51.17,20.71ZM28.4,53.84a6.59,6.59,0,0,0,6.08-6.47A6.55,6.55,0,0,0,28,41.29,6.57,6.57,0,0,0,22,47.74,6.57,6.57,0,0,0,28.4,53.84Zm28.84-6.43a6.47,6.47,0,0,0-6.39-6.11,6.6,6.6,0,0,0-6.15,6.4,6.62,6.62,0,0,0,6.43,6.14A6.57,6.57,0,0,0,57.24,47.41ZM80,47.72a6.27,6.27,0,1,0-12.53-.33,6.56,6.56,0,0,0,6.09,6.46A6.64,6.64,0,0,0,80,47.72Z"/></g></svg>