<?xml version="1.0" encoding="utf-8"?>
<!-- Generator: Adobe Illustrator 16.0.0, SVG Export Plug-In . SVG Version: 6.00 Build 0)  -->
<!DOCTYPE svg PUBLIC "-//W3C//DTD SVG 1.1//EN" "http://www.w3.org/Graphics/SVG/1.1/DTD/svg11.dtd">
<svg version="1.1" id="Layer_1" xmlns="http://www.w3.org/2000/svg" xmlns:xlink="http://www.w3.org/1999/xlink" x="0px" y="0px"
	 width="40px" height="40px" viewBox="0 0 40 40" enable-background="new 0 0 40 40" xml:space="preserve">
<title>Group</title>
<desc>Created with Sketch.</desc>
<g>
	<path fill="#FFFFFF" d="M3.7,14.391v4.896c0,0.56,0.126,0.988,0.378,1.283c0.252,0.297,0.618,0.445,1.098,0.445
		s0.846-0.148,1.098-0.445c0.252-0.295,0.378-0.723,0.378-1.283v-4.896h2.052v4.896c0,0.8-0.156,1.475-0.468,2.021
		c-0.312,0.549-0.738,0.961-1.278,1.236s-1.15,0.414-1.83,0.414s-1.28-0.136-1.8-0.408c-0.52-0.271-0.928-0.684-1.224-1.236
		c-0.296-0.551-0.444-1.228-0.444-2.027v-4.896H3.7z"/>
	<path fill="#FFFFFF" d="M12.124,19.899v2.976h-2.052v-8.484h3.324c1.008,0,1.776,0.25,2.304,0.75s0.792,1.174,0.792,2.022
		c0,0.528-0.118,0.998-0.354,1.41s-0.586,0.736-1.05,0.972c-0.464,0.236-1.028,0.354-1.692,0.354H12.124z M14.404,17.163
		c0-0.744-0.412-1.116-1.236-1.116h-1.044v2.208h1.044C13.992,18.255,14.404,17.891,14.404,17.163z"/>
	<path fill="#FFFFFF" d="M19.552,19.899v2.976H17.5v-8.484h3.324c1.008,0,1.775,0.25,2.304,0.75s0.792,1.174,0.792,2.022
		c0,0.528-0.118,0.998-0.354,1.41c-0.236,0.412-0.587,0.736-1.051,0.972c-0.464,0.236-1.027,0.354-1.691,0.354H19.552z
		 M21.832,17.163c0-0.744-0.412-1.116-1.236-1.116h-1.044v2.208h1.044C21.42,18.255,21.832,17.891,21.832,17.163z"/>
	<path fill="#FFFFFF" d="M31.485,15.159c0.708,0.568,1.166,1.336,1.374,2.304h-2.172c-0.16-0.392-0.406-0.7-0.737-0.924
		c-0.333-0.224-0.727-0.336-1.183-0.336c-0.6,0-1.084,0.22-1.452,0.66c-0.368,0.44-0.552,1.028-0.552,1.764
		c0,0.736,0.184,1.322,0.552,1.758c0.368,0.437,0.853,0.654,1.452,0.654c0.456,0,0.85-0.111,1.183-0.336
		c0.331-0.224,0.577-0.528,0.737-0.912h2.172c-0.208,0.96-0.666,1.727-1.374,2.298c-0.708,0.572-1.602,0.858-2.682,0.858
		c-0.824,0-1.548-0.182-2.172-0.547c-0.624-0.363-1.106-0.873-1.446-1.529c-0.34-0.656-0.51-1.404-0.51-2.244s0.17-1.588,0.51-2.244
		c0.34-0.656,0.822-1.166,1.446-1.53c0.624-0.364,1.348-0.546,2.172-0.546C29.884,14.307,30.777,14.591,31.485,15.159z"/>
	<path fill="#FFFFFF" d="M36.063,21.303H38.8v1.572h-4.788v-8.484h2.052V21.303z"/>
</g>
</svg>
