<?xml version="1.0" encoding="utf-8"?>
<!-- Generator: Adobe Illustrator 16.0.0, SVG Export Plug-In . SVG Version: 6.00 Build 0)  -->
<!DOCTYPE svg PUBLIC "-//W3C//DTD SVG 1.1//EN" "http://www.w3.org/Graphics/SVG/1.1/DTD/svg11.dtd">
<svg version="1.1" id="Layer_1" xmlns="http://www.w3.org/2000/svg" xmlns:xlink="http://www.w3.org/1999/xlink" x="0px" y="0px"
	 width="512px" height="512px" viewBox="0 0 512 512" enable-background="new 0 0 512 512" xml:space="preserve">
<path fill="#E6E6FF" d="M416,512H96c-53.023,0-96-42.977-96-96V96C0,42.977,42.977,0,96,0h320c53.023,0,96,42.977,96,96v320
	C512,469.023,469.023,512,416,512z"/>
<path fill="#7D9CFF" d="M288,202.672c-5.887,0-10.672-4.77-10.672-10.672v-32c0-5.887-4.785-10.672-10.672-10.672H152
	c-5.887,0-10.672-4.77-10.672-10.672S146.098,128,152,128h114.672c17.648,0,32,14.352,32,32v32
	C298.672,197.887,293.902,202.672,288,202.672z"/>
<path fill="#7D9CFF" d="M266.672,352h-37.328c-5.887,0-10.672-4.77-10.672-10.672c0-5.887,4.77-10.672,10.672-10.672h37.328
	c5.887,0,10.672-4.785,10.672-10.672v-42.672c0-5.887,4.77-10.672,10.672-10.672c5.887,0,10.672,4.766,10.672,10.672V320
	C298.672,337.648,284.32,352,266.672,352z"/>
<g>
	<path fill="#3956F0" d="M220.129,150.367l-64.176-21.375c-2.145-0.672-4.32-0.992-6.625-0.992C137.566,128,128,137.566,128,149.328
		v192c0,9.086,5.793,17.23,14.527,20.289l64.242,21.406c2.191,0.672,4.336,0.977,6.559,0.977c11.762,0,21.328-9.566,21.328-21.328
		v-192C234.672,161.551,228.863,153.406,220.129,150.367z"/>
	<path fill="#3956F0" d="M326.574,287.184c-3.98-1.648-6.574-5.535-6.574-9.855v-32h-42.672c-5.887,0-10.672-4.785-10.672-10.672
		S271.441,224,277.328,224H320v-32c0-4.32,2.594-8.207,6.574-9.855c3.984-1.648,8.578-0.738,11.633,2.32l42.672,42.672
		c4.16,4.16,4.16,10.91,0,15.086l-42.672,42.672C335.152,287.922,330.574,288.832,326.574,287.184z"/>
</g>
</svg>
