<?xml version="1.0" encoding="utf-8"?>
<!-- Generator: Adobe Illustrator 16.0.0, SVG Export Plug-In . SVG Version: 6.00 Build 0)  -->
<!DOCTYPE svg PUBLIC "-//W3C//DTD SVG 1.1//EN" "http://www.w3.org/Graphics/SVG/1.1/DTD/svg11.dtd">
<svg version="1.1" id="Layer_1" xmlns="http://www.w3.org/2000/svg" xmlns:xlink="http://www.w3.org/1999/xlink" x="0px" y="0px"
	 width="179px" height="40px" viewBox="0 0 179 40" enable-background="new 0 0 179 40" xml:space="preserve">
<title>Group 7</title>
<desc>Created with Sketch.</desc>
<g>
	<path fill="#FFFFFF" d="M32.976,3.139v7.344c0,0.84,0.189,1.482,0.567,1.926c0.378,0.444,0.927,0.666,1.647,0.666
		c0.72,0,1.269-0.222,1.647-0.666c0.378-0.444,0.567-1.086,0.567-1.926V3.139h3.078v7.344c0,1.2-0.234,2.211-0.702,3.033
		c-0.468,0.821-1.107,1.439-1.917,1.854s-1.725,0.621-2.745,0.621s-1.92-0.204-2.7-0.612c-0.78-0.407-1.393-1.025-1.836-1.854
		s-0.666-1.842-0.666-3.042V3.139H32.976z"/>
	<path fill="#FFFFFF" d="M45.612,11.401v4.464h-3.078V3.139h4.986c1.512,0,2.664,0.375,3.456,1.125
		c0.792,0.75,1.188,1.761,1.188,3.033c0,0.792-0.177,1.497-0.531,2.115c-0.354,0.618-0.879,1.104-1.575,1.458
		c-0.696,0.354-1.542,0.531-2.538,0.531H45.612z M49.032,7.297c0-1.116-0.618-1.674-1.854-1.674h-1.566v3.312h1.566
		C48.414,8.935,49.032,8.389,49.032,7.297z"/>
	<path fill="#FFFFFF" d="M60.354,11.401v4.464h-3.078V3.139h4.986c1.512,0,2.664,0.375,3.456,1.125
		c0.792,0.75,1.188,1.761,1.188,3.033c0,0.792-0.177,1.497-0.531,2.115c-0.354,0.618-0.879,1.104-1.575,1.458
		c-0.696,0.354-1.542,0.531-2.538,0.531H60.354z M63.774,7.297c0-1.116-0.618-1.674-1.854-1.674h-1.566v3.312h1.566
		C63.156,8.935,63.774,8.389,63.774,7.297z"/>
	<path fill="#FFFFFF" d="M74.952,15.865l-2.754-4.806h-0.702v4.806h-3.078V3.139h5.256c1.008,0,1.86,0.174,2.556,0.522
		c0.696,0.348,1.218,0.825,1.566,1.431s0.522,1.299,0.522,2.079c0,0.924-0.255,1.71-0.765,2.358
		c-0.51,0.648-1.251,1.092-2.223,1.332l3.024,5.004H74.952z M71.496,8.953h1.908c0.612,0,1.062-0.135,1.35-0.405
		s0.432-0.669,0.432-1.197c0-0.504-0.147-0.9-0.441-1.188c-0.294-0.288-0.741-0.432-1.341-0.432h-1.908V8.953z"/>
	<path fill="#FFFFFF" d="M89.18,3.778c0.978,0.558,1.75,1.332,2.313,2.322c0.564,0.99,0.847,2.109,0.847,3.357
		c0,1.249-0.285,2.37-0.855,3.366s-1.344,1.773-2.322,2.331c-0.978,0.558-2.061,0.837-3.249,0.837s-2.271-0.279-3.249-0.837
		s-1.752-1.335-2.322-2.331c-0.57-0.996-0.855-2.118-0.855-3.366c0-1.248,0.285-2.367,0.855-3.357
		c0.57-0.99,1.344-1.764,2.322-2.322s2.061-0.837,3.249-0.837C87.113,2.941,88.202,3.22,89.18,3.778z M83.51,6.784
		c-0.594,0.654-0.891,1.545-0.891,2.673c0,1.116,0.297,2.004,0.891,2.664c0.594,0.66,1.395,0.99,2.403,0.99
		c0.996,0,1.794-0.33,2.394-0.99c0.6-0.66,0.9-1.548,0.9-2.664c0-1.116-0.297-2.004-0.891-2.664c-0.594-0.66-1.395-0.99-2.403-0.99
		C84.905,5.803,84.104,6.13,83.51,6.784z"/>
	<path fill="#FFFFFF" d="M101.916,3.139v8.694c0,1.332-0.363,2.358-1.09,3.078c-0.726,0.72-1.73,1.08-3.015,1.08
		c-1.393,0-2.496-0.393-3.312-1.179c-0.816-0.786-1.225-1.917-1.225-3.393h3.042c0,1.188,0.45,1.782,1.351,1.782
		c0.779,0,1.17-0.456,1.17-1.368V3.139H101.916z"/>
	<path fill="#FFFFFF" d="M107.027,5.587v2.664h4.302v2.322h-4.302v2.826h4.842v2.466h-7.92V3.139h7.92v2.448H107.027z"/>
	<path fill="#FFFFFF" d="M123.452,4.291c1.062,0.853,1.749,2.004,2.061,3.456h-3.258c-0.24-0.588-0.609-1.05-1.106-1.386
		c-0.499-0.336-1.09-0.504-1.773-0.504c-0.9,0-1.626,0.33-2.178,0.99c-0.553,0.66-0.828,1.542-0.828,2.646
		c0,1.104,0.275,1.983,0.828,2.637c0.552,0.654,1.277,0.981,2.178,0.981c0.684,0,1.274-0.168,1.773-0.504
		c0.497-0.336,0.866-0.792,1.106-1.368h3.258c-0.312,1.439-0.999,2.589-2.061,3.447c-1.063,0.857-2.403,1.287-4.023,1.287
		c-1.235,0-2.321-0.273-3.258-0.819c-0.936-0.546-1.659-1.311-2.169-2.295c-0.51-0.984-0.765-2.106-0.765-3.366
		c0-1.26,0.255-2.382,0.765-3.366s1.233-1.749,2.169-2.295c0.937-0.546,2.022-0.819,3.258-0.819
		C121.049,3.013,122.39,3.439,123.452,4.291z"/>
	<path fill="#FFFFFF" d="M136.385,3.139v2.448h-3.456v10.278h-3.096V5.587h-3.42V3.139H136.385z"/>
	<path fill="#FFFFFF" d="M146.312,14.138c-0.342,0.563-0.846,1.014-1.512,1.35s-1.474,0.504-2.422,0.504
		c-1.428,0-2.604-0.348-3.527-1.044c-0.925-0.696-1.429-1.668-1.512-2.916h3.275c0.048,0.479,0.219,0.858,0.513,1.134
		c0.294,0.276,0.669,0.414,1.125,0.414c0.396,0,0.708-0.107,0.937-0.324c0.228-0.216,0.342-0.504,0.342-0.863
		c0-0.324-0.105-0.594-0.314-0.811c-0.211-0.216-0.472-0.393-0.783-0.531c-0.313-0.138-0.744-0.303-1.296-0.495
		c-0.805-0.276-1.461-0.543-1.972-0.801c-0.51-0.258-0.947-0.642-1.313-1.152c-0.366-0.51-0.549-1.173-0.549-1.989
		c0-0.756,0.191-1.41,0.575-1.962c0.385-0.552,0.915-0.975,1.594-1.269c0.678-0.294,1.455-0.441,2.331-0.441
		c1.415,0,2.54,0.336,3.375,1.008c0.834,0.672,1.305,1.596,1.413,2.772h-3.33c-0.061-0.42-0.214-0.753-0.459-0.999
		c-0.246-0.246-0.579-0.369-0.999-0.369c-0.36,0-0.651,0.096-0.873,0.288c-0.223,0.192-0.333,0.474-0.333,0.846
		c0,0.3,0.099,0.555,0.297,0.765s0.446,0.381,0.747,0.513c0.3,0.132,0.731,0.3,1.296,0.504c0.815,0.276,1.481,0.549,1.998,0.819
		c0.516,0.27,0.96,0.663,1.332,1.179c0.372,0.516,0.558,1.188,0.558,2.016C146.824,12.955,146.653,13.573,146.312,14.138z"/>
	<path fill="#FFFFFF" d="M14.617,25.891c1.062,0.853,1.749,2.005,2.061,3.456H13.42c-0.24-0.588-0.609-1.05-1.107-1.386
		c-0.499-0.336-1.089-0.504-1.773-0.504c-0.9,0-1.626,0.33-2.178,0.99c-0.552,0.66-0.828,1.542-0.828,2.646
		c0,1.104,0.276,1.983,0.828,2.637c0.552,0.654,1.278,0.981,2.178,0.981c0.684,0,1.275-0.168,1.773-0.504
		c0.498-0.336,0.867-0.792,1.107-1.368h3.258c-0.312,1.44-0.999,2.589-2.061,3.447c-1.062,0.857-2.403,1.287-4.023,1.287
		c-1.236,0-2.322-0.273-3.258-0.819s-1.659-1.311-2.169-2.295c-0.51-0.984-0.765-2.106-0.765-3.366s0.255-2.382,0.765-3.366
		c0.51-0.983,1.233-1.748,2.169-2.295c0.936-0.546,2.022-0.818,3.258-0.818C12.214,24.613,13.555,25.039,14.617,25.891z"/>
	<path fill="#FFFFFF" d="M27.721,25.378c0.978,0.558,1.749,1.332,2.313,2.322c0.564,0.989,0.846,2.108,0.846,3.356
		s-0.285,2.37-0.855,3.366c-0.57,0.996-1.344,1.773-2.322,2.331s-2.061,0.837-3.249,0.837s-2.271-0.279-3.249-0.837
		s-1.752-1.335-2.322-2.331c-0.57-0.996-0.855-2.118-0.855-3.366s0.285-2.367,0.855-3.356c0.57-0.99,1.344-1.765,2.322-2.322
		s2.061-0.837,3.249-0.837C25.654,24.541,26.743,24.82,27.721,25.378z M22.051,28.384c-0.594,0.654-0.891,1.545-0.891,2.673
		c0,1.116,0.297,2.004,0.891,2.664c0.594,0.66,1.395,0.99,2.403,0.99c0.996,0,1.794-0.33,2.394-0.99s0.9-1.548,0.9-2.664
		s-0.297-2.004-0.891-2.664c-0.594-0.659-1.395-0.989-2.403-0.989C23.446,27.403,22.645,27.729,22.051,28.384z"/>
	<path fill="#FFFFFF" d="M39.142,37.465l-2.754-4.806h-0.702v4.806h-3.078V24.739h5.256c1.008,0,1.86,0.174,2.556,0.521
		c0.696,0.349,1.218,0.825,1.566,1.431c0.348,0.606,0.522,1.3,0.522,2.079c0,0.925-0.255,1.71-0.765,2.358
		c-0.51,0.647-1.251,1.092-2.223,1.332l3.024,5.004H39.142z M35.686,30.553h1.908c0.612,0,1.062-0.135,1.35-0.405
		c0.288-0.27,0.432-0.668,0.432-1.196c0-0.504-0.147-0.9-0.441-1.188c-0.294-0.288-0.741-0.432-1.341-0.432h-1.908V30.553z"/>
	<path fill="#FFFFFF" d="M47.134,33.001v4.464h-3.078V24.739h4.986c1.512,0,2.664,0.375,3.456,1.125s1.188,1.761,1.188,3.032
		c0,0.792-0.177,1.497-0.531,2.115c-0.354,0.618-0.879,1.104-1.575,1.458c-0.696,0.354-1.542,0.531-2.538,0.531H47.134z
		 M50.554,28.896c0-1.115-0.618-1.674-1.854-1.674h-1.566v3.313H48.7C49.936,30.535,50.554,29.989,50.554,28.896z"/>
	<path fill="#FFFFFF" d="M64.512,25.378c0.978,0.558,1.749,1.332,2.313,2.322c0.564,0.989,0.846,2.108,0.846,3.356
		s-0.285,2.37-0.855,3.366c-0.57,0.996-1.344,1.773-2.322,2.331s-2.061,0.837-3.249,0.837s-2.271-0.279-3.249-0.837
		s-1.752-1.335-2.322-2.331c-0.57-0.996-0.855-2.118-0.855-3.366s0.285-2.367,0.855-3.356c0.57-0.99,1.344-1.765,2.322-2.322
		s2.061-0.837,3.249-0.837C62.445,24.541,63.534,24.82,64.512,25.378z M58.842,28.384c-0.594,0.654-0.891,1.545-0.891,2.673
		c0,1.116,0.297,2.004,0.891,2.664c0.594,0.66,1.395,0.99,2.403,0.99c0.996,0,1.794-0.33,2.394-0.99s0.9-1.548,0.9-2.664
		s-0.297-2.004-0.891-2.664c-0.594-0.659-1.395-0.989-2.403-0.989C60.237,27.403,59.436,27.729,58.842,28.384z"/>
	<path fill="#FFFFFF" d="M75.933,37.465l-2.754-4.806h-0.702v4.806h-3.078V24.739h5.256c1.008,0,1.86,0.174,2.556,0.521
		c0.696,0.349,1.218,0.825,1.566,1.431c0.348,0.606,0.522,1.3,0.522,2.079c0,0.925-0.255,1.71-0.765,2.358
		c-0.51,0.647-1.251,1.092-2.223,1.332l3.024,5.004H75.933z M72.477,30.553h1.908c0.612,0,1.062-0.135,1.35-0.405
		c0.288-0.27,0.432-0.668,0.432-1.196c0-0.504-0.147-0.9-0.441-1.188c-0.294-0.288-0.741-0.432-1.341-0.432h-1.908V30.553z"/>
	<path fill="#FFFFFF" d="M88.73,35.143h-4.77l-0.792,2.322h-3.24l4.662-12.636h3.546l4.662,12.636h-3.276L88.73,35.143z
		 M87.938,32.803l-1.584-4.68l-1.602,4.68H87.938z"/>
	<path fill="#FFFFFF" d="M103.131,24.739v2.447h-3.456v10.278h-3.096V27.187h-3.42v-2.447H103.131z"/>
	<path fill="#FFFFFF" d="M107.505,24.739v12.726h-3.078V24.739H107.505z"/>
	<path fill="#FFFFFF" d="M118.943,25.378c0.979,0.558,1.749,1.332,2.313,2.322c0.563,0.989,0.846,2.108,0.846,3.356
		s-0.285,2.37-0.854,3.366c-0.57,0.996-1.345,1.773-2.322,2.331c-0.979,0.558-2.062,0.837-3.249,0.837
		c-1.188,0-2.271-0.279-3.249-0.837c-0.979-0.558-1.752-1.335-2.322-2.331s-0.854-2.118-0.854-3.366s0.284-2.367,0.854-3.356
		c0.57-0.99,1.344-1.765,2.322-2.322c0.978-0.558,2.061-0.837,3.249-0.837C116.876,24.541,117.966,24.82,118.943,25.378z
		 M113.273,28.384c-0.594,0.654-0.891,1.545-0.891,2.673c0,1.116,0.297,2.004,0.891,2.664s1.396,0.99,2.403,0.99
		c0.996,0,1.794-0.33,2.394-0.99c0.601-0.66,0.9-1.548,0.9-2.664s-0.297-2.004-0.891-2.664c-0.595-0.659-1.396-0.989-2.403-0.989
		S113.867,27.729,113.273,28.384z"/>
	<path fill="#FFFFFF" d="M135.135,37.465h-3.078l-5.148-7.812v7.812h-3.078V24.739h3.078l5.148,7.884v-7.884h3.078V37.465z"/>
	<path fill="#FFFFFF" d="M143.937,35.106h4.104v2.358h-7.182V24.739h3.078V35.106z"/>
	<path fill="#FFFFFF" d="M158.606,24.739v2.447h-3.456v10.278h-3.097V27.187h-3.42v-2.447H158.606z"/>
	<path fill="#FFFFFF" d="M170.549,34.396c-0.534,0.967-1.303,1.72-2.305,2.26s-2.181,0.81-3.536,0.81h-4.807V24.739h4.807
		c1.367,0,2.55,0.264,3.546,0.792c0.995,0.527,1.761,1.271,2.295,2.231c0.533,0.96,0.801,2.064,0.801,3.313
		S171.082,33.43,170.549,34.396z M167.236,33.757c0.666-0.636,0.999-1.53,0.999-2.682c0-1.152-0.333-2.046-0.999-2.683
		c-0.666-0.636-1.599-0.954-2.799-0.954h-1.458v7.272h1.458C165.638,34.711,166.57,34.393,167.236,33.757z"/>
	<path fill="#FFFFFF" d="M175.741,34.387v3.078h-3.186v-3.078H175.741z"/>
</g>
</svg>
