<?xml version="1.0" encoding="utf-8"?>
<!-- Generator: Adobe Illustrator 16.0.0, SVG Export Plug-In . SVG Version: 6.00 Build 0)  -->
<!DOCTYPE svg PUBLIC "-//W3C//DTD SVG 1.1//EN" "http://www.w3.org/Graphics/SVG/1.1/DTD/svg11.dtd">
<svg version="1.1" id="Layer_1" xmlns="http://www.w3.org/2000/svg" xmlns:xlink="http://www.w3.org/1999/xlink" x="0px" y="0px"
	 width="512px" height="512px" viewBox="0 0 512 512" enable-background="new 0 0 512 512" xml:space="preserve">
<path fill="#E6E6FF" d="M416,512H96c-53.023,0-96-42.977-96-96V96C0,42.977,42.977,0,96,0h320c53.023,0,96,42.977,96,96v320
	C512,469.023,469.023,512,416,512z"/>
<path fill="#3956F0" d="M352,248v112c0,13.23-10.77,24-24,24H184c-13.23,0-24-10.77-24-24V248c0-13.23,10.77-24,24-24h144
	C341.23,224,352,234.77,352,248z"/>
<path fill="#7D9CFF" d="M320,192c0,5.871-4.801,10.672-10.672,10.672s-10.672-4.801-10.672-10.672
	c0-23.566-19.09-42.672-42.672-42.672c-23.586,0-42.656,19.105-42.656,42.672v32H192v-32c0-35.313,28.688-64,64-64
	S320,156.688,320,192z"/>
</svg>
