<?xml version="1.0" encoding="utf-8"?>
<!-- Generator: Adobe Illustrator 16.0.0, SVG Export Plug-In . SVG Version: 6.00 Build 0)  -->
<!DOCTYPE svg PUBLIC "-//W3C//DTD SVG 1.1//EN" "http://www.w3.org/Graphics/SVG/1.1/DTD/svg11.dtd">
<svg version="1.1" id="Layer_1" xmlns="http://www.w3.org/2000/svg" xmlns:xlink="http://www.w3.org/1999/xlink" x="0px" y="0px"
	 width="512px" height="512px" viewBox="0 0 512 512" enable-background="new 0 0 512 512" xml:space="preserve">
<path fill="#E6E6FF" d="M416,512H96c-53.023,0-96-42.977-96-96V96C0,42.977,42.977,0,96,0h320c53.023,0,96,42.977,96,96v320
	C512,469.023,469.023,512,416,512z"/>
<path fill="#3956F0" d="M305.369,180.481c0,33.895-27.475,61.37-61.369,61.37s-61.37-27.475-61.37-61.37
	c0-33.894,27.475-61.37,61.37-61.37S305.369,146.587,305.369,180.481z"/>
<path fill="#3956F0" d="M296.163,266.413H191.819c-32.132,0-58.294,26.162-58.294,58.313v42.957c0,5.079,4.126,9.206,9.206,9.206
	H345.27c5.08,0,9.206-4.127,9.206-9.206v-42.957C354.476,292.575,328.313,266.413,296.163,266.413z"/>
</svg>
