<svg id="Layer_35" enable-background="new 0 0 64 64" height="512" viewBox="0 0 64 64" width="512" xmlns="http://www.w3.org/2000/svg"><g><g><path d="m20 21h2v7h-2z" fill="#686868"/></g><path d="m25 36v-24h24v50h-14" fill="#3b5892"/><path d="m15 36h20v26h-20z" fill="#f0ae42"/><path d="m24 60h-6c-.552 0-1-.448-1-1v-20c0-.552.448-1 1-1h6c.552 0 1 .448 1 1v20c0 .552-.448 1-1 1z" fill="#f9d266"/><path d="m32 57h-2c-.552 0-1-.448-1-1v-18c0-.552.448-1 1-1h2c.552 0 1 .448 1 1v18c0 .552-.448 1-1 1z" fill="#f9d266"/><path d="m45 60h-6c-.552 0-1-.448-1-1v-27c0-.552.448-1 1-1h6c.552 0 1 .448 1 1v27c0 .552-.448 1-1 1z" fill="#4c6cb5"/><path d="m46 16h-21v13h21c.552 0 1-.448 1-1v-11c0-.552-.448-1-1-1z" fill="#4c6cb5"/><g fill="#fff"><path d="m29 32h6v4h-6z"/><path d="m29 24h6v4h-6z"/><path d="m29 16h6v4h-6z"/><path d="m39 16h6v4h-6z"/><path d="m39 24h6v4h-6z"/><path d="m39 32h6v4h-6z"/><path d="m39 40h6v4h-6z"/><path d="m39 48h6v4h-6z"/></g><g><path d="m18 39h2v2h-2z" fill="#fff"/></g><g><path d="m22 39h2v2h-2z" fill="#fff"/></g><g><path d="m26 39h2v2h-2z" fill="#fff"/></g><g><path d="m30 39h2v2h-2z" fill="#fff"/></g><g><path d="m18 43h2v2h-2z" fill="#fff"/></g><g><path d="m22 43h2v2h-2z" fill="#fff"/></g><g><path d="m26 43h2v2h-2z" fill="#fff"/></g><g><path d="m30 43h2v2h-2z" fill="#fff"/></g><g><path d="m18 47h2v2h-2z" fill="#fff"/></g><g><path d="m22 47h2v2h-2z" fill="#fff"/></g><g><path d="m26 47h2v2h-2z" fill="#fff"/></g><g><path d="m30 47h2v2h-2z" fill="#fff"/></g><g><path d="m18 51h2v2h-2z" fill="#fff"/></g><g><path d="m22 51h2v2h-2z" fill="#fff"/></g><g><path d="m26 51h2v2h-2z" fill="#fff"/></g><g><path d="m30 51h2v2h-2z" fill="#fff"/></g><path d="m19 32v-4h6v4" fill="#f0ae42"/><path d="m27 12v-3h12v3" fill="#4c6cb5"/><path d="m21 62v-4h8v4" fill="#686868"/><path d="m17 36v-4h8v4" fill="#f9d266"/><path d="m19 28v3h4c.552 0 1-.448 1-1v-2z" fill="#f9d266"/><path d="m27 59h-4c-.552 0-1 .448-1 1v2h6v-2c0-.552-.448-1-1-1z" fill="#c1c1c1"/><path d="m35 9v-6c-3.314 0-6 2.686-6 6" fill="#3b5892"/><path d="m49 11h-9v-2c0-.553-.447-1-1-1h-3v-7h-2v1.08c-3.059.441-5.479 2.861-5.92 5.92h-1.08c-.553 0-1 .447-1 1v2h-1c-.553 0-1 .447-1 1v15h-2v-6h-2v6h-1c-.553 0-1 .447-1 1v3h-1c-.553 0-1 .447-1 1v3h-1c-.553 0-1 .447-1 1v26c0 .553.447 1 1 1h20 14c.553 0 1-.447 1-1v-50c0-.553-.447-1-1-1zm-15-6.899v3.899h-3.899c.399-1.956 1.943-3.5 3.899-3.899zm-6 5.899h10v1h-10zm-8 19h4v2h-4zm-2 4h6v2h-6zm10 28h-6v-2h6zm6 0h-4v-3c0-.553-.447-1-1-1h-8c-.553 0-1 .447-1 1v3h-4v-24h13 5zm0-26h-4v-2h4zm14 26h-12v-25-4c0-.553-.447-1-1-1h-6c-.553 0-1 .447-1 1v3h-2v-22h22z"/><path d="m29 29h6c.553 0 1-.447 1-1v-4c0-.553-.447-1-1-1h-6c-.553 0-1 .447-1 1v4c0 .553.447 1 1 1zm1-4h4v2h-4z"/><path d="m29 21h6c.553 0 1-.447 1-1v-4c0-.553-.447-1-1-1h-6c-.553 0-1 .447-1 1v4c0 .553.447 1 1 1zm1-4h4v2h-4z"/><path d="m39 21h6c.553 0 1-.447 1-1v-4c0-.553-.447-1-1-1h-6c-.553 0-1 .447-1 1v4c0 .553.447 1 1 1zm1-4h4v2h-4z"/><path d="m39 29h6c.553 0 1-.447 1-1v-4c0-.553-.447-1-1-1h-6c-.553 0-1 .447-1 1v4c0 .553.447 1 1 1zm1-4h4v2h-4z"/><path d="m39 37h6c.553 0 1-.447 1-1v-4c0-.553-.447-1-1-1h-6c-.553 0-1 .447-1 1v4c0 .553.447 1 1 1zm1-4h4v2h-4z"/><path d="m39 45h6c.553 0 1-.447 1-1v-4c0-.553-.447-1-1-1h-6c-.553 0-1 .447-1 1v4c0 .553.447 1 1 1zm1-4h4v2h-4z"/><path d="m39 53h6c.553 0 1-.447 1-1v-4c0-.553-.447-1-1-1h-6c-.553 0-1 .447-1 1v4c0 .553.447 1 1 1zm1-4h4v2h-4z"/><path d="m18 39h2v2h-2z"/><path d="m22 39h2v2h-2z"/><path d="m26 39h2v2h-2z"/><path d="m30 39h2v2h-2z"/><path d="m18 43h2v2h-2z"/><path d="m22 43h2v2h-2z"/><path d="m26 43h2v2h-2z"/><path d="m30 43h2v2h-2z"/><path d="m18 47h2v2h-2z"/><path d="m22 47h2v2h-2z"/><path d="m26 47h2v2h-2z"/><path d="m30 47h2v2h-2z"/><path d="m18 51h2v2h-2z"/><path d="m22 51h2v2h-2z"/><path d="m26 51h2v2h-2z"/><path d="m30 51h2v2h-2z"/></g></svg>