<svg xmlns="http://www.w3.org/2000/svg" viewBox="0 0 100 100"><defs><style>.cls-1{fill:none;stroke:#fff;stroke-linecap:round;stroke-linejoin:round;stroke-width:5px;}</style></defs><title>up_projects_co</title><g id="Layer_1" data-name="Layer 1"><path class="cls-1" d="M3,44.89s13.26,37.81,52.77,47A24,24,0,0,0,69.28,83S66.37,72.52,53.9,69.4c0,0-6.75,2.55-7.84,8,0,0-18.13-.34-29.35-26.1,0,0,8.31-.21,8.94-7.69,0,0-5.41-10.39-14.55-13.71C11.1,29.93,4,33.87,3,44.89Z"/><polyline class="cls-1" points="15.47 32.18 15.47 18.5 88.81 18.5 88.81 69.4 55.15 69.4 29.15 69.4"/><polyline class="cls-1" points="15.47 18.5 52.13 51.12 88.81 18.5"/><line class="cls-1" x1="88.8" y1="69.4" x2="61.17" y2="43.95"/><line class="cls-1" x1="22.66" y1="62.03" x2="44.08" y2="43.95"/></g></svg>