<svg xmlns="http://www.w3.org/2000/svg" viewBox="0 0 100 100"><defs><style>.cls-1{fill:none;stroke:#fff;stroke-linecap:round;stroke-linejoin:round;stroke-width:5px;}</style></defs><title>up_projects_co</title><g id="Layer_1" data-name="Layer 1"><path class="cls-1" d="M50,82.84H11.08c-1.67,0-2.05-.38-2.05-2V22.11c0-1.49.44-1.93,1.94-1.93H89.13c1.4,0,1.87.45,1.87,1.86V81.16c0,1.23-.52,1.68-1.9,1.68ZM57.91,58l-.47-.78Q55,53.08,52.59,49q-5.15-8.75-10.27-17.5c-.85-1.44-1.93-1.42-2.77,0Q34.23,40.73,28.9,50q-6.1,10.6-12.19,21.21c-.36.63-.89,1.22-.45,2s1.25.71,2,.71H82.59a1.33,1.33,0,0,0,1.17-2c-.12-.24-.26-.48-.4-.72l-15-26.38c-.75-1.33-1.89-1.34-2.67,0L60.5,53.62Zm1.58-19.12a5.77,5.77,0,1,0-5.75-5.82A5.77,5.77,0,0,0,59.49,38.88Z"/></g></svg>