<svg xmlns="http://www.w3.org/2000/svg" viewBox="0 0 100 100"><defs><style>.cls-1{fill:none;stroke:#fff;stroke-linecap:round;stroke-linejoin:round;stroke-width:5px;}</style></defs><title>up_projects_co</title><g id="Layer_1" data-name="Layer 1"><path class="cls-1" d="M27.13,74.29a8.82,8.82,0,1,0-8.82,8.81H92.67V21h-65"/><path class="cls-1" d="M9.5,75.53V22.06a8.82,8.82,0,0,1,8.81-8.81c4.87,0,8.82,2.9,8.82,7.77v52.6"/><path class="cls-1" d="M69.81,68.62l-4.12-1.93a3.86,3.86,0,0,0-5.14,2.24L60.19,70C59,73.58,59,73.55,55.29,73.39a1.29,1.29,0,0,1-1.39-1.08C53.56,71.2,53,70.14,52.74,69a3.11,3.11,0,0,0-2-2.19,3.4,3.4,0,0,0-3.85.22,4,4,0,0,1-.74.39c-3,1.52-3.85,1.28-5.86-1.51a1.12,1.12,0,0,1,0-1.36c.6-1.25,1.15-2.52,1.77-3.76a2.54,2.54,0,0,0,.13-1.88c-.48-2.07-1.87-2.88-3.76-3.41-3.26-.91-3.79-2-3.16-5.33.11-.59.46-.68.86-.82,1.15-.42,2.29-.87,3.45-1.22a3.73,3.73,0,0,0,2.2-2c1-1.75.2-3-.53-4.46-1.65-3.22-1.48-3.87,1.41-6a1,1,0,0,1,1.21-.1,21.45,21.45,0,0,1,2.69,1.29,4,4,0,0,0,4.62,0,2.11,2.11,0,0,0,1.27-1.37c.34-1.28.9-2.5,1.21-3.79.26-1.08.82-1.32,1.86-1.31,3.4.05,3.38,0,4.51,3.22.48,1.34.68,2.69,2.34,3.53,2,1,3.38,0,4.91-.78,2.61-1.3,2.54-1.24,4.64.67,1.14,1,1.44,1.94.53,3.23a13.42,13.42,0,0,0-.93,2c-1.31,2.81-.38,5,2.58,5.94.16.05.31.13.47.18,3.54,1.19,3.51,1.19,3.36,4.89a1.33,1.33,0,0,1-1.07,1.42c-1.16.36-2.28.85-3.45,1.19a3,3,0,0,0-2,1.81,3.56,3.56,0,0,0,.22,4.14,4,4,0,0,1,.45.9c.39.89,1.47,1.87,1.07,2.64a14.57,14.57,0,0,1-2.83,3A1.78,1.78,0,0,1,69.81,68.62ZM63.39,52.08a6.74,6.74,0,0,0-6.81-6.89,6.84,6.84,0,0,0-6.85,6.72,6.83,6.83,0,1,0,13.66.17Z"/></g></svg>